%TF.GenerationSoftware,KiCad,Pcbnew,9.0.2*%
%TF.CreationDate,2025-05-16T17:46:14+03:00*%
%TF.ProjectId,Project_PCB,50726f6a-6563-4745-9f50-43422e6b6963,0*%
%TF.SameCoordinates,Original*%
%TF.FileFunction,Copper,L1,Top*%
%TF.FilePolarity,Positive*%
%FSLAX46Y46*%
G04 Gerber Fmt 4.6, Leading zero omitted, Abs format (unit mm)*
G04 Created by KiCad (PCBNEW 9.0.2) date 2025-05-16 17:46:14*
%MOMM*%
%LPD*%
G01*
G04 APERTURE LIST*
G04 Aperture macros list*
%AMRoundRect*
0 Rectangle with rounded corners*
0 $1 Rounding radius*
0 $2 $3 $4 $5 $6 $7 $8 $9 X,Y pos of 4 corners*
0 Add a 4 corners polygon primitive as box body*
4,1,4,$2,$3,$4,$5,$6,$7,$8,$9,$2,$3,0*
0 Add four circle primitives for the rounded corners*
1,1,$1+$1,$2,$3*
1,1,$1+$1,$4,$5*
1,1,$1+$1,$6,$7*
1,1,$1+$1,$8,$9*
0 Add four rect primitives between the rounded corners*
20,1,$1+$1,$2,$3,$4,$5,0*
20,1,$1+$1,$4,$5,$6,$7,0*
20,1,$1+$1,$6,$7,$8,$9,0*
20,1,$1+$1,$8,$9,$2,$3,0*%
G04 Aperture macros list end*
%TA.AperFunction,SMDPad,CuDef*%
%ADD10RoundRect,0.237500X0.250000X0.237500X-0.250000X0.237500X-0.250000X-0.237500X0.250000X-0.237500X0*%
%TD*%
%TA.AperFunction,SMDPad,CuDef*%
%ADD11RoundRect,0.237500X0.237500X-0.250000X0.237500X0.250000X-0.237500X0.250000X-0.237500X-0.250000X0*%
%TD*%
%TA.AperFunction,SMDPad,CuDef*%
%ADD12RoundRect,0.250000X-0.325000X-0.450000X0.325000X-0.450000X0.325000X0.450000X-0.325000X0.450000X0*%
%TD*%
%TA.AperFunction,ComponentPad*%
%ADD13C,1.600000*%
%TD*%
%TA.AperFunction,SMDPad,CuDef*%
%ADD14RoundRect,0.100000X-0.100000X0.650000X-0.100000X-0.650000X0.100000X-0.650000X0.100000X0.650000X0*%
%TD*%
%TA.AperFunction,SMDPad,CuDef*%
%ADD15RoundRect,0.237500X0.300000X0.237500X-0.300000X0.237500X-0.300000X-0.237500X0.300000X-0.237500X0*%
%TD*%
%TA.AperFunction,ComponentPad*%
%ADD16R,1.700000X1.700000*%
%TD*%
%TA.AperFunction,ComponentPad*%
%ADD17C,1.700000*%
%TD*%
%TA.AperFunction,SMDPad,CuDef*%
%ADD18RoundRect,0.237500X0.237500X-0.300000X0.237500X0.300000X-0.237500X0.300000X-0.237500X-0.300000X0*%
%TD*%
%TA.AperFunction,SMDPad,CuDef*%
%ADD19RoundRect,0.237500X-0.250000X-0.237500X0.250000X-0.237500X0.250000X0.237500X-0.250000X0.237500X0*%
%TD*%
%TA.AperFunction,SMDPad,CuDef*%
%ADD20RoundRect,0.237500X-0.237500X0.250000X-0.237500X-0.250000X0.237500X-0.250000X0.237500X0.250000X0*%
%TD*%
%TA.AperFunction,ComponentPad*%
%ADD21C,2.000000*%
%TD*%
%TA.AperFunction,SMDPad,CuDef*%
%ADD22RoundRect,0.250000X1.500000X0.900000X-1.500000X0.900000X-1.500000X-0.900000X1.500000X-0.900000X0*%
%TD*%
%TA.AperFunction,SMDPad,CuDef*%
%ADD23R,0.355600X0.736600*%
%TD*%
%TA.AperFunction,SMDPad,CuDef*%
%ADD24R,2.800000X1.000000*%
%TD*%
%TA.AperFunction,ComponentPad*%
%ADD25R,1.995000X1.995000*%
%TD*%
%TA.AperFunction,ComponentPad*%
%ADD26C,1.995000*%
%TD*%
%TA.AperFunction,SMDPad,CuDef*%
%ADD27RoundRect,0.250000X-1.500000X0.250000X-1.500000X-0.250000X1.500000X-0.250000X1.500000X0.250000X0*%
%TD*%
%TA.AperFunction,SMDPad,CuDef*%
%ADD28RoundRect,0.250001X-1.449999X0.499999X-1.449999X-0.499999X1.449999X-0.499999X1.449999X0.499999X0*%
%TD*%
%TA.AperFunction,SMDPad,CuDef*%
%ADD29R,0.508000X1.320800*%
%TD*%
%TA.AperFunction,SMDPad,CuDef*%
%ADD30RoundRect,0.250000X-0.450000X0.325000X-0.450000X-0.325000X0.450000X-0.325000X0.450000X0.325000X0*%
%TD*%
%TA.AperFunction,SMDPad,CuDef*%
%ADD31R,1.500000X0.900000*%
%TD*%
%TA.AperFunction,SMDPad,CuDef*%
%ADD32R,0.900000X1.500000*%
%TD*%
%TA.AperFunction,HeatsinkPad*%
%ADD33C,0.600000*%
%TD*%
%TA.AperFunction,HeatsinkPad*%
%ADD34R,3.900000X3.900000*%
%TD*%
%TA.AperFunction,SMDPad,CuDef*%
%ADD35RoundRect,0.250000X0.525000X0.250000X-0.525000X0.250000X-0.525000X-0.250000X0.525000X-0.250000X0*%
%TD*%
%TA.AperFunction,SMDPad,CuDef*%
%ADD36R,0.952500X0.558800*%
%TD*%
%TA.AperFunction,ViaPad*%
%ADD37C,1.000000*%
%TD*%
%TA.AperFunction,Conductor*%
%ADD38C,0.500000*%
%TD*%
%TA.AperFunction,Conductor*%
%ADD39C,0.300000*%
%TD*%
%TA.AperFunction,Profile*%
%ADD40C,0.050000*%
%TD*%
G04 APERTURE END LIST*
D10*
%TO.P,R1,1*%
%TO.N,+3V3*%
X22500000Y-8500000D03*
%TO.P,R1,2*%
%TO.N,ESP~{RST}*%
X20675000Y-8500000D03*
%TD*%
D11*
%TO.P,R13,1*%
%TO.N,Net-(D7-K)*%
X26000000Y-53325000D03*
%TO.P,R13,2*%
%TO.N,Net-(U3-STAT)*%
X26000000Y-51500000D03*
%TD*%
D12*
%TO.P,D3,1,K*%
%TO.N,GND*%
X56000000Y-28000000D03*
%TO.P,D3,2,A*%
%TO.N,Net-(D3-A)*%
X58050000Y-28000000D03*
%TD*%
D13*
%TO.P,C7,1*%
%TO.N,+BATT*%
X19000000Y-48350000D03*
%TO.P,C7,2*%
%TO.N,GND*%
X19000000Y-50350000D03*
%TD*%
%TO.P,C2,1*%
%TO.N,+3V3*%
X47000000Y-52250000D03*
%TO.P,C2,2*%
%TO.N,GND*%
X47000000Y-49750000D03*
%TD*%
D14*
%TO.P,U4,1,+*%
%TO.N,Net-(U4-+)*%
X21150000Y-29000000D03*
%TO.P,U4,2,V-*%
%TO.N,GND*%
X20500000Y-29000000D03*
%TO.P,U4,3,-*%
%TO.N,BATT{slash}IO8*%
X19850000Y-29000000D03*
%TO.P,U4,4*%
X19850000Y-31660000D03*
%TO.P,U4,5,V+*%
%TO.N,+BATT*%
X21150000Y-31660000D03*
%TD*%
D15*
%TO.P,C3,1*%
%TO.N,+BATT*%
X21000000Y-34000000D03*
%TO.P,C3,2*%
%TO.N,GND*%
X19275000Y-34000000D03*
%TD*%
D16*
%TO.P,D1,1,RA*%
%TO.N,Net-(D1-RA)*%
X5000000Y-12000000D03*
D17*
%TO.P,D1,2,K*%
%TO.N,GND*%
X5000000Y-14540000D03*
%TO.P,D1,3,GA*%
%TO.N,Net-(D1-GA)*%
X5000000Y-17080000D03*
%TO.P,D1,4,BA*%
%TO.N,Net-(D1-BA)*%
X5000000Y-19620000D03*
%TD*%
D18*
%TO.P,C1,1*%
%TO.N,ESP~{RST}*%
X18500000Y-9500000D03*
%TO.P,C1,2*%
%TO.N,GND*%
X18500000Y-7775000D03*
%TD*%
D15*
%TO.P,C8,1*%
%TO.N,+3V3*%
X33725000Y-61500000D03*
%TO.P,C8,2*%
%TO.N,POW{slash}IO9*%
X32000000Y-61500000D03*
%TD*%
D16*
%TO.P,D2,1,RA*%
%TO.N,Net-(D2-RA)*%
X5000000Y-23500000D03*
D17*
%TO.P,D2,2,K*%
%TO.N,GND*%
X5000000Y-26040000D03*
%TO.P,D2,3,GA*%
%TO.N,Net-(D2-GA)*%
X5000000Y-28580000D03*
%TO.P,D2,4,BA*%
%TO.N,Net-(D2-BA)*%
X5000000Y-31120000D03*
%TD*%
D19*
%TO.P,R2,1*%
%TO.N,Net-(U1-IO0)*%
X56000000Y-24500000D03*
%TO.P,R2,2*%
%TO.N,Net-(D3-A)*%
X57825000Y-24500000D03*
%TD*%
D20*
%TO.P,R14,1*%
%TO.N,Net-(U3-PROG)*%
X24000000Y-56000000D03*
%TO.P,R14,2*%
%TO.N,GND*%
X24000000Y-57825000D03*
%TD*%
D21*
%TO.P,TP3,1,1*%
%TO.N,GND*%
X15500000Y-52350000D03*
%TD*%
D22*
%TO.P,D4,1,K*%
%TO.N,VIN*%
X34700000Y-57500000D03*
%TO.P,D4,2,A*%
%TO.N,VBUS*%
X29300000Y-57500000D03*
%TD*%
D16*
%TO.P,J2,1,Pin_1*%
%TO.N,GND*%
X64000000Y-9960000D03*
D17*
%TO.P,J2,2,Pin_2*%
%TO.N,Net-(J2-Pin_2)*%
X64000000Y-12500000D03*
%TO.P,J2,3,Pin_3*%
%TO.N,+3V3*%
X64000000Y-15040000D03*
%TD*%
D13*
%TO.P,C4,1*%
%TO.N,VIN*%
X38500000Y-51000000D03*
%TO.P,C4,2*%
%TO.N,GND*%
X40500000Y-51000000D03*
%TD*%
D23*
%TO.P,CR1,1,1*%
%TO.N,VBUS*%
X12679200Y-38000000D03*
%TO.P,CR1,2,2*%
%TO.N,GND*%
X13339600Y-38000000D03*
%TO.P,CR1,3,3*%
%TO.N,unconnected-(CR1-Pad3)*%
X14000000Y-38000000D03*
%TO.P,CR1,4,4*%
%TO.N,unconnected-(CR1-Pad4)*%
X14000000Y-35917200D03*
%TO.P,CR1,5,5*%
%TO.N,ESP20{slash}D+*%
X13339600Y-35917200D03*
%TO.P,CR1,6,6*%
%TO.N,ESP19{slash}D-*%
X12679200Y-35917200D03*
%TD*%
D24*
%TO.P,SW2,1,1*%
%TO.N,Net-(U1-IO0)*%
X47200000Y-24500000D03*
X53000000Y-24500000D03*
%TO.P,SW2,2,2*%
%TO.N,GND*%
X47200000Y-28500000D03*
X53000000Y-28500000D03*
%TD*%
D11*
%TO.P,R5,1*%
%TO.N,Net-(U2-EN)*%
X38000000Y-59825000D03*
%TO.P,R5,2*%
%TO.N,VIN*%
X38000000Y-58000000D03*
%TD*%
D25*
%TO.P,LS1,1,1*%
%TO.N,Net-(U1-IO17)*%
X29000000Y-38500000D03*
D26*
%TO.P,LS1,2,2*%
%TO.N,GND*%
X39000000Y-38500000D03*
%TD*%
D10*
%TO.P,R11,1*%
%TO.N,D2G*%
X18500000Y-16500000D03*
%TO.P,R11,2*%
%TO.N,Net-(D2-GA)*%
X16675000Y-16500000D03*
%TD*%
D21*
%TO.P,TP5,1,1*%
%TO.N,VIN*%
X38500000Y-55500000D03*
%TD*%
D27*
%TO.P,J3,1,Pin_1*%
%TO.N,+BATT*%
X11350000Y-48500000D03*
%TO.P,J3,2,Pin_2*%
%TO.N,GND*%
X11350000Y-50500000D03*
D28*
%TO.P,J3,MP*%
%TO.N,N/C*%
X5600000Y-46150000D03*
X5600000Y-52850000D03*
%TD*%
D11*
%TO.P,R16,1*%
%TO.N,Net-(U4-+)*%
X23000000Y-29825000D03*
%TO.P,R16,2*%
%TO.N,GND*%
X23000000Y-28000000D03*
%TD*%
D15*
%TO.P,C5,1*%
%TO.N,+3V3*%
X43000000Y-62000000D03*
%TO.P,C5,2*%
%TO.N,GND*%
X41275000Y-62000000D03*
%TD*%
D19*
%TO.P,R12,1*%
%TO.N,Net-(D2-BA)*%
X20175000Y-18000000D03*
%TO.P,R12,2*%
%TO.N,D2B*%
X22000000Y-18000000D03*
%TD*%
%TO.P,R10,1*%
%TO.N,Net-(D2-RA)*%
X20175000Y-15500000D03*
%TO.P,R10,2*%
%TO.N,D2R*%
X22000000Y-15500000D03*
%TD*%
D16*
%TO.P,SW3,1,1*%
%TO.N,POW{slash}IO9*%
X32000000Y-64000000D03*
D17*
%TO.P,SW3,2,2*%
%TO.N,+3V3*%
X34540000Y-64000000D03*
%TD*%
D19*
%TO.P,R9,1*%
%TO.N,Net-(D1-BA)*%
X16675000Y-14000000D03*
%TO.P,R9,2*%
%TO.N,D1B*%
X18500000Y-14000000D03*
%TD*%
D29*
%TO.P,U3,1,STAT*%
%TO.N,Net-(U3-STAT)*%
X24000000Y-51409200D03*
%TO.P,U3,2,VSS*%
%TO.N,GND*%
X23049999Y-51409200D03*
%TO.P,U3,3,VBAT*%
%TO.N,+BATT*%
X22099998Y-51409200D03*
%TO.P,U3,4,VDD*%
%TO.N,VBUS*%
X22099998Y-54000000D03*
%TO.P,U3,5,PROG*%
%TO.N,Net-(U3-PROG)*%
X24000000Y-54000000D03*
%TD*%
D21*
%TO.P,TP4,1,1*%
%TO.N,VBUS*%
X10500000Y-39500000D03*
%TD*%
D19*
%TO.P,R7,1*%
%TO.N,Net-(D1-RA)*%
X20175000Y-11500000D03*
%TO.P,R7,2*%
%TO.N,D1R*%
X22000000Y-11500000D03*
%TD*%
D21*
%TO.P,TP2,1,1*%
%TO.N,+BATT*%
X15500000Y-46350000D03*
%TD*%
D30*
%TO.P,D7,1,K*%
%TO.N,Net-(D7-K)*%
X26000000Y-55500000D03*
%TO.P,D7,2,A*%
%TO.N,VBUS*%
X26000000Y-57550000D03*
%TD*%
D18*
%TO.P,C6,1*%
%TO.N,+3V3*%
X24000000Y-9000000D03*
%TO.P,C6,2*%
%TO.N,GND*%
X24000000Y-7275000D03*
%TD*%
D31*
%TO.P,U1,1,GND*%
%TO.N,GND*%
X25750000Y-7740000D03*
%TO.P,U1,2,3V3*%
%TO.N,+3V3*%
X25750000Y-9010000D03*
%TO.P,U1,3,EN*%
%TO.N,ESP~{RST}*%
X25750000Y-10280000D03*
%TO.P,U1,4,IO4*%
%TO.N,D1R*%
X25750000Y-11550000D03*
%TO.P,U1,5,IO5*%
%TO.N,D1G*%
X25750000Y-12820000D03*
%TO.P,U1,6,IO6*%
%TO.N,D1B*%
X25750000Y-14090000D03*
%TO.P,U1,7,IO7*%
%TO.N,D2R*%
X25750000Y-15360000D03*
%TO.P,U1,8,IO15*%
%TO.N,D2G*%
X25750000Y-16630000D03*
%TO.P,U1,9,IO16*%
%TO.N,D2B*%
X25750000Y-17900000D03*
%TO.P,U1,10,IO17*%
%TO.N,Net-(U1-IO17)*%
X25750000Y-19170000D03*
%TO.P,U1,11,IO18*%
%TO.N,unconnected-(U1-IO18-Pad11)*%
X25750000Y-20440000D03*
%TO.P,U1,12,IO8*%
%TO.N,BATT{slash}IO8*%
X25750000Y-21710000D03*
%TO.P,U1,13,IO19*%
%TO.N,ESP19{slash}D-*%
X25750000Y-22980000D03*
%TO.P,U1,14,IO20*%
%TO.N,ESP20{slash}D+*%
X25750000Y-24250000D03*
D32*
%TO.P,U1,15,IO3*%
%TO.N,unconnected-(U1-IO3-Pad15)*%
X27515000Y-25500000D03*
%TO.P,U1,16,IO46*%
%TO.N,unconnected-(U1-IO46-Pad16)*%
X28785000Y-25500000D03*
%TO.P,U1,17,IO9*%
%TO.N,POW{slash}IO9*%
X30055000Y-25500000D03*
%TO.P,U1,18,IO10*%
%TO.N,unconnected-(U1-IO10-Pad18)*%
X31325000Y-25500000D03*
%TO.P,U1,19,IO11*%
%TO.N,unconnected-(U1-IO11-Pad19)*%
X32595000Y-25500000D03*
%TO.P,U1,20,IO12*%
%TO.N,unconnected-(U1-IO12-Pad20)*%
X33865000Y-25500000D03*
%TO.P,U1,21,IO13*%
%TO.N,unconnected-(U1-IO13-Pad21)*%
X35135000Y-25500000D03*
%TO.P,U1,22,IO14*%
%TO.N,unconnected-(U1-IO14-Pad22)*%
X36405000Y-25500000D03*
%TO.P,U1,23,IO21*%
%TO.N,unconnected-(U1-IO21-Pad23)*%
X37675000Y-25500000D03*
%TO.P,U1,24,IO47*%
%TO.N,unconnected-(U1-IO47-Pad24)*%
X38945000Y-25500000D03*
%TO.P,U1,25,IO48*%
%TO.N,unconnected-(U1-IO48-Pad25)*%
X40215000Y-25500000D03*
%TO.P,U1,26,IO45*%
%TO.N,unconnected-(U1-IO45-Pad26)*%
X41485000Y-25500000D03*
D31*
%TO.P,U1,27,IO0*%
%TO.N,Net-(U1-IO0)*%
X43250000Y-24250000D03*
%TO.P,U1,28,IO35*%
%TO.N,unconnected-(U1-IO35-Pad28)*%
X43250000Y-22980000D03*
%TO.P,U1,29,IO36*%
%TO.N,unconnected-(U1-IO36-Pad29)*%
X43250000Y-21710000D03*
%TO.P,U1,30,IO37*%
%TO.N,unconnected-(U1-IO37-Pad30)*%
X43250000Y-20440000D03*
%TO.P,U1,31,IO38*%
%TO.N,unconnected-(U1-IO38-Pad31)*%
X43250000Y-19170000D03*
%TO.P,U1,32,IO39*%
%TO.N,unconnected-(U1-IO39-Pad32)*%
X43250000Y-17900000D03*
%TO.P,U1,33,IO40*%
%TO.N,unconnected-(U1-IO40-Pad33)*%
X43250000Y-16630000D03*
%TO.P,U1,34,IO41*%
%TO.N,unconnected-(U1-IO41-Pad34)*%
X43250000Y-15360000D03*
%TO.P,U1,35,IO42*%
%TO.N,unconnected-(U1-IO42-Pad35)*%
X43250000Y-14090000D03*
%TO.P,U1,36,RXD0*%
%TO.N,unconnected-(U1-RXD0-Pad36)*%
X43250000Y-12820000D03*
%TO.P,U1,37,TXD0*%
%TO.N,unconnected-(U1-TXD0-Pad37)*%
X43250000Y-11550000D03*
%TO.P,U1,38,IO2*%
%TO.N,unconnected-(U1-IO2-Pad38)*%
X43250000Y-10280000D03*
%TO.P,U1,39,IO1*%
%TO.N,Net-(J2-Pin_2)*%
X43250000Y-9010000D03*
%TO.P,U1,40,GND*%
%TO.N,GND*%
X43250000Y-7740000D03*
D33*
%TO.P,U1,41,GND*%
X31600000Y-14760000D03*
X31600000Y-16160000D03*
X32300000Y-14060000D03*
X32300000Y-15460000D03*
X32300000Y-16860000D03*
X33000000Y-14760000D03*
D34*
X33000000Y-15460000D03*
D33*
X33000000Y-16160000D03*
X33700000Y-14060000D03*
X33700000Y-15460000D03*
X33700000Y-16860000D03*
X34400000Y-14760000D03*
X34400000Y-16160000D03*
%TD*%
D19*
%TO.P,R17,1*%
%TO.N,POW{slash}IO9*%
X30175000Y-27500000D03*
%TO.P,R17,2*%
%TO.N,GND*%
X32000000Y-27500000D03*
%TD*%
D21*
%TO.P,TP1,1,1*%
%TO.N,+3V3*%
X44000000Y-55500000D03*
%TD*%
D22*
%TO.P,D5,1,K*%
%TO.N,VIN*%
X34700000Y-52000000D03*
%TO.P,D5,2,A*%
%TO.N,+BATT*%
X29300000Y-52000000D03*
%TD*%
D16*
%TO.P,J1,1,D+*%
%TO.N,ESP20{slash}D+*%
X5000000Y-35000000D03*
D17*
%TO.P,J1,2,D-*%
%TO.N,ESP19{slash}D-*%
X5000000Y-37540000D03*
%TO.P,J1,3,VBUS*%
%TO.N,VBUS*%
X5000000Y-40080000D03*
%TO.P,J1,4,GND*%
%TO.N,GND*%
X5000000Y-42620000D03*
%TD*%
D11*
%TO.P,R15,1*%
%TO.N,+BATT*%
X23000000Y-33325000D03*
%TO.P,R15,2*%
%TO.N,Net-(U4-+)*%
X23000000Y-31500000D03*
%TD*%
D30*
%TO.P,D6,1,K*%
%TO.N,GND*%
X52000000Y-48500000D03*
%TO.P,D6,2,A*%
%TO.N,Net-(D6-A)*%
X52000000Y-50550000D03*
%TD*%
D11*
%TO.P,R6,1*%
%TO.N,+3V3*%
X52000000Y-54500000D03*
%TO.P,R6,2*%
%TO.N,Net-(D6-A)*%
X52000000Y-52675000D03*
%TD*%
D10*
%TO.P,R8,1*%
%TO.N,D1G*%
X22000000Y-13000000D03*
%TO.P,R8,2*%
%TO.N,Net-(D1-GA)*%
X20175000Y-13000000D03*
%TD*%
D35*
%TO.P,SW1,1,1*%
%TO.N,ESP~{RST}*%
X16500000Y-10700000D03*
X11250000Y-10700000D03*
%TO.P,SW1,2,2*%
%TO.N,GND*%
X16500000Y-7500000D03*
X11250000Y-7500000D03*
%TD*%
D36*
%TO.P,U2,1,VIN*%
%TO.N,VIN*%
X39744100Y-58000000D03*
%TO.P,U2,2,GND*%
%TO.N,GND*%
X39744100Y-58939800D03*
%TO.P,U2,3,EN*%
%TO.N,Net-(U2-EN)*%
X39744100Y-59879600D03*
%TO.P,U2,4,NC*%
%TO.N,unconnected-(U2-NC-Pad4)*%
X42500000Y-59879600D03*
%TO.P,U2,5,VOUT*%
%TO.N,+3V3*%
X42500000Y-58000000D03*
%TD*%
D37*
%TO.N,VBUS*%
X8000000Y-41000000D03*
X8000000Y-55000000D03*
%TO.N,ESP19{slash}D-*%
X8500000Y-33500000D03*
X8500000Y-37000000D03*
%TO.N,+3V3*%
X39500000Y-12000000D03*
X45500000Y-15000000D03*
%TO.N,Net-(U1-IO17)*%
X29000000Y-23500000D03*
%TO.N,BATT{slash}IO8*%
X21500000Y-25500000D03*
X21500000Y-22000000D03*
%TD*%
D38*
%TO.N,VIN*%
X34700000Y-52000000D02*
X37500000Y-52000000D01*
X34700000Y-57500000D02*
X37500000Y-57500000D01*
X34700000Y-52000000D02*
X34700000Y-57500000D01*
X38000000Y-58000000D02*
X38000000Y-56000000D01*
X38000000Y-58000000D02*
X39744100Y-58000000D01*
X37500000Y-57500000D02*
X38000000Y-58000000D01*
X37500000Y-52000000D02*
X38500000Y-51000000D01*
X38000000Y-56000000D02*
X38500000Y-55500000D01*
D39*
%TO.N,ESP~{RST}*%
X22455000Y-10280000D02*
X25750000Y-10280000D01*
X18500000Y-9500000D02*
X19675000Y-9500000D01*
X17300000Y-10700000D02*
X18500000Y-9500000D01*
X19675000Y-9500000D02*
X20675000Y-8500000D01*
X16500000Y-10700000D02*
X17300000Y-10700000D01*
X20675000Y-8500000D02*
X22455000Y-10280000D01*
X16500000Y-10700000D02*
X11250000Y-10700000D01*
%TO.N,+BATT*%
X15500000Y-39500000D02*
X15500000Y-46350000D01*
X21000000Y-34000000D02*
X15500000Y-39500000D01*
D38*
X22500000Y-48350000D02*
X25650000Y-48350000D01*
X22099998Y-48449998D02*
X22000000Y-48350000D01*
D39*
X22815000Y-33325000D02*
X21995000Y-32505000D01*
X23000000Y-33325000D02*
X22815000Y-33325000D01*
D38*
X13350000Y-48500000D02*
X15500000Y-46350000D01*
D39*
X21995000Y-32505000D02*
X21150000Y-31660000D01*
D38*
X11350000Y-48500000D02*
X13350000Y-48500000D01*
X22000000Y-48350000D02*
X22500000Y-48350000D01*
X18850000Y-48500000D02*
X19000000Y-48350000D01*
X22099998Y-51409200D02*
X22099998Y-48449998D01*
X11350000Y-48500000D02*
X18850000Y-48500000D01*
X19000000Y-48350000D02*
X22000000Y-48350000D01*
D39*
X21000000Y-33500000D02*
X21995000Y-32505000D01*
X21000000Y-34000000D02*
X21000000Y-33500000D01*
D38*
X25650000Y-48350000D02*
X29300000Y-52000000D01*
%TO.N,POW{slash}IO9*%
X32000000Y-61500000D02*
X32000000Y-64000000D01*
X30500000Y-27825000D02*
X30175000Y-27500000D01*
X30055000Y-25500000D02*
X30055000Y-27380000D01*
X30055000Y-27380000D02*
X30175000Y-27500000D01*
X32000000Y-61500000D02*
X32000000Y-36000000D01*
X32000000Y-36000000D02*
X30500000Y-34500000D01*
X30500000Y-34500000D02*
X30500000Y-27825000D01*
%TO.N,GND*%
X40720350Y-58939800D02*
X41275000Y-59494450D01*
X11250000Y-7500000D02*
X16500000Y-7500000D01*
X55500000Y-28500000D02*
X56000000Y-28000000D01*
X16500000Y-7500000D02*
X18225000Y-7500000D01*
D39*
X23049999Y-56874999D02*
X23049999Y-52700000D01*
D38*
X18225000Y-7500000D02*
X18500000Y-7775000D01*
D39*
X19275000Y-34000000D02*
X19275000Y-34225000D01*
D38*
X47200000Y-28500000D02*
X53000000Y-28500000D01*
X39744100Y-58939800D02*
X40720350Y-58939800D01*
D39*
X13339600Y-38839600D02*
X13339600Y-38000000D01*
D38*
X19000000Y-50350000D02*
X21350000Y-52700000D01*
X24000000Y-7275000D02*
X19000000Y-7275000D01*
D39*
X19275000Y-34225000D02*
X14500000Y-39000000D01*
X23049999Y-52700000D02*
X23049999Y-51409200D01*
D38*
X41275000Y-59494450D02*
X41275000Y-62000000D01*
X19000000Y-7275000D02*
X18500000Y-7775000D01*
D39*
X14500000Y-39000000D02*
X13500000Y-39000000D01*
D38*
X24000000Y-7275000D02*
X25285000Y-7275000D01*
X53000000Y-28500000D02*
X55500000Y-28500000D01*
X25285000Y-7275000D02*
X25750000Y-7740000D01*
D39*
X13500000Y-39000000D02*
X13339600Y-38839600D01*
X24000000Y-57825000D02*
X23049999Y-56874999D01*
D38*
X21350000Y-52700000D02*
X23049999Y-52700000D01*
%TO.N,VBUS*%
X8000000Y-41000000D02*
X7500000Y-41000000D01*
X29300000Y-57500000D02*
X26800000Y-60000000D01*
X26500000Y-60000000D02*
X26000000Y-60000000D01*
X13000000Y-60000000D02*
X8000000Y-55000000D01*
X22000000Y-60000000D02*
X13000000Y-60000000D01*
X26000000Y-60000000D02*
X22500000Y-60000000D01*
X22099998Y-54000000D02*
X22099998Y-59900002D01*
X26000000Y-57550000D02*
X26000000Y-60000000D01*
X9000000Y-41000000D02*
X10500000Y-39500000D01*
X22500000Y-60000000D02*
X22000000Y-60000000D01*
X26800000Y-60000000D02*
X26500000Y-60000000D01*
X22099998Y-59900002D02*
X22000000Y-60000000D01*
X10500000Y-39500000D02*
X12000000Y-38000000D01*
X8000000Y-41000000D02*
X9000000Y-41000000D01*
X6580000Y-40080000D02*
X5000000Y-40080000D01*
X12000000Y-38000000D02*
X12610800Y-38000000D01*
X7500000Y-41000000D02*
X6580000Y-40080000D01*
D39*
%TO.N,Net-(J2-Pin_2)*%
X43250000Y-9010000D02*
X59010000Y-9010000D01*
X59010000Y-9010000D02*
X62500000Y-12500000D01*
X62500000Y-12500000D02*
X64000000Y-12500000D01*
%TO.N,Net-(D1-GA)*%
X9080000Y-13000000D02*
X20175000Y-13000000D01*
X5000000Y-17080000D02*
X9080000Y-13000000D01*
%TO.N,ESP19{slash}D-*%
X11596400Y-37000000D02*
X12679200Y-35917200D01*
X19020000Y-22980000D02*
X25750000Y-22980000D01*
X5540000Y-37000000D02*
X8500000Y-37000000D01*
X8500000Y-33500000D02*
X19020000Y-22980000D01*
X5000000Y-37540000D02*
X5540000Y-37000000D01*
X8500000Y-37000000D02*
X11596400Y-37000000D01*
%TO.N,Net-(D1-RA)*%
X5000000Y-12000000D02*
X19000000Y-12000000D01*
X19500000Y-11500000D02*
X20175000Y-11500000D01*
X19000000Y-12000000D02*
X19500000Y-11500000D01*
D38*
%TO.N,+3V3*%
X24000000Y-9000000D02*
X23000000Y-9000000D01*
X47000000Y-52250000D02*
X47000000Y-54500000D01*
X47000000Y-58000000D02*
X54000000Y-58000000D01*
X23000000Y-9000000D02*
X22500000Y-8500000D01*
X47000000Y-54500000D02*
X47000000Y-58000000D01*
X42500000Y-58000000D02*
X44000000Y-58000000D01*
X43000000Y-62000000D02*
X44500000Y-60500000D01*
X36510000Y-9010000D02*
X25750000Y-9010000D01*
X44000000Y-58000000D02*
X44500000Y-58000000D01*
X64000000Y-48000000D02*
X64000000Y-15040000D01*
X34540000Y-62315000D02*
X33725000Y-61500000D01*
X42000000Y-64000000D02*
X34540000Y-64000000D01*
X25750000Y-9010000D02*
X24010000Y-9010000D01*
X64000000Y-15040000D02*
X45540000Y-15040000D01*
X44500000Y-60500000D02*
X44500000Y-58000000D01*
X44000000Y-55500000D02*
X44000000Y-58000000D01*
X54000000Y-58000000D02*
X64000000Y-48000000D01*
X43000000Y-62000000D02*
X43000000Y-63000000D01*
X45540000Y-15040000D02*
X45500000Y-15000000D01*
X43000000Y-63000000D02*
X42000000Y-64000000D01*
X39500000Y-12000000D02*
X36510000Y-9010000D01*
X34540000Y-64000000D02*
X34540000Y-62315000D01*
D39*
X52000000Y-54500000D02*
X47000000Y-54500000D01*
D38*
X44500000Y-58000000D02*
X47000000Y-58000000D01*
X24010000Y-9010000D02*
X24000000Y-9000000D01*
D39*
%TO.N,ESP20{slash}D+*%
X13339600Y-35917200D02*
X13339600Y-34839600D01*
X21037700Y-24250000D02*
X25750000Y-24250000D01*
X13339600Y-34839600D02*
X11893850Y-33393850D01*
X10287700Y-35000000D02*
X10893850Y-34393850D01*
X10893850Y-34393850D02*
X11893850Y-33393850D01*
X11893850Y-33393850D02*
X21037700Y-24250000D01*
X10287700Y-35000000D02*
X5000000Y-35000000D01*
%TO.N,Net-(D1-BA)*%
X10620000Y-14000000D02*
X5000000Y-19620000D01*
X16675000Y-14000000D02*
X10620000Y-14000000D01*
%TO.N,Net-(D2-GA)*%
X16675000Y-16500000D02*
X16675000Y-16905000D01*
X16675000Y-16905000D02*
X5000000Y-28580000D01*
%TO.N,Net-(D2-BA)*%
X20175000Y-18000000D02*
X18120000Y-18000000D01*
X18120000Y-18000000D02*
X5000000Y-31120000D01*
%TO.N,Net-(D2-RA)*%
X13000000Y-15500000D02*
X20175000Y-15500000D01*
X5000000Y-23500000D02*
X13000000Y-15500000D01*
%TO.N,Net-(D3-A)*%
X57825000Y-24500000D02*
X57825000Y-27775000D01*
X57825000Y-27775000D02*
X58050000Y-28000000D01*
%TO.N,Net-(D6-A)*%
X52000000Y-52675000D02*
X52000000Y-50550000D01*
D38*
%TO.N,Net-(D7-K)*%
X26000000Y-53325000D02*
X26000000Y-55500000D01*
D39*
%TO.N,Net-(U1-IO17)*%
X29000000Y-21370000D02*
X26800000Y-19170000D01*
X29000000Y-23500000D02*
X29000000Y-21370000D01*
X26800000Y-19170000D02*
X25750000Y-19170000D01*
%TO.N,Net-(U1-IO0)*%
X53000000Y-24500000D02*
X56000000Y-24500000D01*
X46950000Y-24250000D02*
X47200000Y-24500000D01*
X43250000Y-24250000D02*
X46950000Y-24250000D01*
X47200000Y-24500000D02*
X53000000Y-24500000D01*
D38*
%TO.N,Net-(U2-EN)*%
X39689500Y-59825000D02*
X39744100Y-59879600D01*
X38000000Y-59825000D02*
X39689500Y-59825000D01*
D39*
%TO.N,D2R*%
X22140000Y-15360000D02*
X22000000Y-15500000D01*
X25750000Y-15360000D02*
X22140000Y-15360000D01*
%TO.N,D2G*%
X18500000Y-16500000D02*
X25620000Y-16500000D01*
X25620000Y-16500000D02*
X25750000Y-16630000D01*
%TO.N,D2B*%
X25750000Y-17900000D02*
X22100000Y-17900000D01*
X22100000Y-17900000D02*
X22000000Y-18000000D01*
D38*
%TO.N,Net-(U3-STAT)*%
X24000000Y-51409200D02*
X25909200Y-51409200D01*
X25909200Y-51409200D02*
X26000000Y-51500000D01*
D39*
%TO.N,Net-(U3-PROG)*%
X24000000Y-56000000D02*
X24000000Y-54000000D01*
%TO.N,Net-(U4-+)*%
X23000000Y-31500000D02*
X23000000Y-29825000D01*
X21975000Y-29825000D02*
X21150000Y-29000000D01*
X23000000Y-29825000D02*
X21975000Y-29825000D01*
%TO.N,BATT{slash}IO8*%
X19850000Y-29000000D02*
X19850000Y-31660000D01*
X21500000Y-22000000D02*
X21790000Y-21710000D01*
X19850000Y-27150000D02*
X21500000Y-25500000D01*
X19850000Y-29000000D02*
X19850000Y-27150000D01*
X21790000Y-21710000D02*
X25750000Y-21710000D01*
%TO.N,D1R*%
X25700000Y-11500000D02*
X25750000Y-11550000D01*
X22000000Y-11500000D02*
X25700000Y-11500000D01*
%TO.N,D1G*%
X25750000Y-12820000D02*
X22180000Y-12820000D01*
X22180000Y-12820000D02*
X22000000Y-13000000D01*
%TO.N,D1B*%
X25750000Y-14090000D02*
X18590000Y-14090000D01*
X18590000Y-14090000D02*
X18500000Y-14000000D01*
%TD*%
%TA.AperFunction,Conductor*%
%TO.N,GND*%
G36*
X3642539Y279815D02*
G01*
X3688294Y227011D01*
X3699500Y175500D01*
X3699500Y-65891D01*
X3733608Y-193187D01*
X3766554Y-250250D01*
X3799500Y-307314D01*
X3892686Y-400500D01*
X4006814Y-466392D01*
X4134108Y-500500D01*
X4265892Y-500500D01*
X4534108Y-500500D01*
X10376000Y-500500D01*
X10443039Y-520185D01*
X10488794Y-572989D01*
X10500000Y-624500D01*
X10500000Y-6250000D01*
X23145155Y-6250000D01*
X23212194Y-6269685D01*
X23257949Y-6322489D01*
X23267893Y-6391647D01*
X23238868Y-6455203D01*
X23232836Y-6461681D01*
X23180055Y-6514461D01*
X23180052Y-6514465D01*
X23089551Y-6661188D01*
X23089546Y-6661199D01*
X23035319Y-6824847D01*
X23025000Y-6925845D01*
X23025000Y-7025000D01*
X23876000Y-7025000D01*
X23943039Y-7044685D01*
X23988794Y-7097489D01*
X24000000Y-7149000D01*
X24000000Y-7401000D01*
X23980315Y-7468039D01*
X23927511Y-7513794D01*
X23876000Y-7525000D01*
X23011986Y-7525000D01*
X22979328Y-7542832D01*
X22913973Y-7539372D01*
X22900258Y-7534827D01*
X22900254Y-7534826D01*
X22900253Y-7534826D01*
X22900250Y-7534825D01*
X22900246Y-7534825D01*
X22799178Y-7524500D01*
X22200830Y-7524500D01*
X22200812Y-7524501D01*
X22099747Y-7534825D01*
X21935984Y-7589092D01*
X21935981Y-7589093D01*
X21789148Y-7679661D01*
X21675181Y-7793629D01*
X21613858Y-7827114D01*
X21544166Y-7822130D01*
X21499819Y-7793629D01*
X21385851Y-7679661D01*
X21385850Y-7679660D01*
X21239016Y-7589092D01*
X21075253Y-7534826D01*
X21075251Y-7534825D01*
X20974178Y-7524500D01*
X20375830Y-7524500D01*
X20375812Y-7524501D01*
X20274747Y-7534825D01*
X20110984Y-7589092D01*
X20110981Y-7589093D01*
X19964148Y-7679661D01*
X19842161Y-7801648D01*
X19751593Y-7948481D01*
X19751591Y-7948486D01*
X19716706Y-8053763D01*
X19676933Y-8111208D01*
X19612417Y-8138031D01*
X19543641Y-8125716D01*
X19492442Y-8078173D01*
X19478885Y-8028885D01*
X19475000Y-8025000D01*
X18624000Y-8025000D01*
X18556961Y-8005315D01*
X18511206Y-7952511D01*
X18500000Y-7901000D01*
X18500000Y-7775000D01*
X18374000Y-7775000D01*
X18306961Y-7755315D01*
X18261206Y-7702511D01*
X18250000Y-7651000D01*
X18250000Y-7525000D01*
X18750000Y-7525000D01*
X19474999Y-7525000D01*
X19474999Y-7425860D01*
X19474998Y-7425845D01*
X19464680Y-7324847D01*
X19410453Y-7161199D01*
X19410448Y-7161188D01*
X19319947Y-7014465D01*
X19319944Y-7014461D01*
X19198038Y-6892555D01*
X19198034Y-6892552D01*
X19051311Y-6802051D01*
X19051300Y-6802046D01*
X18887652Y-6747819D01*
X18786654Y-6737500D01*
X18750000Y-6737500D01*
X18750000Y-7525000D01*
X18250000Y-7525000D01*
X18250000Y-6737500D01*
X18213361Y-6737500D01*
X18213343Y-6737501D01*
X18112347Y-6747819D01*
X17948699Y-6802046D01*
X17948694Y-6802048D01*
X17823294Y-6879397D01*
X17755902Y-6897837D01*
X17689238Y-6876915D01*
X17652658Y-6838954D01*
X17617317Y-6781656D01*
X17493345Y-6657684D01*
X17344124Y-6565643D01*
X17344119Y-6565641D01*
X17177697Y-6510494D01*
X17177690Y-6510493D01*
X17074986Y-6500000D01*
X16750000Y-6500000D01*
X16750000Y-8499999D01*
X17074972Y-8499999D01*
X17074986Y-8499998D01*
X17177697Y-8489505D01*
X17344119Y-8434358D01*
X17344126Y-8434355D01*
X17436723Y-8377240D01*
X17442901Y-8375549D01*
X17447640Y-8371242D01*
X17476186Y-8366441D01*
X17504116Y-8358799D01*
X17510227Y-8360716D01*
X17516542Y-8359655D01*
X17543154Y-8371051D01*
X17570779Y-8379721D01*
X17576356Y-8385269D01*
X17580770Y-8387159D01*
X17597090Y-8405894D01*
X17604511Y-8413275D01*
X17708991Y-8567643D01*
X17716169Y-8590097D01*
X17727467Y-8610788D01*
X17726610Y-8622760D01*
X17730266Y-8634195D01*
X17724164Y-8656965D01*
X17722483Y-8680480D01*
X17714560Y-8692807D01*
X17712182Y-8701684D01*
X17704182Y-8708956D01*
X17693984Y-8724825D01*
X17679661Y-8739148D01*
X17589093Y-8885981D01*
X17589092Y-8885984D01*
X17534826Y-9049747D01*
X17534826Y-9049748D01*
X17534825Y-9049748D01*
X17524500Y-9150815D01*
X17524500Y-9504191D01*
X17515855Y-9533631D01*
X17509332Y-9563618D01*
X17505577Y-9568633D01*
X17504815Y-9571230D01*
X17488185Y-9591867D01*
X17427060Y-9652993D01*
X17376283Y-9703770D01*
X17314960Y-9737254D01*
X17249599Y-9733794D01*
X17177797Y-9710001D01*
X17177795Y-9710000D01*
X17075010Y-9699500D01*
X15924998Y-9699500D01*
X15924981Y-9699501D01*
X15822203Y-9710000D01*
X15822200Y-9710001D01*
X15655668Y-9765185D01*
X15655663Y-9765187D01*
X15506342Y-9857289D01*
X15382287Y-9981344D01*
X15376580Y-9990598D01*
X15324632Y-10037322D01*
X15271042Y-10049500D01*
X12478958Y-10049500D01*
X12411919Y-10029815D01*
X12373420Y-9990598D01*
X12367712Y-9981344D01*
X12243657Y-9857289D01*
X12243656Y-9857288D01*
X12121782Y-9782116D01*
X12094336Y-9765187D01*
X12094331Y-9765185D01*
X12092862Y-9764698D01*
X11927797Y-9710001D01*
X11927795Y-9710000D01*
X11825010Y-9699500D01*
X10674998Y-9699500D01*
X10674981Y-9699501D01*
X10572203Y-9710000D01*
X10572200Y-9710001D01*
X10405668Y-9765185D01*
X10405663Y-9765187D01*
X10256342Y-9857289D01*
X10132289Y-9981342D01*
X10040187Y-10130663D01*
X10040185Y-10130668D01*
X10029578Y-10162679D01*
X9985001Y-10297203D01*
X9985001Y-10297204D01*
X9985000Y-10297204D01*
X9974500Y-10399983D01*
X9974500Y-11000001D01*
X9974501Y-11000019D01*
X9985000Y-11102796D01*
X9985001Y-11102799D01*
X10012736Y-11186496D01*
X10015138Y-11256324D01*
X9979406Y-11316366D01*
X9916886Y-11347559D01*
X9895030Y-11349500D01*
X6474499Y-11349500D01*
X6407460Y-11329815D01*
X6361705Y-11277011D01*
X6350499Y-11225500D01*
X6350499Y-11102129D01*
X6350498Y-11102123D01*
X6350497Y-11102116D01*
X6344091Y-11042517D01*
X6342387Y-11037949D01*
X6293797Y-10907671D01*
X6293793Y-10907664D01*
X6207547Y-10792455D01*
X6207544Y-10792452D01*
X6092335Y-10706206D01*
X6092328Y-10706202D01*
X5957482Y-10655908D01*
X5957483Y-10655908D01*
X5897883Y-10649501D01*
X5897881Y-10649500D01*
X5897873Y-10649500D01*
X5897864Y-10649500D01*
X4102129Y-10649500D01*
X4102123Y-10649501D01*
X4042516Y-10655908D01*
X3907671Y-10706202D01*
X3907664Y-10706206D01*
X3792455Y-10792452D01*
X3792452Y-10792455D01*
X3706206Y-10907664D01*
X3706202Y-10907671D01*
X3655908Y-11042517D01*
X3649501Y-11102116D01*
X3649501Y-11102123D01*
X3649500Y-11102135D01*
X3649500Y-12897870D01*
X3649501Y-12897876D01*
X3655908Y-12957483D01*
X3706202Y-13092328D01*
X3706206Y-13092335D01*
X3792452Y-13207544D01*
X3792455Y-13207547D01*
X3907664Y-13293793D01*
X3907671Y-13293797D01*
X3952618Y-13310561D01*
X4042517Y-13344091D01*
X4102127Y-13350500D01*
X4112685Y-13350499D01*
X4179723Y-13370179D01*
X4200372Y-13386818D01*
X4870591Y-14057037D01*
X4807007Y-14074075D01*
X4692993Y-14139901D01*
X4599901Y-14232993D01*
X4534075Y-14347007D01*
X4517037Y-14410591D01*
X3884728Y-13778282D01*
X3884727Y-13778282D01*
X3845380Y-13832439D01*
X3748904Y-14021782D01*
X3683242Y-14223869D01*
X3683242Y-14223872D01*
X3650000Y-14433753D01*
X3650000Y-14646246D01*
X3683242Y-14856127D01*
X3683242Y-14856130D01*
X3748904Y-15058217D01*
X3845375Y-15247550D01*
X3884728Y-15301716D01*
X4517037Y-14669408D01*
X4534075Y-14732993D01*
X4599901Y-14847007D01*
X4692993Y-14940099D01*
X4807007Y-15005925D01*
X4870590Y-15022962D01*
X4238282Y-15655269D01*
X4238282Y-15655270D01*
X4292452Y-15694626D01*
X4292451Y-15694626D01*
X4301495Y-15699234D01*
X4352292Y-15747208D01*
X4369087Y-15815029D01*
X4346550Y-15881164D01*
X4301499Y-15920202D01*
X4292182Y-15924949D01*
X4120213Y-16049890D01*
X3969890Y-16200213D01*
X3844951Y-16372179D01*
X3748444Y-16561585D01*
X3682753Y-16763760D01*
X3663115Y-16887753D01*
X3649500Y-16973713D01*
X3649500Y-17186287D01*
X3651411Y-17198350D01*
X3680225Y-17380280D01*
X3682754Y-17396243D01*
X3714752Y-17494723D01*
X3748444Y-17598414D01*
X3844951Y-17787820D01*
X3969890Y-17959786D01*
X4120213Y-18110109D01*
X4292182Y-18235050D01*
X4300946Y-18239516D01*
X4351742Y-18287491D01*
X4368536Y-18355312D01*
X4345998Y-18421447D01*
X4300946Y-18460484D01*
X4292182Y-18464949D01*
X4120213Y-18589890D01*
X3969890Y-18740213D01*
X3844951Y-18912179D01*
X3748444Y-19101585D01*
X3682753Y-19303760D01*
X3649500Y-19513713D01*
X3649500Y-19726287D01*
X3655104Y-19761666D01*
X3674244Y-19882517D01*
X3682754Y-19936243D01*
X3684668Y-19942135D01*
X3748444Y-20138414D01*
X3844951Y-20327820D01*
X3969890Y-20499786D01*
X4120213Y-20650109D01*
X4292179Y-20775048D01*
X4292181Y-20775049D01*
X4292184Y-20775051D01*
X4481588Y-20871557D01*
X4683757Y-20937246D01*
X4893713Y-20970500D01*
X4893714Y-20970500D01*
X5106286Y-20970500D01*
X5106287Y-20970500D01*
X5316243Y-20937246D01*
X5518412Y-20871557D01*
X5707816Y-20775051D01*
X5729789Y-20759086D01*
X5879786Y-20650109D01*
X5879788Y-20650106D01*
X5879792Y-20650104D01*
X6030104Y-20499792D01*
X6030106Y-20499788D01*
X6030109Y-20499786D01*
X6155048Y-20327820D01*
X6155047Y-20327820D01*
X6155051Y-20327816D01*
X6251557Y-20138412D01*
X6317246Y-19936243D01*
X6350500Y-19726287D01*
X6350500Y-19513713D01*
X6316484Y-19298945D01*
X6318123Y-19298685D01*
X6321257Y-19236126D01*
X6350655Y-19189289D01*
X10853126Y-14686819D01*
X10914449Y-14653334D01*
X10940807Y-14650500D01*
X12727648Y-14650500D01*
X12794687Y-14670185D01*
X12840442Y-14722989D01*
X12850386Y-14792147D01*
X12821361Y-14855703D01*
X12775100Y-14889061D01*
X12691874Y-14923533D01*
X12691871Y-14923535D01*
X12585331Y-14994722D01*
X12585324Y-14994728D01*
X5466871Y-22113181D01*
X5405548Y-22146666D01*
X5379190Y-22149500D01*
X4102129Y-22149500D01*
X4102123Y-22149501D01*
X4042516Y-22155908D01*
X3907671Y-22206202D01*
X3907664Y-22206206D01*
X3792455Y-22292452D01*
X3792452Y-22292455D01*
X3706206Y-22407664D01*
X3706202Y-22407671D01*
X3655908Y-22542517D01*
X3649501Y-22602116D01*
X3649500Y-22602135D01*
X3649500Y-24397870D01*
X3649501Y-24397876D01*
X3655908Y-24457483D01*
X3706202Y-24592328D01*
X3706206Y-24592335D01*
X3792452Y-24707544D01*
X3792455Y-24707547D01*
X3907664Y-24793793D01*
X3907671Y-24793797D01*
X3952618Y-24810561D01*
X4042517Y-24844091D01*
X4102127Y-24850500D01*
X4112685Y-24850499D01*
X4179723Y-24870179D01*
X4200372Y-24886818D01*
X4870591Y-25557037D01*
X4807007Y-25574075D01*
X4692993Y-25639901D01*
X4599901Y-25732993D01*
X4534075Y-25847007D01*
X4517037Y-25910591D01*
X3884728Y-25278282D01*
X3884727Y-25278282D01*
X3845380Y-25332439D01*
X3748904Y-25521782D01*
X3683242Y-25723869D01*
X3683242Y-25723872D01*
X3650000Y-25933753D01*
X3650000Y-26146246D01*
X3683242Y-26356127D01*
X3683242Y-26356130D01*
X3748904Y-26558217D01*
X3845375Y-26747550D01*
X3884728Y-26801716D01*
X4517037Y-26169408D01*
X4534075Y-26232993D01*
X4599901Y-26347007D01*
X4692993Y-26440099D01*
X4807007Y-26505925D01*
X4870590Y-26522962D01*
X4238282Y-27155269D01*
X4238282Y-27155270D01*
X4292452Y-27194626D01*
X4292451Y-27194626D01*
X4301495Y-27199234D01*
X4352292Y-27247208D01*
X4369087Y-27315029D01*
X4346550Y-27381164D01*
X4301499Y-27420202D01*
X4292182Y-27424949D01*
X4120213Y-27549890D01*
X3969890Y-27700213D01*
X3844951Y-27872179D01*
X3748444Y-28061585D01*
X3682753Y-28263760D01*
X3649500Y-28473713D01*
X3649500Y-28686286D01*
X3681010Y-28885236D01*
X3682754Y-28896243D01*
X3732012Y-29047844D01*
X3748444Y-29098414D01*
X3844951Y-29287820D01*
X3969890Y-29459786D01*
X4120213Y-29610109D01*
X4292182Y-29735050D01*
X4300946Y-29739516D01*
X4351742Y-29787491D01*
X4368536Y-29855312D01*
X4345998Y-29921447D01*
X4300946Y-29960484D01*
X4292182Y-29964949D01*
X4120213Y-30089890D01*
X3969890Y-30240213D01*
X3844951Y-30412179D01*
X3748444Y-30601585D01*
X3682753Y-30803760D01*
X3661811Y-30935984D01*
X3649500Y-31013713D01*
X3649500Y-31226287D01*
X3682754Y-31436243D01*
X3684154Y-31440553D01*
X3748444Y-31638414D01*
X3844951Y-31827820D01*
X3969890Y-31999786D01*
X4120213Y-32150109D01*
X4292179Y-32275048D01*
X4292181Y-32275049D01*
X4292184Y-32275051D01*
X4481588Y-32371557D01*
X4683757Y-32437246D01*
X4893713Y-32470500D01*
X4893714Y-32470500D01*
X5106286Y-32470500D01*
X5106287Y-32470500D01*
X5316243Y-32437246D01*
X5518412Y-32371557D01*
X5707816Y-32275051D01*
X5729789Y-32259086D01*
X5879786Y-32150109D01*
X5879788Y-32150106D01*
X5879792Y-32150104D01*
X6030104Y-31999792D01*
X6030106Y-31999788D01*
X6030109Y-31999786D01*
X6155048Y-31827820D01*
X6155047Y-31827820D01*
X6155051Y-31827816D01*
X6251557Y-31638412D01*
X6317246Y-31436243D01*
X6350500Y-31226287D01*
X6350500Y-31013713D01*
X6325083Y-30853237D01*
X6316484Y-30798945D01*
X6318123Y-30798685D01*
X6321257Y-30736126D01*
X6350655Y-30689289D01*
X18353127Y-18686819D01*
X18414450Y-18653334D01*
X18440808Y-18650500D01*
X19244292Y-18650500D01*
X19311331Y-18670185D01*
X19336915Y-18693380D01*
X19337053Y-18693243D01*
X19339852Y-18696042D01*
X19341555Y-18697586D01*
X19342155Y-18698345D01*
X19342159Y-18698349D01*
X19342160Y-18698350D01*
X19464150Y-18820340D01*
X19610984Y-18910908D01*
X19774747Y-18965174D01*
X19875823Y-18975500D01*
X20474176Y-18975499D01*
X20474184Y-18975498D01*
X20474187Y-18975498D01*
X20529530Y-18969844D01*
X20575253Y-18965174D01*
X20739016Y-18910908D01*
X20885850Y-18820340D01*
X20999819Y-18706371D01*
X21061142Y-18672886D01*
X21130834Y-18677870D01*
X21175181Y-18706371D01*
X21289150Y-18820340D01*
X21435984Y-18910908D01*
X21599747Y-18965174D01*
X21700823Y-18975500D01*
X22299176Y-18975499D01*
X22299184Y-18975498D01*
X22299187Y-18975498D01*
X22354530Y-18969844D01*
X22400253Y-18965174D01*
X22564016Y-18910908D01*
X22710850Y-18820340D01*
X22832840Y-18698350D01*
X22887702Y-18609403D01*
X22939650Y-18562679D01*
X22993241Y-18550500D01*
X24375500Y-18550500D01*
X24442539Y-18570185D01*
X24488294Y-18622989D01*
X24499500Y-18674500D01*
X24499500Y-19667870D01*
X24499501Y-19667876D01*
X24505908Y-19727481D01*
X24518659Y-19761669D01*
X24523642Y-19831361D01*
X24518659Y-19848331D01*
X24505908Y-19882518D01*
X24499501Y-19942116D01*
X24499501Y-19942123D01*
X24499500Y-19942135D01*
X24499501Y-20935500D01*
X24479817Y-21002539D01*
X24427013Y-21048294D01*
X24375501Y-21059500D01*
X21868529Y-21059500D01*
X21821077Y-21050061D01*
X21791839Y-21037950D01*
X21791829Y-21037947D01*
X21598543Y-20999500D01*
X21598541Y-20999500D01*
X21401459Y-20999500D01*
X21401457Y-20999500D01*
X21208170Y-21037947D01*
X21208160Y-21037950D01*
X21026092Y-21113364D01*
X21026079Y-21113371D01*
X20862218Y-21222860D01*
X20862214Y-21222863D01*
X20722863Y-21362214D01*
X20722860Y-21362218D01*
X20613371Y-21526079D01*
X20613364Y-21526092D01*
X20537950Y-21708160D01*
X20537947Y-21708170D01*
X20499500Y-21901456D01*
X20499500Y-22098545D01*
X20515963Y-22181309D01*
X20509736Y-22250900D01*
X20466873Y-22306078D01*
X20400983Y-22329322D01*
X20394346Y-22329500D01*
X18955929Y-22329500D01*
X18830261Y-22354497D01*
X18830255Y-22354499D01*
X18714786Y-22402327D01*
X18714787Y-22402328D01*
X18711870Y-22403536D01*
X18711866Y-22403538D01*
X18605332Y-22474721D01*
X18605325Y-22474727D01*
X8616873Y-32463181D01*
X8555550Y-32496666D01*
X8529192Y-32499500D01*
X8401457Y-32499500D01*
X8208170Y-32537947D01*
X8208160Y-32537950D01*
X8026092Y-32613364D01*
X8026079Y-32613371D01*
X7862218Y-32722860D01*
X7862214Y-32722863D01*
X7722863Y-32862214D01*
X7722860Y-32862218D01*
X7613371Y-33026079D01*
X7613364Y-33026092D01*
X7537950Y-33208160D01*
X7537947Y-33208170D01*
X7499500Y-33401456D01*
X7499500Y-33401459D01*
X7499500Y-33598541D01*
X7499500Y-33598543D01*
X7499499Y-33598543D01*
X7537947Y-33791829D01*
X7537950Y-33791839D01*
X7613364Y-33973907D01*
X7613371Y-33973920D01*
X7722860Y-34137781D01*
X7722863Y-34137785D01*
X7722897Y-34137819D01*
X7722908Y-34137840D01*
X7726726Y-34142492D01*
X7725843Y-34143215D01*
X7756382Y-34199142D01*
X7751398Y-34268834D01*
X7709526Y-34324767D01*
X7644062Y-34349184D01*
X7635216Y-34349500D01*
X6474499Y-34349500D01*
X6407460Y-34329815D01*
X6361705Y-34277011D01*
X6350499Y-34225500D01*
X6350499Y-34102129D01*
X6350498Y-34102123D01*
X6350497Y-34102116D01*
X6344091Y-34042517D01*
X6341604Y-34035850D01*
X6293797Y-33907671D01*
X6293793Y-33907664D01*
X6207547Y-33792455D01*
X6207544Y-33792452D01*
X6092335Y-33706206D01*
X6092328Y-33706202D01*
X5957482Y-33655908D01*
X5957483Y-33655908D01*
X5897883Y-33649501D01*
X5897881Y-33649500D01*
X5897873Y-33649500D01*
X5897864Y-33649500D01*
X4102129Y-33649500D01*
X4102123Y-33649501D01*
X4042516Y-33655908D01*
X3907671Y-33706202D01*
X3907664Y-33706206D01*
X3792455Y-33792452D01*
X3792452Y-33792455D01*
X3706206Y-33907664D01*
X3706202Y-33907671D01*
X3655908Y-34042517D01*
X3649746Y-34099837D01*
X3649501Y-34102123D01*
X3649500Y-34102135D01*
X3649500Y-35897870D01*
X3649501Y-35897876D01*
X3655908Y-35957483D01*
X3706202Y-36092328D01*
X3706206Y-36092335D01*
X3792452Y-36207544D01*
X3792455Y-36207547D01*
X3907664Y-36293793D01*
X3907671Y-36293797D01*
X4039082Y-36342810D01*
X4095016Y-36384681D01*
X4119433Y-36450145D01*
X4104582Y-36518418D01*
X4083431Y-36546673D01*
X3969889Y-36660215D01*
X3844951Y-36832179D01*
X3748444Y-37021585D01*
X3682753Y-37223760D01*
X3649500Y-37433713D01*
X3649500Y-37646286D01*
X3682753Y-37856239D01*
X3682753Y-37856241D01*
X3682754Y-37856243D01*
X3745355Y-38048909D01*
X3748444Y-38058414D01*
X3844951Y-38247820D01*
X3969890Y-38419786D01*
X4120213Y-38570109D01*
X4292182Y-38695050D01*
X4300946Y-38699516D01*
X4351742Y-38747491D01*
X4368536Y-38815312D01*
X4345998Y-38881447D01*
X4300946Y-38920484D01*
X4292182Y-38924949D01*
X4120213Y-39049890D01*
X3969890Y-39200213D01*
X3844951Y-39372179D01*
X3748444Y-39561585D01*
X3682753Y-39763760D01*
X3662803Y-39889723D01*
X3649500Y-39973713D01*
X3649500Y-40186287D01*
X3682754Y-40396243D01*
X3709159Y-40477510D01*
X3748444Y-40598414D01*
X3844951Y-40787820D01*
X3969890Y-40959786D01*
X4120213Y-41110109D01*
X4292179Y-41235048D01*
X4292181Y-41235049D01*
X4292184Y-41235051D01*
X4301493Y-41239794D01*
X4352290Y-41287766D01*
X4369087Y-41355587D01*
X4346552Y-41421722D01*
X4301505Y-41460760D01*
X4292446Y-41465376D01*
X4292440Y-41465380D01*
X4238282Y-41504727D01*
X4238282Y-41504728D01*
X4870591Y-42137037D01*
X4807007Y-42154075D01*
X4692993Y-42219901D01*
X4599901Y-42312993D01*
X4534075Y-42427007D01*
X4517037Y-42490591D01*
X3884728Y-41858282D01*
X3884727Y-41858282D01*
X3845380Y-41912439D01*
X3748904Y-42101782D01*
X3683242Y-42303869D01*
X3683242Y-42303872D01*
X3650000Y-42513753D01*
X3650000Y-42726246D01*
X3683242Y-42936127D01*
X3683242Y-42936130D01*
X3748904Y-43138217D01*
X3845375Y-43327550D01*
X3884728Y-43381716D01*
X4517037Y-42749408D01*
X4534075Y-42812993D01*
X4599901Y-42927007D01*
X4692993Y-43020099D01*
X4807007Y-43085925D01*
X4870590Y-43102962D01*
X4238282Y-43735269D01*
X4238282Y-43735270D01*
X4292449Y-43774624D01*
X4481782Y-43871095D01*
X4683870Y-43936757D01*
X4893754Y-43970000D01*
X5106246Y-43970000D01*
X5316127Y-43936757D01*
X5316130Y-43936757D01*
X5518217Y-43871095D01*
X5707554Y-43774622D01*
X5761716Y-43735270D01*
X5761717Y-43735270D01*
X5129408Y-43102962D01*
X5192993Y-43085925D01*
X5307007Y-43020099D01*
X5400099Y-42927007D01*
X5465925Y-42812993D01*
X5482962Y-42749408D01*
X6115270Y-43381717D01*
X6115270Y-43381716D01*
X6154622Y-43327554D01*
X6251095Y-43138217D01*
X6316757Y-42936130D01*
X6316757Y-42936127D01*
X6350000Y-42726246D01*
X6350000Y-42513753D01*
X6316757Y-42303872D01*
X6316757Y-42303869D01*
X6251095Y-42101782D01*
X6154624Y-41912449D01*
X6115270Y-41858282D01*
X6115269Y-41858282D01*
X5482962Y-42490590D01*
X5465925Y-42427007D01*
X5400099Y-42312993D01*
X5307007Y-42219901D01*
X5192993Y-42154075D01*
X5129409Y-42137037D01*
X5761716Y-41504728D01*
X5707547Y-41465373D01*
X5707547Y-41465372D01*
X5698500Y-41460763D01*
X5647706Y-41412788D01*
X5630912Y-41344966D01*
X5653451Y-41278832D01*
X5698508Y-41239793D01*
X5707816Y-41235051D01*
X5787007Y-41177515D01*
X5879786Y-41110109D01*
X5879788Y-41110106D01*
X5879792Y-41110104D01*
X6030104Y-40959792D01*
X6080398Y-40890568D01*
X6086903Y-40881615D01*
X6091234Y-40878274D01*
X6093508Y-40873297D01*
X6118610Y-40857164D01*
X6142233Y-40838949D01*
X6148904Y-40837696D01*
X6152286Y-40835523D01*
X6187221Y-40830500D01*
X6217770Y-40830500D01*
X6284809Y-40850185D01*
X6305451Y-40866819D01*
X6917048Y-41478415D01*
X6917049Y-41478416D01*
X7021583Y-41582950D01*
X7021585Y-41582952D01*
X7144498Y-41665080D01*
X7144511Y-41665087D01*
X7281082Y-41721656D01*
X7281087Y-41721658D01*
X7281091Y-41721658D01*
X7286919Y-41723427D01*
X7286169Y-41725897D01*
X7338124Y-41753074D01*
X7339703Y-41754625D01*
X7362214Y-41777136D01*
X7362218Y-41777139D01*
X7526079Y-41886628D01*
X7526092Y-41886635D01*
X7708160Y-41962049D01*
X7708165Y-41962051D01*
X7708169Y-41962051D01*
X7708170Y-41962052D01*
X7901456Y-42000500D01*
X7901459Y-42000500D01*
X8098543Y-42000500D01*
X8228582Y-41974632D01*
X8291835Y-41962051D01*
X8473914Y-41886632D01*
X8637782Y-41777139D01*
X8637781Y-41777139D01*
X8642847Y-41773755D01*
X8643867Y-41775282D01*
X8700255Y-41751334D01*
X8714610Y-41750500D01*
X9073920Y-41750500D01*
X9171462Y-41731096D01*
X9218913Y-41721658D01*
X9355495Y-41665084D01*
X9404729Y-41632186D01*
X9478416Y-41582952D01*
X10060087Y-41001278D01*
X10121408Y-40967795D01*
X10167163Y-40966488D01*
X10202789Y-40972130D01*
X10381903Y-41000500D01*
X10381908Y-41000500D01*
X10618097Y-41000500D01*
X10851368Y-40963553D01*
X10862955Y-40959788D01*
X11075992Y-40890568D01*
X11286433Y-40783343D01*
X11477510Y-40644517D01*
X11644517Y-40477510D01*
X11783343Y-40286433D01*
X11890568Y-40075992D01*
X11963553Y-39851368D01*
X11977429Y-39763757D01*
X12000500Y-39618097D01*
X12000500Y-39381902D01*
X11966488Y-39167164D01*
X11975442Y-39097871D01*
X12001277Y-39060088D01*
X12195584Y-38865781D01*
X12256905Y-38832298D01*
X12326596Y-38837282D01*
X12393917Y-38862391D01*
X12453527Y-38868800D01*
X12904872Y-38868799D01*
X12964483Y-38862391D01*
X12966778Y-38861534D01*
X12968679Y-38861398D01*
X12972025Y-38860608D01*
X12972153Y-38861150D01*
X13036467Y-38856548D01*
X13053449Y-38861534D01*
X13054424Y-38861897D01*
X13054427Y-38861898D01*
X13113955Y-38868299D01*
X13113972Y-38868300D01*
X13161800Y-38868300D01*
X13161800Y-38827401D01*
X13181485Y-38760362D01*
X13192346Y-38745901D01*
X13200977Y-38736003D01*
X13214546Y-38725846D01*
X13243100Y-38687702D01*
X13246146Y-38684210D01*
X13271850Y-38667805D01*
X13296267Y-38649528D01*
X13301023Y-38649187D01*
X13305044Y-38646622D01*
X13335540Y-38646719D01*
X13365959Y-38644544D01*
X13370145Y-38646829D01*
X13374913Y-38646845D01*
X13400510Y-38663410D01*
X13427282Y-38678029D01*
X13432622Y-38684191D01*
X13433571Y-38684806D01*
X13434027Y-38685813D01*
X13438867Y-38691399D01*
X13464654Y-38725847D01*
X13467706Y-38728131D01*
X13469993Y-38731186D01*
X13470925Y-38732118D01*
X13470791Y-38732251D01*
X13509580Y-38784062D01*
X13517400Y-38827401D01*
X13517400Y-38868300D01*
X13565228Y-38868300D01*
X13565244Y-38868299D01*
X13624770Y-38861898D01*
X13625740Y-38861537D01*
X13626549Y-38861479D01*
X13632326Y-38860114D01*
X13632547Y-38861049D01*
X13695432Y-38856546D01*
X13712407Y-38861529D01*
X13714717Y-38862391D01*
X13774327Y-38868800D01*
X14225672Y-38868799D01*
X14285283Y-38862391D01*
X14420131Y-38812096D01*
X14535346Y-38725846D01*
X14621596Y-38610631D01*
X14671891Y-38475783D01*
X14678300Y-38416173D01*
X14678299Y-37583828D01*
X14671891Y-37524217D01*
X14645936Y-37454629D01*
X14621597Y-37389371D01*
X14621593Y-37389364D01*
X14535347Y-37274155D01*
X14535344Y-37274152D01*
X14420135Y-37187906D01*
X14420128Y-37187902D01*
X14285286Y-37137610D01*
X14285285Y-37137609D01*
X14285283Y-37137609D01*
X14225673Y-37131200D01*
X14225663Y-37131200D01*
X13774329Y-37131200D01*
X13774323Y-37131201D01*
X13714715Y-37137609D01*
X13714712Y-37137609D01*
X13712411Y-37138468D01*
X13710504Y-37138604D01*
X13707171Y-37139392D01*
X13707043Y-37138851D01*
X13681475Y-37140679D01*
X13650748Y-37144921D01*
X13644543Y-37143318D01*
X13642719Y-37143449D01*
X13640629Y-37142307D01*
X13625750Y-37138465D01*
X13624780Y-37138103D01*
X13624772Y-37138101D01*
X13565244Y-37131700D01*
X13517400Y-37131700D01*
X13517400Y-37172598D01*
X13497715Y-37239637D01*
X13486855Y-37254098D01*
X13478223Y-37263996D01*
X13464654Y-37274154D01*
X13436093Y-37312305D01*
X13433055Y-37315790D01*
X13407345Y-37332197D01*
X13382932Y-37350472D01*
X13378176Y-37350812D01*
X13374157Y-37353377D01*
X13343659Y-37353280D01*
X13313240Y-37355456D01*
X13309055Y-37353171D01*
X13304288Y-37353156D01*
X13278686Y-37336587D01*
X13251917Y-37321970D01*
X13246578Y-37315808D01*
X13245630Y-37315195D01*
X13245173Y-37314187D01*
X13240334Y-37308602D01*
X13214546Y-37274154D01*
X13214539Y-37274147D01*
X13211486Y-37271862D01*
X13209200Y-37268808D01*
X13208272Y-37267880D01*
X13208405Y-37267746D01*
X13169617Y-37215927D01*
X13161800Y-37172598D01*
X13161800Y-37131700D01*
X13113955Y-37131700D01*
X13054424Y-37138101D01*
X13053440Y-37138469D01*
X13052623Y-37138527D01*
X13046873Y-37139886D01*
X13046652Y-37138953D01*
X13023162Y-37140632D01*
X12993157Y-37145119D01*
X12985920Y-37143293D01*
X12983748Y-37143449D01*
X12981355Y-37142142D01*
X12966782Y-37138466D01*
X12965802Y-37138101D01*
X12964484Y-37137609D01*
X12958522Y-37136968D01*
X12904873Y-37131200D01*
X12904864Y-37131200D01*
X12684506Y-37131200D01*
X12663260Y-37124961D01*
X12641172Y-37123382D01*
X12630388Y-37115309D01*
X12617467Y-37111515D01*
X12602967Y-37094781D01*
X12585239Y-37081510D01*
X12580531Y-37068889D01*
X12571712Y-37058711D01*
X12568560Y-37036792D01*
X12560822Y-37016045D01*
X12563684Y-37002884D01*
X12561768Y-36989553D01*
X12570967Y-36969409D01*
X12575674Y-36947773D01*
X12588943Y-36930046D01*
X12590793Y-36925997D01*
X12596798Y-36919546D01*
X12694029Y-36822315D01*
X12755351Y-36788833D01*
X12781708Y-36785999D01*
X12904871Y-36785999D01*
X12904872Y-36785999D01*
X12964483Y-36779591D01*
X12966062Y-36779001D01*
X12967376Y-36778907D01*
X12972031Y-36777808D01*
X12972209Y-36778562D01*
X12996337Y-36776835D01*
X13026357Y-36772347D01*
X13030845Y-36774366D01*
X13035754Y-36774015D01*
X13052737Y-36779001D01*
X13054317Y-36779591D01*
X13113927Y-36786000D01*
X13565272Y-36785999D01*
X13624883Y-36779591D01*
X13626462Y-36779001D01*
X13627776Y-36778907D01*
X13632431Y-36777808D01*
X13632609Y-36778562D01*
X13657402Y-36776787D01*
X13688137Y-36772545D01*
X13691956Y-36774315D01*
X13696154Y-36774015D01*
X13713137Y-36779001D01*
X13714717Y-36779591D01*
X13774327Y-36786000D01*
X14225672Y-36785999D01*
X14285283Y-36779591D01*
X14420131Y-36729296D01*
X14535346Y-36643046D01*
X14621596Y-36527831D01*
X14671891Y-36392983D01*
X14678300Y-36333373D01*
X14678299Y-35501028D01*
X14671891Y-35441417D01*
X14662802Y-35417049D01*
X14621597Y-35306571D01*
X14621593Y-35306564D01*
X14535347Y-35191355D01*
X14535344Y-35191352D01*
X14420135Y-35105106D01*
X14420128Y-35105102D01*
X14285282Y-35054808D01*
X14285283Y-35054808D01*
X14225683Y-35048401D01*
X14225681Y-35048400D01*
X14225673Y-35048400D01*
X14225665Y-35048400D01*
X14114100Y-35048400D01*
X14047061Y-35028715D01*
X14001306Y-34975911D01*
X13990100Y-34924400D01*
X13990100Y-34775528D01*
X13965102Y-34649861D01*
X13965101Y-34649860D01*
X13965101Y-34649856D01*
X13916065Y-34531473D01*
X13845646Y-34426083D01*
X13844876Y-34424930D01*
X13133291Y-33713345D01*
X18237500Y-33713345D01*
X18237500Y-33750000D01*
X19025000Y-33750000D01*
X19025000Y-33024999D01*
X18925860Y-33025000D01*
X18925844Y-33025001D01*
X18824847Y-33035319D01*
X18661199Y-33089546D01*
X18661188Y-33089551D01*
X18514465Y-33180052D01*
X18514461Y-33180055D01*
X18392555Y-33301961D01*
X18392552Y-33301965D01*
X18302051Y-33448688D01*
X18302046Y-33448699D01*
X18247819Y-33612347D01*
X18237500Y-33713345D01*
X13133291Y-33713345D01*
X12901476Y-33481530D01*
X12867991Y-33420207D01*
X12872975Y-33350515D01*
X12901472Y-33306173D01*
X18987819Y-27219825D01*
X19049142Y-27186341D01*
X19118834Y-27191325D01*
X19174767Y-27233197D01*
X19199184Y-27298661D01*
X19199500Y-27307507D01*
X19199500Y-28085176D01*
X19190061Y-28132628D01*
X19164957Y-28193234D01*
X19164955Y-28193239D01*
X19149501Y-28310629D01*
X19149500Y-28310645D01*
X19149500Y-29689363D01*
X19164953Y-29806753D01*
X19164956Y-29806762D01*
X19175226Y-29831557D01*
X19190061Y-29867370D01*
X19199500Y-29914823D01*
X19199500Y-30745176D01*
X19190061Y-30792628D01*
X19164957Y-30853234D01*
X19164955Y-30853239D01*
X19149501Y-30970629D01*
X19149500Y-30970645D01*
X19149500Y-32349363D01*
X19164953Y-32466753D01*
X19164956Y-32466762D01*
X19225464Y-32612841D01*
X19321718Y-32738282D01*
X19447159Y-32834536D01*
X19465425Y-32842102D01*
X19519828Y-32885940D01*
X19541895Y-32952234D01*
X19525000Y-33018433D01*
X19525000Y-33876000D01*
X19505315Y-33943039D01*
X19452511Y-33988794D01*
X19401000Y-34000000D01*
X19275000Y-34000000D01*
X19275000Y-34126000D01*
X19255315Y-34193039D01*
X19202511Y-34238794D01*
X19151000Y-34250000D01*
X18237501Y-34250000D01*
X18237501Y-34286654D01*
X18247819Y-34387652D01*
X18302046Y-34551300D01*
X18302051Y-34551311D01*
X18392552Y-34698034D01*
X18392555Y-34698038D01*
X18514461Y-34819944D01*
X18514465Y-34819947D01*
X18661188Y-34910448D01*
X18661199Y-34910453D01*
X18824849Y-34964681D01*
X18824848Y-34964681D01*
X18828841Y-34965089D01*
X18831145Y-34966029D01*
X18831467Y-34966098D01*
X18831454Y-34966155D01*
X18893534Y-34991483D01*
X18933686Y-35048663D01*
X18936552Y-35118474D01*
X18903923Y-35176128D01*
X14994727Y-39085325D01*
X14994726Y-39085326D01*
X14923534Y-39191874D01*
X14874499Y-39310255D01*
X14874497Y-39310261D01*
X14849500Y-39435928D01*
X14849500Y-44921407D01*
X14829815Y-44988446D01*
X14781796Y-45031891D01*
X14713569Y-45066655D01*
X14618028Y-45136070D01*
X14522490Y-45205483D01*
X14522488Y-45205485D01*
X14522487Y-45205485D01*
X14355485Y-45372487D01*
X14355485Y-45372488D01*
X14355483Y-45372490D01*
X14295862Y-45454550D01*
X14216657Y-45563566D01*
X14109433Y-45774003D01*
X14036446Y-45998631D01*
X13999500Y-46231902D01*
X13999500Y-46468097D01*
X14033511Y-46682833D01*
X14024556Y-46752126D01*
X13998719Y-46789912D01*
X13264059Y-47524571D01*
X13202736Y-47558056D01*
X13137375Y-47554596D01*
X13002797Y-47510001D01*
X13002795Y-47510000D01*
X12900010Y-47499500D01*
X9799998Y-47499500D01*
X9799981Y-47499501D01*
X9697203Y-47510000D01*
X9697200Y-47510001D01*
X9530668Y-47565185D01*
X9530663Y-47565187D01*
X9381342Y-47657289D01*
X9257289Y-47781342D01*
X9165187Y-47930663D01*
X9165186Y-47930666D01*
X9110001Y-48097203D01*
X9110001Y-48097204D01*
X9110000Y-48097204D01*
X9099500Y-48199983D01*
X9099500Y-48800001D01*
X9099501Y-48800019D01*
X9110000Y-48902796D01*
X9110001Y-48902799D01*
X9134818Y-48977690D01*
X9165186Y-49069334D01*
X9244064Y-49197217D01*
X9257289Y-49218657D01*
X9381344Y-49342712D01*
X9465718Y-49394754D01*
X9512443Y-49446702D01*
X9523666Y-49515664D01*
X9495822Y-49579747D01*
X9465720Y-49605831D01*
X9381656Y-49657682D01*
X9257684Y-49781654D01*
X9165643Y-49930875D01*
X9165641Y-49930880D01*
X9110494Y-50097302D01*
X9110493Y-50097309D01*
X9100000Y-50200013D01*
X9100000Y-50250000D01*
X13599999Y-50250000D01*
X13599999Y-50200028D01*
X13599998Y-50200013D01*
X13589505Y-50097302D01*
X13534358Y-49930880D01*
X13534356Y-49930875D01*
X13442315Y-49781654D01*
X13318344Y-49657683D01*
X13318340Y-49657680D01*
X13234280Y-49605831D01*
X13213623Y-49582865D01*
X13191455Y-49561357D01*
X13190465Y-49557119D01*
X13187555Y-49553883D01*
X13182594Y-49523398D01*
X13175573Y-49493316D01*
X13177032Y-49489214D01*
X13176334Y-49484921D01*
X13188640Y-49456597D01*
X13198999Y-49427490D01*
X13202832Y-49423932D01*
X13204177Y-49420839D01*
X13223576Y-49402160D01*
X13228732Y-49398176D01*
X13318656Y-49342712D01*
X13380153Y-49281214D01*
X13386429Y-49276367D01*
X13411885Y-49266431D01*
X13435872Y-49253334D01*
X13449084Y-49251913D01*
X13451517Y-49250964D01*
X13453740Y-49251412D01*
X13462230Y-49250500D01*
X18009953Y-49250500D01*
X18076992Y-49270185D01*
X18097634Y-49286819D01*
X18152786Y-49341971D01*
X18273840Y-49429920D01*
X18318390Y-49462287D01*
X18500781Y-49555220D01*
X18558373Y-49573932D01*
X18607735Y-49604182D01*
X18953554Y-49950000D01*
X18947339Y-49950000D01*
X18845606Y-49977259D01*
X18754394Y-50029920D01*
X18679920Y-50104394D01*
X18627259Y-50195606D01*
X18600000Y-50297339D01*
X18600000Y-50303553D01*
X17920524Y-49624077D01*
X17920523Y-49624077D01*
X17888143Y-49668644D01*
X17795244Y-49850968D01*
X17732009Y-50045582D01*
X17700000Y-50247682D01*
X17700000Y-50452317D01*
X17732009Y-50654417D01*
X17795244Y-50849031D01*
X17888141Y-51031350D01*
X17888147Y-51031359D01*
X17920523Y-51075921D01*
X17920524Y-51075922D01*
X18600000Y-50396446D01*
X18600000Y-50402661D01*
X18627259Y-50504394D01*
X18679920Y-50595606D01*
X18754394Y-50670080D01*
X18845606Y-50722741D01*
X18947339Y-50750000D01*
X18953553Y-50750000D01*
X18274076Y-51429474D01*
X18318650Y-51461859D01*
X18500968Y-51554755D01*
X18695582Y-51617990D01*
X18897683Y-51650000D01*
X19102317Y-51650000D01*
X19304417Y-51617990D01*
X19499031Y-51554755D01*
X19681349Y-51461859D01*
X19725921Y-51429474D01*
X19046447Y-50750000D01*
X19052661Y-50750000D01*
X19154394Y-50722741D01*
X19245606Y-50670080D01*
X19320080Y-50595606D01*
X19372741Y-50504394D01*
X19400000Y-50402661D01*
X19400000Y-50396447D01*
X20079474Y-51075921D01*
X20111859Y-51031349D01*
X20204755Y-50849031D01*
X20267990Y-50654417D01*
X20300000Y-50452317D01*
X20300000Y-50247682D01*
X20267990Y-50045582D01*
X20204755Y-49850968D01*
X20111859Y-49668650D01*
X20079474Y-49624077D01*
X20079474Y-49624076D01*
X19400000Y-50303551D01*
X19400000Y-50297339D01*
X19372741Y-50195606D01*
X19320080Y-50104394D01*
X19245606Y-50029920D01*
X19154394Y-49977259D01*
X19052661Y-49950000D01*
X19046447Y-49950000D01*
X19392262Y-49604183D01*
X19441626Y-49573933D01*
X19499213Y-49555222D01*
X19499219Y-49555220D01*
X19501843Y-49553883D01*
X19681610Y-49462287D01*
X19798642Y-49377259D01*
X19847213Y-49341971D01*
X19847215Y-49341968D01*
X19847219Y-49341966D01*
X19991966Y-49197219D01*
X20009570Y-49172989D01*
X20025100Y-49151615D01*
X20080429Y-49108949D01*
X20125418Y-49100500D01*
X21225498Y-49100500D01*
X21292537Y-49120185D01*
X21338292Y-49172989D01*
X21349498Y-49224500D01*
X21349498Y-50657080D01*
X21348788Y-50670318D01*
X21345498Y-50700927D01*
X21345498Y-50700934D01*
X21345498Y-50700935D01*
X21345498Y-52117470D01*
X21345499Y-52117476D01*
X21351906Y-52177083D01*
X21402200Y-52311928D01*
X21402204Y-52311935D01*
X21488450Y-52427144D01*
X21488453Y-52427147D01*
X21603662Y-52513393D01*
X21603669Y-52513397D01*
X21648616Y-52530161D01*
X21738515Y-52563691D01*
X21798125Y-52570100D01*
X22401870Y-52570099D01*
X22461481Y-52563691D01*
X22532378Y-52537247D01*
X22602069Y-52532263D01*
X22619045Y-52537247D01*
X22688619Y-52563196D01*
X22688626Y-52563198D01*
X22748154Y-52569599D01*
X22748171Y-52569600D01*
X22799999Y-52569600D01*
X22799999Y-52328390D01*
X22807816Y-52285059D01*
X22848089Y-52177083D01*
X22854498Y-52117473D01*
X22854497Y-50700928D01*
X22851831Y-50676128D01*
X22851208Y-50670330D01*
X22850498Y-50657077D01*
X22850498Y-49224500D01*
X22870183Y-49157461D01*
X22922987Y-49111706D01*
X22974498Y-49100500D01*
X25287770Y-49100500D01*
X25354809Y-49120185D01*
X25375451Y-49136819D01*
X26575957Y-50337325D01*
X26609442Y-50398648D01*
X26604458Y-50468340D01*
X26562586Y-50524273D01*
X26497122Y-50548690D01*
X26449274Y-50542712D01*
X26393629Y-50524273D01*
X26387751Y-50522325D01*
X26286678Y-50512000D01*
X25713330Y-50512000D01*
X25713312Y-50512001D01*
X25612247Y-50522325D01*
X25448484Y-50576592D01*
X25448481Y-50576593D01*
X25345296Y-50640239D01*
X25280199Y-50658700D01*
X24840670Y-50658700D01*
X24773631Y-50639015D01*
X24727876Y-50586211D01*
X24724488Y-50578033D01*
X24697797Y-50506471D01*
X24697793Y-50506464D01*
X24611547Y-50391255D01*
X24611544Y-50391252D01*
X24496335Y-50305006D01*
X24496328Y-50305002D01*
X24361486Y-50254710D01*
X24361485Y-50254709D01*
X24361483Y-50254709D01*
X24301873Y-50248300D01*
X24301863Y-50248300D01*
X23698129Y-50248300D01*
X23698123Y-50248301D01*
X23638520Y-50254708D01*
X23638517Y-50254708D01*
X23638517Y-50254709D01*
X23637198Y-50255201D01*
X23567616Y-50281153D01*
X23497924Y-50286136D01*
X23480951Y-50281152D01*
X23411378Y-50255203D01*
X23411371Y-50255201D01*
X23351843Y-50248800D01*
X23299999Y-50248800D01*
X23299999Y-50490008D01*
X23292181Y-50533341D01*
X23252768Y-50639015D01*
X23251909Y-50641317D01*
X23245500Y-50700927D01*
X23245500Y-51402786D01*
X23245501Y-51409200D01*
X23245501Y-52117476D01*
X23251908Y-52177081D01*
X23253500Y-52181348D01*
X23292181Y-52285059D01*
X23299999Y-52328390D01*
X23299999Y-52569600D01*
X23351827Y-52569600D01*
X23351843Y-52569599D01*
X23411376Y-52563197D01*
X23411378Y-52563197D01*
X23480949Y-52537248D01*
X23550641Y-52532262D01*
X23567616Y-52537246D01*
X23638517Y-52563691D01*
X23698127Y-52570100D01*
X24301872Y-52570099D01*
X24361483Y-52563691D01*
X24496331Y-52513396D01*
X24611546Y-52427146D01*
X24697796Y-52311931D01*
X24724488Y-52240367D01*
X24737757Y-52222640D01*
X24746957Y-52202497D01*
X24758287Y-52195215D01*
X24766359Y-52184433D01*
X24787107Y-52176694D01*
X24805735Y-52164723D01*
X24827651Y-52161571D01*
X24831823Y-52160016D01*
X24840670Y-52159700D01*
X25079183Y-52159700D01*
X25146222Y-52179385D01*
X25176449Y-52206789D01*
X25179660Y-52210850D01*
X25293629Y-52324819D01*
X25327114Y-52386142D01*
X25322130Y-52455834D01*
X25293629Y-52500181D01*
X25179661Y-52614148D01*
X25089093Y-52760981D01*
X25089091Y-52760986D01*
X25073691Y-52807461D01*
X25034826Y-52924747D01*
X25034826Y-52924748D01*
X25034825Y-52924748D01*
X25024500Y-53025815D01*
X25024500Y-53624169D01*
X25024501Y-53624187D01*
X25034825Y-53725252D01*
X25066089Y-53819599D01*
X25089092Y-53889016D01*
X25179020Y-54034813D01*
X25179661Y-54035851D01*
X25213181Y-54069371D01*
X25246666Y-54130694D01*
X25249500Y-54157052D01*
X25249500Y-54409362D01*
X25229815Y-54476401D01*
X25190598Y-54514899D01*
X25172453Y-54526092D01*
X25081345Y-54582287D01*
X24966180Y-54697452D01*
X24904857Y-54730936D01*
X24835165Y-54725952D01*
X24779232Y-54684080D01*
X24754815Y-54618616D01*
X24754499Y-54609796D01*
X24754499Y-53291728D01*
X24748091Y-53232117D01*
X24743323Y-53219334D01*
X24697797Y-53097271D01*
X24697793Y-53097264D01*
X24611547Y-52982055D01*
X24611544Y-52982052D01*
X24496335Y-52895806D01*
X24496328Y-52895802D01*
X24361486Y-52845510D01*
X24361485Y-52845509D01*
X24361483Y-52845509D01*
X24301873Y-52839100D01*
X24301863Y-52839100D01*
X23698129Y-52839100D01*
X23698123Y-52839101D01*
X23638516Y-52845508D01*
X23503671Y-52895802D01*
X23503664Y-52895806D01*
X23388455Y-52982052D01*
X23388452Y-52982055D01*
X23302206Y-53097264D01*
X23302202Y-53097271D01*
X23251908Y-53232117D01*
X23247288Y-53275096D01*
X23245501Y-53291723D01*
X23245500Y-53291735D01*
X23245500Y-54708270D01*
X23245501Y-54708276D01*
X23251908Y-54767883D01*
X23302202Y-54902728D01*
X23302206Y-54902735D01*
X23324766Y-54932871D01*
X23332504Y-54953616D01*
X23344477Y-54972247D01*
X23347628Y-54994164D01*
X23349184Y-54998335D01*
X23349500Y-55007182D01*
X23349500Y-55069292D01*
X23329815Y-55136331D01*
X23306619Y-55161915D01*
X23306757Y-55162053D01*
X23303941Y-55164868D01*
X23302407Y-55166561D01*
X23301652Y-55167157D01*
X23179659Y-55289151D01*
X23089091Y-55435986D01*
X23086881Y-55440726D01*
X23040709Y-55493166D01*
X22973516Y-55512319D01*
X22906634Y-55492104D01*
X22861299Y-55438939D01*
X22850498Y-55388323D01*
X22850498Y-54752119D01*
X22851209Y-54738863D01*
X22854497Y-54708281D01*
X22854498Y-54708273D01*
X22854497Y-53291728D01*
X22848089Y-53232117D01*
X22843321Y-53219334D01*
X22797795Y-53097271D01*
X22797791Y-53097264D01*
X22711545Y-52982055D01*
X22711542Y-52982052D01*
X22596333Y-52895806D01*
X22596326Y-52895802D01*
X22461484Y-52845510D01*
X22461483Y-52845509D01*
X22461481Y-52845509D01*
X22401871Y-52839100D01*
X22401861Y-52839100D01*
X21798127Y-52839100D01*
X21798121Y-52839101D01*
X21738514Y-52845508D01*
X21603669Y-52895802D01*
X21603662Y-52895806D01*
X21488453Y-52982052D01*
X21488450Y-52982055D01*
X21402204Y-53097264D01*
X21402200Y-53097271D01*
X21351906Y-53232117D01*
X21347286Y-53275096D01*
X21345499Y-53291723D01*
X21345498Y-53291735D01*
X21345498Y-54708270D01*
X21345499Y-54708272D01*
X21348787Y-54738863D01*
X21348788Y-54738867D01*
X21349498Y-54752121D01*
X21349498Y-59125500D01*
X21329813Y-59192539D01*
X21277009Y-59238294D01*
X21225498Y-59249500D01*
X13362230Y-59249500D01*
X13295191Y-59229815D01*
X13274549Y-59213181D01*
X9035989Y-54974621D01*
X9002504Y-54913298D01*
X9001168Y-54904815D01*
X8962052Y-54708170D01*
X8962051Y-54708169D01*
X8962051Y-54708165D01*
X8909912Y-54582289D01*
X8886635Y-54526092D01*
X8886628Y-54526079D01*
X8777139Y-54362218D01*
X8777136Y-54362214D01*
X8637785Y-54222863D01*
X8637781Y-54222860D01*
X8473920Y-54113371D01*
X8473907Y-54113364D01*
X8291839Y-54037950D01*
X8291829Y-54037947D01*
X8098543Y-53999500D01*
X8098541Y-53999500D01*
X7901459Y-53999500D01*
X7901454Y-53999500D01*
X7753631Y-54028904D01*
X7684040Y-54022677D01*
X7628862Y-53979814D01*
X7605618Y-53913924D01*
X7621686Y-53845927D01*
X7641762Y-53819603D01*
X7642711Y-53818655D01*
X7734814Y-53669334D01*
X7789999Y-53502797D01*
X7800500Y-53400008D01*
X7800500Y-52299992D01*
X7793548Y-52231947D01*
X14000000Y-52231947D01*
X14000000Y-52468052D01*
X14036934Y-52701247D01*
X14109897Y-52925802D01*
X14217087Y-53136174D01*
X14277338Y-53219104D01*
X14277340Y-53219105D01*
X15017037Y-52479408D01*
X15034075Y-52542993D01*
X15099901Y-52657007D01*
X15192993Y-52750099D01*
X15307007Y-52815925D01*
X15370590Y-52832962D01*
X14630893Y-53572658D01*
X14713828Y-53632914D01*
X14924197Y-53740102D01*
X15148752Y-53813065D01*
X15148751Y-53813065D01*
X15381948Y-53850000D01*
X15618052Y-53850000D01*
X15851247Y-53813065D01*
X16075802Y-53740102D01*
X16286163Y-53632918D01*
X16286169Y-53632914D01*
X16369104Y-53572658D01*
X16369105Y-53572658D01*
X15629408Y-52832962D01*
X15692993Y-52815925D01*
X15807007Y-52750099D01*
X15900099Y-52657007D01*
X15965925Y-52542993D01*
X15982962Y-52479409D01*
X16722658Y-53219105D01*
X16722658Y-53219104D01*
X16782914Y-53136169D01*
X16782918Y-53136163D01*
X16890102Y-52925802D01*
X16963065Y-52701247D01*
X17000000Y-52468052D01*
X17000000Y-52231947D01*
X16963065Y-51998752D01*
X16890102Y-51774197D01*
X16782914Y-51563828D01*
X16722658Y-51480894D01*
X16722658Y-51480893D01*
X15982962Y-52220590D01*
X15965925Y-52157007D01*
X15900099Y-52042993D01*
X15807007Y-51949901D01*
X15692993Y-51884075D01*
X15629409Y-51867037D01*
X16369105Y-51127340D01*
X16369104Y-51127338D01*
X16286174Y-51067087D01*
X16075802Y-50959897D01*
X15851247Y-50886934D01*
X15851248Y-50886934D01*
X15618052Y-50850000D01*
X15381948Y-50850000D01*
X15148752Y-50886934D01*
X14924197Y-50959897D01*
X14713830Y-51067084D01*
X14630894Y-51127340D01*
X15370591Y-51867037D01*
X15307007Y-51884075D01*
X15192993Y-51949901D01*
X15099901Y-52042993D01*
X15034075Y-52157007D01*
X15017037Y-52220591D01*
X14277340Y-51480894D01*
X14217084Y-51563830D01*
X14109897Y-51774197D01*
X14036934Y-51998752D01*
X14000000Y-52231947D01*
X7793548Y-52231947D01*
X7789999Y-52197203D01*
X7734814Y-52030666D01*
X7710946Y-51991971D01*
X7642713Y-51881348D01*
X7642710Y-51881344D01*
X7518655Y-51757289D01*
X7518651Y-51757286D01*
X7369337Y-51665187D01*
X7369335Y-51665186D01*
X7286065Y-51637593D01*
X7202797Y-51610001D01*
X7202795Y-51610000D01*
X7100015Y-51599500D01*
X7100008Y-51599500D01*
X4099992Y-51599500D01*
X4099984Y-51599500D01*
X3997204Y-51610000D01*
X3997203Y-51610001D01*
X3830664Y-51665186D01*
X3830662Y-51665187D01*
X3681348Y-51757286D01*
X3681344Y-51757289D01*
X3557289Y-51881344D01*
X3557286Y-51881348D01*
X3465187Y-52030662D01*
X3465186Y-52030664D01*
X3410001Y-52197203D01*
X3410000Y-52197204D01*
X3399500Y-52299984D01*
X3399500Y-53400015D01*
X3410000Y-53502795D01*
X3410001Y-53502797D01*
X3429335Y-53561142D01*
X3465186Y-53669335D01*
X3465187Y-53669337D01*
X3557286Y-53818651D01*
X3557289Y-53818655D01*
X3681344Y-53942710D01*
X3681348Y-53942713D01*
X3830662Y-54034812D01*
X3830664Y-54034813D01*
X3830666Y-54034814D01*
X3997203Y-54089999D01*
X4099992Y-54100500D01*
X4099997Y-54100500D01*
X7100003Y-54100500D01*
X7100008Y-54100500D01*
X7181591Y-54092165D01*
X7250282Y-54104934D01*
X7301167Y-54152814D01*
X7318088Y-54220604D01*
X7295673Y-54286780D01*
X7281874Y-54303204D01*
X7222860Y-54362218D01*
X7113371Y-54526079D01*
X7113364Y-54526092D01*
X7037950Y-54708160D01*
X7037947Y-54708170D01*
X6999500Y-54901456D01*
X6999500Y-54901459D01*
X6999500Y-55098541D01*
X6999500Y-55098543D01*
X6999499Y-55098543D01*
X7037947Y-55291829D01*
X7037950Y-55291839D01*
X7113364Y-55473907D01*
X7113371Y-55473920D01*
X7222860Y-55637781D01*
X7222863Y-55637785D01*
X7362214Y-55777136D01*
X7362218Y-55777139D01*
X7526079Y-55886628D01*
X7526092Y-55886635D01*
X7708160Y-55962049D01*
X7708165Y-55962051D01*
X7708169Y-55962051D01*
X7708170Y-55962052D01*
X7907434Y-56001689D01*
X7907075Y-56003491D01*
X7963876Y-56026423D01*
X7974621Y-56035989D01*
X12521584Y-60582952D01*
X12542781Y-60597115D01*
X12579511Y-60621657D01*
X12579513Y-60621658D01*
X12579516Y-60621660D01*
X12644505Y-60665084D01*
X12644506Y-60665084D01*
X12644507Y-60665085D01*
X12781082Y-60721656D01*
X12781087Y-60721658D01*
X12781091Y-60721658D01*
X12781092Y-60721659D01*
X12926079Y-60750500D01*
X12926082Y-60750500D01*
X26873920Y-60750500D01*
X26971462Y-60731096D01*
X27018913Y-60721658D01*
X27135718Y-60673276D01*
X27155493Y-60665085D01*
X27155493Y-60665084D01*
X27155495Y-60665084D01*
X27220484Y-60621660D01*
X27220484Y-60621659D01*
X27220486Y-60621659D01*
X27257219Y-60597115D01*
X27278416Y-60582952D01*
X28674549Y-59186817D01*
X28735872Y-59153333D01*
X28762230Y-59150499D01*
X30850002Y-59150499D01*
X30850008Y-59150499D01*
X30952797Y-59139999D01*
X31086497Y-59095694D01*
X31156324Y-59093293D01*
X31216366Y-59129024D01*
X31247559Y-59191545D01*
X31249500Y-59213401D01*
X31249500Y-60617948D01*
X31229815Y-60684987D01*
X31213181Y-60705629D01*
X31117161Y-60801648D01*
X31026593Y-60948481D01*
X31026592Y-60948484D01*
X30972326Y-61112247D01*
X30972326Y-61112248D01*
X30972325Y-61112248D01*
X30962000Y-61213315D01*
X30962000Y-61786669D01*
X30962001Y-61786676D01*
X30972326Y-61887751D01*
X30972325Y-61887752D01*
X31026592Y-62051515D01*
X31026593Y-62051518D01*
X31117161Y-62198351D01*
X31213181Y-62294371D01*
X31227884Y-62321298D01*
X31244477Y-62347117D01*
X31245368Y-62353317D01*
X31246666Y-62355694D01*
X31249500Y-62382052D01*
X31249500Y-62525500D01*
X31229815Y-62592539D01*
X31177011Y-62638294D01*
X31125505Y-62649500D01*
X31102132Y-62649500D01*
X31102123Y-62649501D01*
X31042516Y-62655908D01*
X30907671Y-62706202D01*
X30907664Y-62706206D01*
X30792455Y-62792452D01*
X30792452Y-62792455D01*
X30706206Y-62907664D01*
X30706202Y-62907671D01*
X30655908Y-63042517D01*
X30649501Y-63102116D01*
X30649500Y-63102135D01*
X30649500Y-64897870D01*
X30649501Y-64897876D01*
X30655908Y-64957483D01*
X30706202Y-65092328D01*
X30706206Y-65092335D01*
X30792452Y-65207544D01*
X30792455Y-65207547D01*
X30907664Y-65293793D01*
X30907671Y-65293797D01*
X31042517Y-65344091D01*
X31042516Y-65344091D01*
X31049444Y-65344835D01*
X31102127Y-65350500D01*
X32897872Y-65350499D01*
X32957483Y-65344091D01*
X33092331Y-65293796D01*
X33207546Y-65207546D01*
X33293796Y-65092331D01*
X33342810Y-64960916D01*
X33384681Y-64904984D01*
X33450145Y-64880566D01*
X33518418Y-64895417D01*
X33546673Y-64916569D01*
X33660213Y-65030109D01*
X33832179Y-65155048D01*
X33832181Y-65155049D01*
X33832184Y-65155051D01*
X34021588Y-65251557D01*
X34223757Y-65317246D01*
X34433713Y-65350500D01*
X34433714Y-65350500D01*
X34646286Y-65350500D01*
X34646287Y-65350500D01*
X34856243Y-65317246D01*
X35058412Y-65251557D01*
X35247816Y-65155051D01*
X35334138Y-65092335D01*
X35419786Y-65030109D01*
X35419788Y-65030106D01*
X35419792Y-65030104D01*
X35570104Y-64879792D01*
X35597387Y-64842240D01*
X35626903Y-64801615D01*
X35682233Y-64758949D01*
X35727221Y-64750500D01*
X42073920Y-64750500D01*
X42171462Y-64731096D01*
X42218913Y-64721658D01*
X42355495Y-64665084D01*
X42404729Y-64632186D01*
X42478416Y-64582952D01*
X42676110Y-64385258D01*
X62749500Y-64385258D01*
X62749500Y-64614741D01*
X62774104Y-64801615D01*
X62779452Y-64842238D01*
X62811252Y-64960917D01*
X62838842Y-65063887D01*
X62926650Y-65275876D01*
X62926657Y-65275890D01*
X63041392Y-65474617D01*
X63181081Y-65656661D01*
X63181089Y-65656670D01*
X63343330Y-65818911D01*
X63343338Y-65818918D01*
X63525382Y-65958607D01*
X63525385Y-65958608D01*
X63525388Y-65958611D01*
X63724112Y-66073344D01*
X63724117Y-66073346D01*
X63724123Y-66073349D01*
X63815480Y-66111190D01*
X63936113Y-66161158D01*
X64157762Y-66220548D01*
X64385266Y-66250500D01*
X64385273Y-66250500D01*
X64614727Y-66250500D01*
X64614734Y-66250500D01*
X64842238Y-66220548D01*
X65063887Y-66161158D01*
X65275888Y-66073344D01*
X65474612Y-65958611D01*
X65656661Y-65818919D01*
X65656665Y-65818914D01*
X65656670Y-65818911D01*
X65818911Y-65656670D01*
X65818914Y-65656665D01*
X65818919Y-65656661D01*
X65958611Y-65474612D01*
X66073344Y-65275888D01*
X66161158Y-65063887D01*
X66220548Y-64842238D01*
X66250500Y-64614734D01*
X66250500Y-64385266D01*
X66220548Y-64157762D01*
X66161158Y-63936113D01*
X66073344Y-63724112D01*
X65958611Y-63525388D01*
X65958608Y-63525385D01*
X65958607Y-63525382D01*
X65818918Y-63343338D01*
X65818911Y-63343330D01*
X65656670Y-63181089D01*
X65656661Y-63181081D01*
X65474617Y-63041392D01*
X65275890Y-62926657D01*
X65275876Y-62926650D01*
X65063887Y-62838842D01*
X64842238Y-62779452D01*
X64804215Y-62774446D01*
X64614741Y-62749500D01*
X64614734Y-62749500D01*
X64385266Y-62749500D01*
X64385258Y-62749500D01*
X64168715Y-62778009D01*
X64157762Y-62779452D01*
X64109234Y-62792455D01*
X63936112Y-62838842D01*
X63724123Y-62926650D01*
X63724109Y-62926657D01*
X63525382Y-63041392D01*
X63343338Y-63181081D01*
X63181081Y-63343338D01*
X63041392Y-63525382D01*
X62926657Y-63724109D01*
X62926650Y-63724123D01*
X62838842Y-63936112D01*
X62779453Y-64157759D01*
X62779451Y-64157770D01*
X62749500Y-64385258D01*
X42676110Y-64385258D01*
X43125255Y-63936113D01*
X43582947Y-63478420D01*
X43582950Y-63478417D01*
X43582949Y-63478417D01*
X43582952Y-63478415D01*
X43623955Y-63417049D01*
X43665084Y-63355495D01*
X43697042Y-63278342D01*
X43721659Y-63218912D01*
X43750500Y-63073917D01*
X43750500Y-62926082D01*
X43750500Y-62882052D01*
X43770185Y-62815013D01*
X43786819Y-62794371D01*
X43831690Y-62749500D01*
X43882840Y-62698350D01*
X43973408Y-62551516D01*
X44027674Y-62387753D01*
X44038000Y-62286677D01*
X44037999Y-62074729D01*
X44057683Y-62007690D01*
X44074313Y-61987053D01*
X45082951Y-60978416D01*
X45165084Y-60855495D01*
X45221658Y-60718913D01*
X45233476Y-60659500D01*
X45250500Y-60573920D01*
X45250500Y-58874500D01*
X45270185Y-58807461D01*
X45322989Y-58761706D01*
X45374500Y-58750500D01*
X54073920Y-58750500D01*
X54171462Y-58731096D01*
X54218913Y-58721658D01*
X54355495Y-58665084D01*
X54430453Y-58614999D01*
X54478416Y-58582952D01*
X64582952Y-48478415D01*
X64619366Y-48423917D01*
X64665084Y-48355495D01*
X64695905Y-48281087D01*
X64721659Y-48218912D01*
X64750500Y-48073917D01*
X64750500Y-47926082D01*
X64750500Y-16227220D01*
X64770185Y-16160181D01*
X64801614Y-16126902D01*
X64879792Y-16070104D01*
X65030104Y-15919792D01*
X65030106Y-15919788D01*
X65030109Y-15919786D01*
X65155048Y-15747820D01*
X65155047Y-15747820D01*
X65155051Y-15747816D01*
X65251557Y-15558412D01*
X65317246Y-15356243D01*
X65350500Y-15146287D01*
X65350500Y-14933713D01*
X65317246Y-14723757D01*
X65251557Y-14521588D01*
X65155051Y-14332184D01*
X65155049Y-14332181D01*
X65155048Y-14332179D01*
X65030109Y-14160213D01*
X64879786Y-14009890D01*
X64707820Y-13884951D01*
X64707115Y-13884591D01*
X64699054Y-13880485D01*
X64648259Y-13832512D01*
X64631463Y-13764692D01*
X64653999Y-13698556D01*
X64699054Y-13659515D01*
X64707816Y-13655051D01*
X64794413Y-13592135D01*
X64879786Y-13530109D01*
X64879788Y-13530106D01*
X64879792Y-13530104D01*
X65030104Y-13379792D01*
X65030106Y-13379788D01*
X65030109Y-13379786D01*
X65155048Y-13207820D01*
X65155047Y-13207820D01*
X65155051Y-13207816D01*
X65251557Y-13018412D01*
X65317246Y-12816243D01*
X65350500Y-12606287D01*
X65350500Y-12393713D01*
X65317246Y-12183757D01*
X65251557Y-11981588D01*
X65155051Y-11792184D01*
X65155049Y-11792181D01*
X65155048Y-11792179D01*
X65030109Y-11620213D01*
X64916181Y-11506285D01*
X64882696Y-11444962D01*
X64887680Y-11375270D01*
X64929552Y-11319337D01*
X64960529Y-11302422D01*
X65092086Y-11253354D01*
X65092093Y-11253350D01*
X65207187Y-11167190D01*
X65207190Y-11167187D01*
X65293350Y-11052093D01*
X65293354Y-11052086D01*
X65343596Y-10917379D01*
X65343598Y-10917372D01*
X65349999Y-10857844D01*
X65350000Y-10857827D01*
X65350000Y-10210000D01*
X64433012Y-10210000D01*
X64465925Y-10152993D01*
X64500000Y-10025826D01*
X64500000Y-9894174D01*
X64465925Y-9767007D01*
X64433012Y-9710000D01*
X65350000Y-9710000D01*
X65350000Y-9062172D01*
X65349999Y-9062155D01*
X65343598Y-9002627D01*
X65343596Y-9002620D01*
X65293354Y-8867913D01*
X65293350Y-8867906D01*
X65207190Y-8752812D01*
X65207187Y-8752809D01*
X65092093Y-8666649D01*
X65092086Y-8666645D01*
X64957379Y-8616403D01*
X64957372Y-8616401D01*
X64897844Y-8610000D01*
X64250000Y-8610000D01*
X64250000Y-9526988D01*
X64192993Y-9494075D01*
X64065826Y-9460000D01*
X63934174Y-9460000D01*
X63807007Y-9494075D01*
X63750000Y-9526988D01*
X63750000Y-8610000D01*
X63102155Y-8610000D01*
X63042627Y-8616401D01*
X63042620Y-8616403D01*
X62907913Y-8666645D01*
X62907906Y-8666649D01*
X62792812Y-8752809D01*
X62792809Y-8752812D01*
X62706649Y-8867906D01*
X62706645Y-8867913D01*
X62656403Y-9002620D01*
X62656401Y-9002627D01*
X62650000Y-9062155D01*
X62650000Y-9710000D01*
X63566988Y-9710000D01*
X63534075Y-9767007D01*
X63500000Y-9894174D01*
X63500000Y-10025826D01*
X63534075Y-10152993D01*
X63566988Y-10210000D01*
X62650000Y-10210000D01*
X62650000Y-10857844D01*
X62656401Y-10917372D01*
X62656403Y-10917379D01*
X62706645Y-11052086D01*
X62706649Y-11052093D01*
X62792809Y-11167187D01*
X62792812Y-11167190D01*
X62907906Y-11253350D01*
X62907913Y-11253354D01*
X63039470Y-11302422D01*
X63095404Y-11344293D01*
X63119821Y-11409758D01*
X63104969Y-11478031D01*
X63083819Y-11506285D01*
X62969892Y-11620212D01*
X62874394Y-11751654D01*
X62819064Y-11794319D01*
X62749450Y-11800298D01*
X62687655Y-11767692D01*
X62686395Y-11766449D01*
X60066479Y-9146532D01*
X59424673Y-8504726D01*
X59424669Y-8504723D01*
X59318127Y-8433535D01*
X59302461Y-8427046D01*
X59199744Y-8384499D01*
X59199738Y-8384497D01*
X59074071Y-8359500D01*
X59074069Y-8359500D01*
X44624000Y-8359500D01*
X44556961Y-8339815D01*
X44511206Y-8287011D01*
X44500000Y-8235500D01*
X44500000Y-7990000D01*
X42000000Y-7990000D01*
X42000000Y-8237844D01*
X42006401Y-8297372D01*
X42006403Y-8297379D01*
X42018925Y-8330952D01*
X42023909Y-8400643D01*
X42018925Y-8417617D01*
X42005909Y-8452514D01*
X42005908Y-8452516D01*
X41999501Y-8512116D01*
X41999500Y-8512135D01*
X41999500Y-9507870D01*
X41999501Y-9507876D01*
X42005908Y-9567481D01*
X42018659Y-9601669D01*
X42023642Y-9671361D01*
X42018659Y-9688331D01*
X42005908Y-9722518D01*
X41999501Y-9782116D01*
X41999500Y-9782135D01*
X41999500Y-10777870D01*
X41999501Y-10777876D01*
X42005908Y-10837481D01*
X42018659Y-10871669D01*
X42023642Y-10941361D01*
X42018659Y-10958331D01*
X42005908Y-10992518D01*
X41999501Y-11052116D01*
X41999501Y-11052123D01*
X41999500Y-11052135D01*
X41999500Y-12047870D01*
X41999501Y-12047876D01*
X42005908Y-12107481D01*
X42018659Y-12141669D01*
X42023642Y-12211361D01*
X42018659Y-12228331D01*
X42005908Y-12262518D01*
X41999501Y-12322116D01*
X41999501Y-12322123D01*
X41999500Y-12322135D01*
X41999500Y-13317870D01*
X41999501Y-13317876D01*
X42005908Y-13377481D01*
X42018659Y-13411669D01*
X42023642Y-13481361D01*
X42018659Y-13498331D01*
X42005908Y-13532518D01*
X41999501Y-13592116D01*
X41999501Y-13592123D01*
X41999500Y-13592135D01*
X41999500Y-14587870D01*
X41999501Y-14587876D01*
X42005908Y-14647481D01*
X42018659Y-14681669D01*
X42023642Y-14751361D01*
X42018659Y-14768331D01*
X42005908Y-14802518D01*
X42000145Y-14856127D01*
X41999501Y-14862123D01*
X41999500Y-14862135D01*
X41999500Y-15857870D01*
X41999501Y-15857876D01*
X42005908Y-15917481D01*
X42018659Y-15951669D01*
X42023642Y-16021361D01*
X42018659Y-16038331D01*
X42005908Y-16072518D01*
X42000062Y-16126901D01*
X41999501Y-16132123D01*
X41999500Y-16132135D01*
X41999500Y-17127870D01*
X41999501Y-17127876D01*
X42005908Y-17187481D01*
X42018659Y-17221669D01*
X42023642Y-17291361D01*
X42018659Y-17308331D01*
X42005908Y-17342518D01*
X41999501Y-17402116D01*
X41999501Y-17402123D01*
X41999500Y-17402135D01*
X41999500Y-18397870D01*
X41999501Y-18397876D01*
X42005908Y-18457481D01*
X42018659Y-18491669D01*
X42023642Y-18561361D01*
X42018659Y-18578331D01*
X42005908Y-18612518D01*
X41999709Y-18670185D01*
X41999501Y-18672123D01*
X41999500Y-18672135D01*
X41999500Y-19667870D01*
X41999501Y-19667876D01*
X42005908Y-19727481D01*
X42018659Y-19761669D01*
X42023642Y-19831361D01*
X42018659Y-19848331D01*
X42005908Y-19882518D01*
X41999501Y-19942116D01*
X41999501Y-19942123D01*
X41999500Y-19942135D01*
X41999500Y-20937870D01*
X41999501Y-20937876D01*
X42005908Y-20997481D01*
X42018659Y-21031669D01*
X42023642Y-21101361D01*
X42018659Y-21118331D01*
X42005908Y-21152518D01*
X42002926Y-21180261D01*
X41999501Y-21212123D01*
X41999500Y-21212135D01*
X41999500Y-22207870D01*
X41999501Y-22207876D01*
X42005908Y-22267481D01*
X42018659Y-22301669D01*
X42023642Y-22371361D01*
X42018659Y-22388331D01*
X42005908Y-22422518D01*
X41999501Y-22482116D01*
X41999501Y-22482123D01*
X41999500Y-22482135D01*
X41999500Y-23477870D01*
X41999501Y-23477876D01*
X42005908Y-23537481D01*
X42018659Y-23571669D01*
X42023642Y-23641361D01*
X42018659Y-23658331D01*
X42005908Y-23692518D01*
X42000296Y-23744723D01*
X41999501Y-23752123D01*
X41999500Y-23752135D01*
X41999500Y-24125500D01*
X41979815Y-24192539D01*
X41927011Y-24238294D01*
X41875500Y-24249500D01*
X40987129Y-24249500D01*
X40987123Y-24249501D01*
X40927518Y-24255908D01*
X40893331Y-24268659D01*
X40823639Y-24273642D01*
X40806669Y-24268659D01*
X40772480Y-24255908D01*
X40772482Y-24255908D01*
X40712883Y-24249501D01*
X40712881Y-24249500D01*
X40712873Y-24249500D01*
X40712864Y-24249500D01*
X39717129Y-24249500D01*
X39717123Y-24249501D01*
X39657518Y-24255908D01*
X39623331Y-24268659D01*
X39553639Y-24273642D01*
X39536669Y-24268659D01*
X39502480Y-24255908D01*
X39502482Y-24255908D01*
X39442883Y-24249501D01*
X39442881Y-24249500D01*
X39442873Y-24249500D01*
X39442864Y-24249500D01*
X38447129Y-24249500D01*
X38447123Y-24249501D01*
X38387518Y-24255908D01*
X38353331Y-24268659D01*
X38283639Y-24273642D01*
X38266669Y-24268659D01*
X38232480Y-24255908D01*
X38232482Y-24255908D01*
X38172883Y-24249501D01*
X38172881Y-24249500D01*
X38172873Y-24249500D01*
X38172864Y-24249500D01*
X37177129Y-24249500D01*
X37177123Y-24249501D01*
X37117518Y-24255908D01*
X37083331Y-24268659D01*
X37013639Y-24273642D01*
X36996669Y-24268659D01*
X36962480Y-24255908D01*
X36962482Y-24255908D01*
X36902883Y-24249501D01*
X36902881Y-24249500D01*
X36902873Y-24249500D01*
X36902864Y-24249500D01*
X35907129Y-24249500D01*
X35907123Y-24249501D01*
X35847518Y-24255908D01*
X35813331Y-24268659D01*
X35743639Y-24273642D01*
X35726669Y-24268659D01*
X35692480Y-24255908D01*
X35692482Y-24255908D01*
X35632883Y-24249501D01*
X35632881Y-24249500D01*
X35632873Y-24249500D01*
X35632864Y-24249500D01*
X34637129Y-24249500D01*
X34637123Y-24249501D01*
X34577518Y-24255908D01*
X34543331Y-24268659D01*
X34473639Y-24273642D01*
X34456669Y-24268659D01*
X34422480Y-24255908D01*
X34422482Y-24255908D01*
X34362883Y-24249501D01*
X34362881Y-24249500D01*
X34362873Y-24249500D01*
X34362864Y-24249500D01*
X33367129Y-24249500D01*
X33367123Y-24249501D01*
X33307518Y-24255908D01*
X33273331Y-24268659D01*
X33203639Y-24273642D01*
X33186669Y-24268659D01*
X33152480Y-24255908D01*
X33152482Y-24255908D01*
X33092883Y-24249501D01*
X33092881Y-24249500D01*
X33092873Y-24249500D01*
X33092864Y-24249500D01*
X32097129Y-24249500D01*
X32097123Y-24249501D01*
X32037518Y-24255908D01*
X32003331Y-24268659D01*
X31933639Y-24273642D01*
X31916669Y-24268659D01*
X31882480Y-24255908D01*
X31882482Y-24255908D01*
X31822883Y-24249501D01*
X31822881Y-24249500D01*
X31822873Y-24249500D01*
X31822864Y-24249500D01*
X30827129Y-24249500D01*
X30827123Y-24249501D01*
X30767518Y-24255908D01*
X30733331Y-24268659D01*
X30663639Y-24273642D01*
X30646669Y-24268659D01*
X30612480Y-24255908D01*
X30612482Y-24255908D01*
X30552883Y-24249501D01*
X30552881Y-24249500D01*
X30552873Y-24249500D01*
X30552865Y-24249500D01*
X29934480Y-24249500D01*
X29867441Y-24229815D01*
X29821686Y-24177011D01*
X29811742Y-24107853D01*
X29831378Y-24056610D01*
X29886625Y-23973925D01*
X29886628Y-23973920D01*
X29886632Y-23973914D01*
X29962051Y-23791835D01*
X29986919Y-23666819D01*
X30000500Y-23598543D01*
X30000500Y-23401456D01*
X29962052Y-23208170D01*
X29962051Y-23208169D01*
X29962051Y-23208165D01*
X29962049Y-23208160D01*
X29886635Y-23026092D01*
X29886628Y-23026079D01*
X29777139Y-22862218D01*
X29777136Y-22862214D01*
X29686819Y-22771897D01*
X29653334Y-22710574D01*
X29650500Y-22684216D01*
X29650500Y-21305928D01*
X29625502Y-21180261D01*
X29625501Y-21180260D01*
X29625501Y-21180256D01*
X29576465Y-21061873D01*
X29534789Y-20999500D01*
X29520033Y-20977415D01*
X29505279Y-20955333D01*
X29505277Y-20955331D01*
X27214674Y-18664727D01*
X27214673Y-18664726D01*
X27108126Y-18593534D01*
X27070707Y-18578035D01*
X27016304Y-18534193D01*
X26994240Y-18467899D01*
X26994872Y-18450218D01*
X27000499Y-18397881D01*
X27000500Y-18397873D01*
X27000499Y-17402128D01*
X26994091Y-17342517D01*
X26981340Y-17308332D01*
X26976357Y-17238642D01*
X26981340Y-17221669D01*
X26994091Y-17187483D01*
X27000500Y-17127873D01*
X27000499Y-16132128D01*
X26994091Y-16072517D01*
X26981340Y-16038332D01*
X26976357Y-15968642D01*
X26981340Y-15951669D01*
X26994091Y-15917483D01*
X27000500Y-15857873D01*
X27000499Y-14862128D01*
X26994091Y-14802517D01*
X26981340Y-14768332D01*
X26976357Y-14698642D01*
X26981340Y-14681669D01*
X26994091Y-14647483D01*
X27000500Y-14587873D01*
X27000499Y-13592128D01*
X26994091Y-13532517D01*
X26981340Y-13498332D01*
X26976357Y-13428642D01*
X26981340Y-13411669D01*
X26994091Y-13377483D01*
X27000500Y-13317873D01*
X27000499Y-12322128D01*
X26994091Y-12262517D01*
X26981340Y-12228332D01*
X26976357Y-12158642D01*
X26981340Y-12141669D01*
X26994091Y-12107483D01*
X27000500Y-12047873D01*
X27000499Y-11052128D01*
X26994091Y-10992517D01*
X26981340Y-10958332D01*
X26976357Y-10888642D01*
X26981340Y-10871669D01*
X26994091Y-10837483D01*
X27000500Y-10777873D01*
X27000499Y-9884499D01*
X27020183Y-9817461D01*
X27072987Y-9771706D01*
X27124499Y-9760500D01*
X36147770Y-9760500D01*
X36214809Y-9780185D01*
X36235451Y-9796819D01*
X38464010Y-12025377D01*
X38497495Y-12086700D01*
X38498831Y-12095183D01*
X38537947Y-12291829D01*
X38537950Y-12291839D01*
X38613364Y-12473907D01*
X38613371Y-12473920D01*
X38722860Y-12637781D01*
X38722863Y-12637785D01*
X38862214Y-12777136D01*
X38862218Y-12777139D01*
X39026079Y-12886628D01*
X39026092Y-12886635D01*
X39197134Y-12957482D01*
X39208165Y-12962051D01*
X39208169Y-12962051D01*
X39208170Y-12962052D01*
X39401456Y-13000500D01*
X39401459Y-13000500D01*
X39598543Y-13000500D01*
X39728582Y-12974632D01*
X39791835Y-12962051D01*
X39932655Y-12903721D01*
X39973907Y-12886635D01*
X39973907Y-12886634D01*
X39973914Y-12886632D01*
X40137782Y-12777139D01*
X40277139Y-12637782D01*
X40386632Y-12473914D01*
X40462051Y-12291835D01*
X40474683Y-12228331D01*
X40500500Y-12098543D01*
X40500500Y-11901456D01*
X40462052Y-11708170D01*
X40462051Y-11708169D01*
X40462051Y-11708165D01*
X40462049Y-11708160D01*
X40386635Y-11526092D01*
X40386628Y-11526079D01*
X40277139Y-11362218D01*
X40277136Y-11362214D01*
X40137785Y-11222863D01*
X40137781Y-11222860D01*
X39973920Y-11113371D01*
X39973907Y-11113364D01*
X39791839Y-11037950D01*
X39791829Y-11037947D01*
X39592566Y-10998311D01*
X39592923Y-10996513D01*
X39536102Y-10973559D01*
X39525377Y-10964010D01*
X36988421Y-8427052D01*
X36988414Y-8427046D01*
X36914729Y-8377812D01*
X36914729Y-8377813D01*
X36865491Y-8344913D01*
X36728917Y-8288343D01*
X36728907Y-8288340D01*
X36583920Y-8259500D01*
X36583918Y-8259500D01*
X27124000Y-8259500D01*
X27056961Y-8239815D01*
X27011206Y-8187011D01*
X27000000Y-8135500D01*
X27000000Y-7990000D01*
X25874000Y-7990000D01*
X25806961Y-7970315D01*
X25761206Y-7917511D01*
X25750000Y-7866000D01*
X25750000Y-7740000D01*
X25624000Y-7740000D01*
X25556961Y-7720315D01*
X25511206Y-7667511D01*
X25500000Y-7616000D01*
X25500000Y-7490000D01*
X26000000Y-7490000D01*
X27000000Y-7490000D01*
X27000000Y-7242172D01*
X26999999Y-7242155D01*
X42000000Y-7242155D01*
X42000000Y-7490000D01*
X43000000Y-7490000D01*
X43500000Y-7490000D01*
X44500000Y-7490000D01*
X44500000Y-7242172D01*
X44499999Y-7242155D01*
X44493598Y-7182627D01*
X44493596Y-7182620D01*
X44443354Y-7047913D01*
X44443350Y-7047906D01*
X44357190Y-6932812D01*
X44357187Y-6932809D01*
X44242093Y-6846649D01*
X44242086Y-6846645D01*
X44107379Y-6796403D01*
X44107372Y-6796401D01*
X44047844Y-6790000D01*
X43500000Y-6790000D01*
X43500000Y-7490000D01*
X43000000Y-7490000D01*
X43000000Y-6790000D01*
X42452155Y-6790000D01*
X42392627Y-6796401D01*
X42392620Y-6796403D01*
X42257913Y-6846645D01*
X42257906Y-6846649D01*
X42142812Y-6932809D01*
X42142809Y-6932812D01*
X42056649Y-7047906D01*
X42056645Y-7047913D01*
X42006403Y-7182620D01*
X42006401Y-7182627D01*
X42000000Y-7242155D01*
X26999999Y-7242155D01*
X26993598Y-7182627D01*
X26993596Y-7182620D01*
X26943354Y-7047913D01*
X26943350Y-7047906D01*
X26857190Y-6932812D01*
X26857187Y-6932809D01*
X26742093Y-6846649D01*
X26742086Y-6846645D01*
X26607379Y-6796403D01*
X26607372Y-6796401D01*
X26547844Y-6790000D01*
X26000000Y-6790000D01*
X26000000Y-7490000D01*
X25500000Y-7490000D01*
X25500000Y-6790000D01*
X25042675Y-6790000D01*
X24975636Y-6770315D01*
X24929881Y-6717511D01*
X24924969Y-6705002D01*
X24910455Y-6661202D01*
X24910453Y-6661196D01*
X24819947Y-6514465D01*
X24819944Y-6514461D01*
X24767164Y-6461681D01*
X24733679Y-6400358D01*
X24738663Y-6330666D01*
X24780535Y-6274733D01*
X24845999Y-6250316D01*
X24854845Y-6250000D01*
X58500000Y-6250000D01*
X58500000Y-4385258D01*
X62749500Y-4385258D01*
X62749500Y-4614741D01*
X62774446Y-4804215D01*
X62779452Y-4842238D01*
X62779453Y-4842240D01*
X62838842Y-5063887D01*
X62926650Y-5275876D01*
X62926657Y-5275890D01*
X63041392Y-5474617D01*
X63181081Y-5656661D01*
X63181089Y-5656670D01*
X63343330Y-5818911D01*
X63343338Y-5818918D01*
X63525382Y-5958607D01*
X63525385Y-5958608D01*
X63525388Y-5958611D01*
X63724112Y-6073344D01*
X63724117Y-6073346D01*
X63724123Y-6073349D01*
X63815480Y-6111190D01*
X63936113Y-6161158D01*
X64157762Y-6220548D01*
X64385266Y-6250500D01*
X64385273Y-6250500D01*
X64614727Y-6250500D01*
X64614734Y-6250500D01*
X64842238Y-6220548D01*
X65063887Y-6161158D01*
X65275888Y-6073344D01*
X65474612Y-5958611D01*
X65656661Y-5818919D01*
X65656665Y-5818914D01*
X65656670Y-5818911D01*
X65818911Y-5656670D01*
X65818914Y-5656665D01*
X65818919Y-5656661D01*
X65958611Y-5474612D01*
X66073344Y-5275888D01*
X66161158Y-5063887D01*
X66220548Y-4842238D01*
X66250500Y-4614734D01*
X66250500Y-4385266D01*
X66220548Y-4157762D01*
X66161158Y-3936113D01*
X66104571Y-3799500D01*
X66073349Y-3724123D01*
X66073346Y-3724117D01*
X66073344Y-3724112D01*
X65958611Y-3525388D01*
X65958608Y-3525385D01*
X65958607Y-3525382D01*
X65818918Y-3343338D01*
X65818911Y-3343330D01*
X65656670Y-3181089D01*
X65656661Y-3181081D01*
X65474617Y-3041392D01*
X65275890Y-2926657D01*
X65275876Y-2926650D01*
X65063887Y-2838842D01*
X64842238Y-2779452D01*
X64804215Y-2774446D01*
X64614741Y-2749500D01*
X64614734Y-2749500D01*
X64385266Y-2749500D01*
X64385258Y-2749500D01*
X64168715Y-2778009D01*
X64157762Y-2779452D01*
X64064076Y-2804554D01*
X63936112Y-2838842D01*
X63724123Y-2926650D01*
X63724109Y-2926657D01*
X63525382Y-3041392D01*
X63343338Y-3181081D01*
X63181081Y-3343338D01*
X63041392Y-3525382D01*
X62926657Y-3724109D01*
X62926650Y-3724123D01*
X62838842Y-3936112D01*
X62838842Y-3936113D01*
X62785790Y-4134110D01*
X62779453Y-4157759D01*
X62779451Y-4157770D01*
X62749500Y-4385258D01*
X58500000Y-4385258D01*
X58500000Y-624500D01*
X58519685Y-557461D01*
X58572489Y-511706D01*
X58624000Y-500500D01*
X68375500Y-500500D01*
X68442539Y-520185D01*
X68488294Y-572989D01*
X68499500Y-624500D01*
X68499500Y-6741324D01*
X68479815Y-6808363D01*
X68463181Y-6829005D01*
X67099502Y-8192683D01*
X67099500Y-8192686D01*
X67033608Y-8306812D01*
X66999500Y-8434108D01*
X66999500Y-16565891D01*
X67033608Y-16693187D01*
X67035305Y-16696126D01*
X67099500Y-16807314D01*
X67099502Y-16807316D01*
X68463181Y-18170995D01*
X68496666Y-18232318D01*
X68499500Y-18258676D01*
X68499500Y-64734108D01*
X68499500Y-64865892D01*
X68508069Y-64897872D01*
X68533608Y-64993187D01*
X68566554Y-65050250D01*
X68599500Y-65107314D01*
X68692686Y-65200500D01*
X68806814Y-65266392D01*
X68934108Y-65300500D01*
X69175500Y-65300500D01*
X69242539Y-65320185D01*
X69288294Y-65372989D01*
X69299500Y-65424500D01*
X69299500Y-69175500D01*
X69279815Y-69242539D01*
X69227011Y-69288294D01*
X69175500Y-69299500D01*
X65424500Y-69299500D01*
X65357461Y-69279815D01*
X65311706Y-69227011D01*
X65300500Y-69175500D01*
X65300500Y-68934110D01*
X65300500Y-68934108D01*
X65266392Y-68806814D01*
X65200500Y-68692686D01*
X65107314Y-68599500D01*
X65050250Y-68566554D01*
X64993187Y-68533608D01*
X64929539Y-68516554D01*
X64865892Y-68499500D01*
X64865891Y-68499500D01*
X37758676Y-68499500D01*
X37691637Y-68479815D01*
X37670995Y-68463181D01*
X36307316Y-67099502D01*
X36307314Y-67099500D01*
X36250250Y-67066554D01*
X36193187Y-67033608D01*
X36129539Y-67016554D01*
X36065892Y-66999500D01*
X30065892Y-66999500D01*
X29934107Y-66999500D01*
X29806812Y-67033608D01*
X29692686Y-67099500D01*
X29692683Y-67099502D01*
X28329005Y-68463181D01*
X28267682Y-68496666D01*
X28241324Y-68499500D01*
X624500Y-68499500D01*
X557461Y-68479815D01*
X511706Y-68427011D01*
X500500Y-68375500D01*
X500500Y-64385258D01*
X2749500Y-64385258D01*
X2749500Y-64614741D01*
X2774104Y-64801615D01*
X2779452Y-64842238D01*
X2811252Y-64960917D01*
X2838842Y-65063887D01*
X2926650Y-65275876D01*
X2926657Y-65275890D01*
X3041392Y-65474617D01*
X3181081Y-65656661D01*
X3181089Y-65656670D01*
X3343330Y-65818911D01*
X3343338Y-65818918D01*
X3525382Y-65958607D01*
X3525385Y-65958608D01*
X3525388Y-65958611D01*
X3724112Y-66073344D01*
X3724117Y-66073346D01*
X3724123Y-66073349D01*
X3815480Y-66111190D01*
X3936113Y-66161158D01*
X4157762Y-66220548D01*
X4385266Y-66250500D01*
X4385273Y-66250500D01*
X4614727Y-66250500D01*
X4614734Y-66250500D01*
X4842238Y-66220548D01*
X5063887Y-66161158D01*
X5275888Y-66073344D01*
X5474612Y-65958611D01*
X5656661Y-65818919D01*
X5656665Y-65818914D01*
X5656670Y-65818911D01*
X5818911Y-65656670D01*
X5818914Y-65656665D01*
X5818919Y-65656661D01*
X5958611Y-65474612D01*
X6073344Y-65275888D01*
X6161158Y-65063887D01*
X6220548Y-64842238D01*
X6250500Y-64614734D01*
X6250500Y-64385266D01*
X6220548Y-64157762D01*
X6161158Y-63936113D01*
X6073344Y-63724112D01*
X5958611Y-63525388D01*
X5958608Y-63525385D01*
X5958607Y-63525382D01*
X5818918Y-63343338D01*
X5818911Y-63343330D01*
X5656670Y-63181089D01*
X5656661Y-63181081D01*
X5474617Y-63041392D01*
X5275890Y-62926657D01*
X5275876Y-62926650D01*
X5063887Y-62838842D01*
X4842238Y-62779452D01*
X4804215Y-62774446D01*
X4614741Y-62749500D01*
X4614734Y-62749500D01*
X4385266Y-62749500D01*
X4385258Y-62749500D01*
X4168715Y-62778009D01*
X4157762Y-62779452D01*
X4109234Y-62792455D01*
X3936112Y-62838842D01*
X3724123Y-62926650D01*
X3724109Y-62926657D01*
X3525382Y-63041392D01*
X3343338Y-63181081D01*
X3181081Y-63343338D01*
X3041392Y-63525382D01*
X2926657Y-63724109D01*
X2926650Y-63724123D01*
X2838842Y-63936112D01*
X2779453Y-64157759D01*
X2779451Y-64157770D01*
X2749500Y-64385258D01*
X500500Y-64385258D01*
X500500Y-63258676D01*
X520185Y-63191637D01*
X536819Y-63170995D01*
X1900496Y-61807318D01*
X1900499Y-61807315D01*
X1912415Y-61786677D01*
X1966392Y-61693186D01*
X1979436Y-61644505D01*
X2000500Y-61565893D01*
X2000500Y-61434108D01*
X2000500Y-50799986D01*
X9100001Y-50799986D01*
X9110494Y-50902697D01*
X9165641Y-51069119D01*
X9165643Y-51069124D01*
X9257684Y-51218345D01*
X9381654Y-51342315D01*
X9530875Y-51434356D01*
X9530880Y-51434358D01*
X9697302Y-51489505D01*
X9697309Y-51489506D01*
X9800019Y-51499999D01*
X11099999Y-51499999D01*
X11600000Y-51499999D01*
X12899972Y-51499999D01*
X12899986Y-51499998D01*
X13002697Y-51489505D01*
X13169119Y-51434358D01*
X13169124Y-51434356D01*
X13318345Y-51342315D01*
X13442315Y-51218345D01*
X13509451Y-51109502D01*
X13534356Y-51069124D01*
X13534358Y-51069119D01*
X13589505Y-50902697D01*
X13589506Y-50902690D01*
X13599999Y-50799986D01*
X13600000Y-50799973D01*
X13600000Y-50750000D01*
X11600000Y-50750000D01*
X11600000Y-51499999D01*
X11099999Y-51499999D01*
X11100000Y-51499998D01*
X11100000Y-50750000D01*
X9100001Y-50750000D01*
X9100001Y-50799986D01*
X2000500Y-50799986D01*
X2000500Y-45599984D01*
X3399500Y-45599984D01*
X3399500Y-46700015D01*
X3410000Y-46802795D01*
X3410001Y-46802796D01*
X3465186Y-46969335D01*
X3465187Y-46969337D01*
X3557286Y-47118651D01*
X3557289Y-47118655D01*
X3681344Y-47242710D01*
X3681348Y-47242713D01*
X3830662Y-47334812D01*
X3830664Y-47334813D01*
X3830666Y-47334814D01*
X3997203Y-47389999D01*
X4099992Y-47400500D01*
X4099997Y-47400500D01*
X7100003Y-47400500D01*
X7100008Y-47400500D01*
X7202797Y-47389999D01*
X7369334Y-47334814D01*
X7518655Y-47242711D01*
X7642711Y-47118655D01*
X7734814Y-46969334D01*
X7789999Y-46802797D01*
X7800500Y-46700008D01*
X7800500Y-45599992D01*
X7789999Y-45497203D01*
X7734814Y-45330666D01*
X7642711Y-45181345D01*
X7518655Y-45057289D01*
X7518651Y-45057286D01*
X7369337Y-44965187D01*
X7369335Y-44965186D01*
X7286065Y-44937593D01*
X7202797Y-44910001D01*
X7202795Y-44910000D01*
X7100015Y-44899500D01*
X7100008Y-44899500D01*
X4099992Y-44899500D01*
X4099984Y-44899500D01*
X3997204Y-44910000D01*
X3997203Y-44910001D01*
X3830664Y-44965186D01*
X3830662Y-44965187D01*
X3681348Y-45057286D01*
X3681344Y-45057289D01*
X3557289Y-45181344D01*
X3557286Y-45181348D01*
X3465187Y-45330662D01*
X3465186Y-45330664D01*
X3410001Y-45497203D01*
X3410000Y-45497204D01*
X3399500Y-45599984D01*
X2000500Y-45599984D01*
X2000500Y-44434108D01*
X2000500Y-7799986D01*
X9975001Y-7799986D01*
X9985494Y-7902697D01*
X10040641Y-8069119D01*
X10040643Y-8069124D01*
X10132684Y-8218345D01*
X10256654Y-8342315D01*
X10405875Y-8434356D01*
X10405880Y-8434358D01*
X10572302Y-8489505D01*
X10572309Y-8489506D01*
X10675019Y-8499999D01*
X10999999Y-8499999D01*
X11500000Y-8499999D01*
X11824972Y-8499999D01*
X11824986Y-8499998D01*
X11927697Y-8489505D01*
X12094119Y-8434358D01*
X12094124Y-8434356D01*
X12243345Y-8342315D01*
X12367315Y-8218345D01*
X12459356Y-8069124D01*
X12459358Y-8069119D01*
X12514505Y-7902697D01*
X12514506Y-7902690D01*
X12524999Y-7799986D01*
X15225001Y-7799986D01*
X15235494Y-7902697D01*
X15290641Y-8069119D01*
X15290643Y-8069124D01*
X15382684Y-8218345D01*
X15506654Y-8342315D01*
X15655875Y-8434356D01*
X15655880Y-8434358D01*
X15822302Y-8489505D01*
X15822309Y-8489506D01*
X15925019Y-8499999D01*
X16249999Y-8499999D01*
X16250000Y-8499998D01*
X16250000Y-7750000D01*
X15225001Y-7750000D01*
X15225001Y-7799986D01*
X12524999Y-7799986D01*
X12525000Y-7799973D01*
X12525000Y-7750000D01*
X11500000Y-7750000D01*
X11500000Y-8499999D01*
X10999999Y-8499999D01*
X11000000Y-8499998D01*
X11000000Y-7750000D01*
X9975001Y-7750000D01*
X9975001Y-7799986D01*
X2000500Y-7799986D01*
X2000500Y-7434108D01*
X1966392Y-7306814D01*
X1904730Y-7200013D01*
X9975000Y-7200013D01*
X9975000Y-7250000D01*
X11000000Y-7250000D01*
X11500000Y-7250000D01*
X12524999Y-7250000D01*
X12524999Y-7200029D01*
X12524998Y-7200013D01*
X15225000Y-7200013D01*
X15225000Y-7250000D01*
X16250000Y-7250000D01*
X16250000Y-6500000D01*
X15925028Y-6500000D01*
X15925012Y-6500001D01*
X15822302Y-6510494D01*
X15655880Y-6565641D01*
X15655875Y-6565643D01*
X15506654Y-6657684D01*
X15382684Y-6781654D01*
X15290643Y-6930875D01*
X15290641Y-6930880D01*
X15235494Y-7097302D01*
X15235493Y-7097309D01*
X15225000Y-7200013D01*
X12524998Y-7200013D01*
X12524998Y-7200012D01*
X12514505Y-7097302D01*
X12459358Y-6930880D01*
X12459356Y-6930875D01*
X12367315Y-6781654D01*
X12243345Y-6657684D01*
X12094124Y-6565643D01*
X12094119Y-6565641D01*
X11927697Y-6510494D01*
X11927690Y-6510493D01*
X11824986Y-6500000D01*
X11500000Y-6500000D01*
X11500000Y-7250000D01*
X11000000Y-7250000D01*
X11000000Y-6500000D01*
X10675028Y-6500000D01*
X10675012Y-6500001D01*
X10572302Y-6510494D01*
X10405880Y-6565641D01*
X10405875Y-6565643D01*
X10256654Y-6657684D01*
X10132684Y-6781654D01*
X10040643Y-6930875D01*
X10040641Y-6930880D01*
X9985494Y-7097302D01*
X9985493Y-7097309D01*
X9975000Y-7200013D01*
X1904730Y-7200013D01*
X1900500Y-7192686D01*
X1807314Y-7099500D01*
X536819Y-5829005D01*
X503334Y-5767682D01*
X500500Y-5741324D01*
X500500Y-4385258D01*
X2749500Y-4385258D01*
X2749500Y-4614741D01*
X2774446Y-4804215D01*
X2779452Y-4842238D01*
X2779453Y-4842240D01*
X2838842Y-5063887D01*
X2926650Y-5275876D01*
X2926657Y-5275890D01*
X3041392Y-5474617D01*
X3181081Y-5656661D01*
X3181089Y-5656670D01*
X3343330Y-5818911D01*
X3343338Y-5818918D01*
X3525382Y-5958607D01*
X3525385Y-5958608D01*
X3525388Y-5958611D01*
X3724112Y-6073344D01*
X3724117Y-6073346D01*
X3724123Y-6073349D01*
X3815480Y-6111190D01*
X3936113Y-6161158D01*
X4157762Y-6220548D01*
X4385266Y-6250500D01*
X4385273Y-6250500D01*
X4614727Y-6250500D01*
X4614734Y-6250500D01*
X4842238Y-6220548D01*
X5063887Y-6161158D01*
X5275888Y-6073344D01*
X5474612Y-5958611D01*
X5656661Y-5818919D01*
X5656665Y-5818914D01*
X5656670Y-5818911D01*
X5818911Y-5656670D01*
X5818914Y-5656665D01*
X5818919Y-5656661D01*
X5958611Y-5474612D01*
X6073344Y-5275888D01*
X6161158Y-5063887D01*
X6220548Y-4842238D01*
X6250500Y-4614734D01*
X6250500Y-4385266D01*
X6220548Y-4157762D01*
X6161158Y-3936113D01*
X6104571Y-3799500D01*
X6073349Y-3724123D01*
X6073346Y-3724117D01*
X6073344Y-3724112D01*
X5958611Y-3525388D01*
X5958608Y-3525385D01*
X5958607Y-3525382D01*
X5818918Y-3343338D01*
X5818911Y-3343330D01*
X5656670Y-3181089D01*
X5656661Y-3181081D01*
X5474617Y-3041392D01*
X5275890Y-2926657D01*
X5275876Y-2926650D01*
X5063887Y-2838842D01*
X4842238Y-2779452D01*
X4804215Y-2774446D01*
X4614741Y-2749500D01*
X4614734Y-2749500D01*
X4385266Y-2749500D01*
X4385258Y-2749500D01*
X4168715Y-2778009D01*
X4157762Y-2779452D01*
X4064076Y-2804554D01*
X3936112Y-2838842D01*
X3724123Y-2926650D01*
X3724109Y-2926657D01*
X3525382Y-3041392D01*
X3343338Y-3181081D01*
X3181081Y-3343338D01*
X3041392Y-3525382D01*
X2926657Y-3724109D01*
X2926650Y-3724123D01*
X2838842Y-3936112D01*
X2838842Y-3936113D01*
X2785790Y-4134110D01*
X2779453Y-4157759D01*
X2779451Y-4157770D01*
X2749500Y-4385258D01*
X500500Y-4385258D01*
X500500Y-4134110D01*
X500500Y-4134108D01*
X466392Y-4006814D01*
X400500Y-3892686D01*
X307314Y-3799500D01*
X250250Y-3766554D01*
X193187Y-3733608D01*
X129539Y-3716554D01*
X65892Y-3699500D01*
X65891Y-3699500D01*
X-175500Y-3699500D01*
X-242539Y-3679815D01*
X-288294Y-3627011D01*
X-299500Y-3575500D01*
X-299500Y175500D01*
X-279815Y242539D01*
X-227011Y288294D01*
X-175500Y299500D01*
X3575500Y299500D01*
X3642539Y279815D01*
G37*
%TD.AperFunction*%
%TA.AperFunction,Conductor*%
G36*
X44705701Y-15619678D02*
G01*
X44720350Y-15634723D01*
X44722863Y-15637785D01*
X44862214Y-15777136D01*
X44862218Y-15777139D01*
X45026079Y-15886628D01*
X45026092Y-15886635D01*
X45183093Y-15951666D01*
X45208165Y-15962051D01*
X45208169Y-15962051D01*
X45208170Y-15962052D01*
X45401456Y-16000500D01*
X45401459Y-16000500D01*
X45598543Y-16000500D01*
X45758700Y-15968642D01*
X45791835Y-15962051D01*
X45973914Y-15886632D01*
X46086510Y-15811398D01*
X46153188Y-15790520D01*
X46155401Y-15790500D01*
X62812779Y-15790500D01*
X62879818Y-15810185D01*
X62913097Y-15841615D01*
X62969892Y-15919788D01*
X62969896Y-15919792D01*
X63120208Y-16070104D01*
X63198384Y-16126902D01*
X63241051Y-16182231D01*
X63249500Y-16227220D01*
X63249500Y-47637770D01*
X63229815Y-47704809D01*
X63213181Y-47725451D01*
X53725451Y-57213181D01*
X53664128Y-57246666D01*
X53637770Y-57249500D01*
X47874500Y-57249500D01*
X47807461Y-57229815D01*
X47761706Y-57177011D01*
X47750500Y-57125500D01*
X47750500Y-55274500D01*
X47770185Y-55207461D01*
X47822989Y-55161706D01*
X47874500Y-55150500D01*
X51073229Y-55150500D01*
X51140268Y-55170185D01*
X51174867Y-55205429D01*
X51175179Y-55205183D01*
X51177471Y-55208082D01*
X51178766Y-55209401D01*
X51179660Y-55210850D01*
X51301650Y-55332840D01*
X51448484Y-55423408D01*
X51612247Y-55477674D01*
X51713323Y-55488000D01*
X52286676Y-55487999D01*
X52286684Y-55487998D01*
X52286687Y-55487998D01*
X52342030Y-55482344D01*
X52387753Y-55477674D01*
X52551516Y-55423408D01*
X52698350Y-55332840D01*
X52820340Y-55210850D01*
X52910908Y-55064016D01*
X52965174Y-54900253D01*
X52975500Y-54799177D01*
X52975499Y-54200824D01*
X52965174Y-54099747D01*
X52910908Y-53935984D01*
X52820340Y-53789150D01*
X52706371Y-53675181D01*
X52672886Y-53613858D01*
X52677870Y-53544166D01*
X52706371Y-53499819D01*
X52713480Y-53492710D01*
X52820340Y-53385850D01*
X52910908Y-53239016D01*
X52965174Y-53075253D01*
X52975500Y-52974177D01*
X52975499Y-52375824D01*
X52973101Y-52352352D01*
X52965174Y-52274747D01*
X52962935Y-52267990D01*
X52910908Y-52110984D01*
X52820340Y-51964150D01*
X52698350Y-51842160D01*
X52698349Y-51842159D01*
X52698347Y-51842157D01*
X52697593Y-51841561D01*
X52697209Y-51841019D01*
X52694949Y-51838759D01*
X52693297Y-51838005D01*
X52675853Y-51810862D01*
X52657214Y-51784541D01*
X52656609Y-51780917D01*
X52655523Y-51779227D01*
X52650500Y-51744292D01*
X52650500Y-51688732D01*
X52670185Y-51621693D01*
X52722989Y-51575938D01*
X52735495Y-51571026D01*
X52769334Y-51559814D01*
X52918656Y-51467712D01*
X53042712Y-51343656D01*
X53134814Y-51194334D01*
X53189999Y-51027797D01*
X53200500Y-50925009D01*
X53200499Y-50174992D01*
X53193201Y-50103553D01*
X53189999Y-50072203D01*
X53189998Y-50072200D01*
X53134814Y-49905666D01*
X53042712Y-49756344D01*
X52918656Y-49632288D01*
X52915342Y-49630243D01*
X52913546Y-49628248D01*
X52912989Y-49627807D01*
X52913064Y-49627711D01*
X52868618Y-49578297D01*
X52857397Y-49509334D01*
X52885240Y-49445252D01*
X52915348Y-49419165D01*
X52918342Y-49417318D01*
X53042315Y-49293345D01*
X53134356Y-49144124D01*
X53134358Y-49144119D01*
X53189505Y-48977697D01*
X53189506Y-48977690D01*
X53199999Y-48874986D01*
X53200000Y-48874973D01*
X53200000Y-48750000D01*
X50800001Y-48750000D01*
X50800001Y-48874986D01*
X50810494Y-48977697D01*
X50865641Y-49144119D01*
X50865643Y-49144124D01*
X50957684Y-49293345D01*
X51081655Y-49417316D01*
X51081659Y-49417319D01*
X51084656Y-49419168D01*
X51086279Y-49420972D01*
X51087323Y-49421798D01*
X51087181Y-49421976D01*
X51131381Y-49471116D01*
X51142602Y-49540079D01*
X51114759Y-49604161D01*
X51084661Y-49630241D01*
X51081349Y-49632283D01*
X51081343Y-49632288D01*
X50957289Y-49756342D01*
X50865187Y-49905663D01*
X50865185Y-49905668D01*
X50856831Y-49930880D01*
X50810001Y-50072203D01*
X50810001Y-50072204D01*
X50810000Y-50072204D01*
X50799500Y-50174983D01*
X50799500Y-50925001D01*
X50799501Y-50925019D01*
X50810000Y-51027796D01*
X50810001Y-51027799D01*
X50846424Y-51137714D01*
X50865186Y-51194334D01*
X50957288Y-51343656D01*
X51081344Y-51467712D01*
X51230666Y-51559814D01*
X51264500Y-51571025D01*
X51284534Y-51584894D01*
X51306703Y-51595019D01*
X51312750Y-51604429D01*
X51321947Y-51610796D01*
X51331303Y-51633298D01*
X51344477Y-51653797D01*
X51346935Y-51670893D01*
X51348772Y-51675311D01*
X51349500Y-51688732D01*
X51349500Y-51744292D01*
X51329815Y-51811331D01*
X51306619Y-51836915D01*
X51306757Y-51837053D01*
X51303941Y-51839868D01*
X51302407Y-51841561D01*
X51301652Y-51842157D01*
X51179659Y-51964151D01*
X51089093Y-52110981D01*
X51089091Y-52110986D01*
X51064753Y-52184433D01*
X51034826Y-52274747D01*
X51034826Y-52274748D01*
X51034825Y-52274748D01*
X51024500Y-52375815D01*
X51024500Y-52974169D01*
X51024501Y-52974187D01*
X51034825Y-53075252D01*
X51089092Y-53239015D01*
X51089093Y-53239018D01*
X51111346Y-53275096D01*
X51173224Y-53375416D01*
X51179661Y-53385851D01*
X51293629Y-53499819D01*
X51297383Y-53506695D01*
X51303747Y-53511268D01*
X51313892Y-53536928D01*
X51327114Y-53561142D01*
X51326555Y-53568956D01*
X51329436Y-53576243D01*
X51324098Y-53603313D01*
X51322130Y-53630834D01*
X51317092Y-53638843D01*
X51315919Y-53644793D01*
X51297893Y-53669367D01*
X51295323Y-53673454D01*
X51294493Y-53674316D01*
X51179660Y-53789150D01*
X51171801Y-53801890D01*
X51162604Y-53811454D01*
X51143328Y-53822472D01*
X51126820Y-53837321D01*
X51111106Y-53840892D01*
X51101945Y-53846129D01*
X51090644Y-53845542D01*
X51073229Y-53849500D01*
X47874500Y-53849500D01*
X47807461Y-53829815D01*
X47761706Y-53777011D01*
X47750500Y-53725500D01*
X47750500Y-53375416D01*
X47770185Y-53308377D01*
X47801613Y-53275099D01*
X47847219Y-53241966D01*
X47991966Y-53097219D01*
X47991968Y-53097215D01*
X47991971Y-53097213D01*
X48044732Y-53024590D01*
X48112287Y-52931610D01*
X48205220Y-52749219D01*
X48268477Y-52554534D01*
X48300500Y-52352352D01*
X48300500Y-52147648D01*
X48294899Y-52112284D01*
X48268477Y-51945465D01*
X48224894Y-51811331D01*
X48205220Y-51750781D01*
X48205218Y-51750778D01*
X48205218Y-51750776D01*
X48164515Y-51670893D01*
X48112287Y-51568390D01*
X48102381Y-51554755D01*
X47991971Y-51402786D01*
X47847213Y-51258028D01*
X47681611Y-51137713D01*
X47627621Y-51110203D01*
X47576825Y-51062228D01*
X47560031Y-50994407D01*
X47582569Y-50928272D01*
X47627624Y-50889233D01*
X47681349Y-50861859D01*
X47725921Y-50829474D01*
X47046447Y-50150000D01*
X47052661Y-50150000D01*
X47154394Y-50122741D01*
X47245606Y-50070080D01*
X47320080Y-49995606D01*
X47372741Y-49904394D01*
X47400000Y-49802661D01*
X47400000Y-49796447D01*
X48079474Y-50475921D01*
X48111859Y-50431349D01*
X48204755Y-50249031D01*
X48267990Y-50054417D01*
X48300000Y-49852317D01*
X48300000Y-49647682D01*
X48267990Y-49445582D01*
X48204753Y-49250964D01*
X48111859Y-49068650D01*
X48079474Y-49024077D01*
X48079474Y-49024076D01*
X47400000Y-49703551D01*
X47400000Y-49697339D01*
X47372741Y-49595606D01*
X47320080Y-49504394D01*
X47245606Y-49429920D01*
X47154394Y-49377259D01*
X47052661Y-49350000D01*
X47046446Y-49350000D01*
X47725922Y-48670524D01*
X47725921Y-48670523D01*
X47681359Y-48638147D01*
X47681350Y-48638141D01*
X47499031Y-48545244D01*
X47304417Y-48482009D01*
X47102317Y-48450000D01*
X46897683Y-48450000D01*
X46695582Y-48482009D01*
X46500968Y-48545244D01*
X46318644Y-48638143D01*
X46274077Y-48670523D01*
X46274077Y-48670524D01*
X46953554Y-49350000D01*
X46947339Y-49350000D01*
X46845606Y-49377259D01*
X46754394Y-49429920D01*
X46679920Y-49504394D01*
X46627259Y-49595606D01*
X46600000Y-49697339D01*
X46600000Y-49703553D01*
X45920524Y-49024077D01*
X45920523Y-49024077D01*
X45888143Y-49068644D01*
X45795247Y-49250964D01*
X45732009Y-49445582D01*
X45700000Y-49647682D01*
X45700000Y-49852317D01*
X45732009Y-50054417D01*
X45795244Y-50249031D01*
X45888141Y-50431350D01*
X45888147Y-50431359D01*
X45920523Y-50475921D01*
X45920524Y-50475922D01*
X46600000Y-49796446D01*
X46600000Y-49802661D01*
X46627259Y-49904394D01*
X46679920Y-49995606D01*
X46754394Y-50070080D01*
X46845606Y-50122741D01*
X46947339Y-50150000D01*
X46953553Y-50150000D01*
X46274076Y-50829474D01*
X46318652Y-50861861D01*
X46372376Y-50889234D01*
X46423172Y-50937208D01*
X46439968Y-51005028D01*
X46417431Y-51071164D01*
X46372379Y-51110203D01*
X46318386Y-51137714D01*
X46152786Y-51258028D01*
X46008028Y-51402786D01*
X45887715Y-51568386D01*
X45794781Y-51750776D01*
X45731522Y-51945465D01*
X45699500Y-52147648D01*
X45699500Y-52352351D01*
X45731522Y-52554534D01*
X45794781Y-52749223D01*
X45858614Y-52874500D01*
X45884216Y-52924747D01*
X45887715Y-52931613D01*
X46008028Y-53097213D01*
X46008034Y-53097219D01*
X46152781Y-53241966D01*
X46198384Y-53275098D01*
X46241050Y-53330425D01*
X46249500Y-53375416D01*
X46249500Y-57125500D01*
X46229815Y-57192539D01*
X46177011Y-57238294D01*
X46125500Y-57249500D01*
X44874500Y-57249500D01*
X44807461Y-57229815D01*
X44761706Y-57177011D01*
X44750500Y-57125500D01*
X44750500Y-56872631D01*
X44770185Y-56805592D01*
X44801614Y-56772313D01*
X44977510Y-56644517D01*
X45144517Y-56477510D01*
X45283343Y-56286433D01*
X45390568Y-56075992D01*
X45463553Y-55851368D01*
X45472871Y-55792539D01*
X45500500Y-55618097D01*
X45500500Y-55381902D01*
X45463553Y-55148631D01*
X45395482Y-54939132D01*
X45390568Y-54924008D01*
X45390566Y-54924005D01*
X45390566Y-54924003D01*
X45283342Y-54713566D01*
X45279497Y-54708274D01*
X45144517Y-54522490D01*
X44977510Y-54355483D01*
X44786433Y-54216657D01*
X44755359Y-54200824D01*
X44575996Y-54109433D01*
X44351368Y-54036446D01*
X44118097Y-53999500D01*
X44118092Y-53999500D01*
X43881908Y-53999500D01*
X43881903Y-53999500D01*
X43648631Y-54036446D01*
X43424003Y-54109433D01*
X43213566Y-54216657D01*
X43117051Y-54286780D01*
X43022490Y-54355483D01*
X43022488Y-54355485D01*
X43022487Y-54355485D01*
X42855485Y-54522487D01*
X42855485Y-54522488D01*
X42855483Y-54522490D01*
X42812038Y-54582287D01*
X42716657Y-54713566D01*
X42609433Y-54924003D01*
X42536446Y-55148631D01*
X42499500Y-55381902D01*
X42499500Y-55618097D01*
X42536446Y-55851368D01*
X42609433Y-56075996D01*
X42713717Y-56280663D01*
X42716657Y-56286433D01*
X42855483Y-56477510D01*
X43022490Y-56644517D01*
X43198386Y-56772313D01*
X43201726Y-56776645D01*
X43206703Y-56778918D01*
X43222833Y-56804017D01*
X43241051Y-56827643D01*
X43242303Y-56834314D01*
X43244477Y-56837696D01*
X43249500Y-56872631D01*
X43249500Y-57109742D01*
X43229815Y-57176781D01*
X43177011Y-57222536D01*
X43107853Y-57232480D01*
X43091294Y-57228254D01*
X43091285Y-57228293D01*
X43083733Y-57226508D01*
X43024133Y-57220101D01*
X43024131Y-57220100D01*
X43024123Y-57220100D01*
X43024114Y-57220100D01*
X41975879Y-57220100D01*
X41975873Y-57220101D01*
X41916266Y-57226508D01*
X41781421Y-57276802D01*
X41781414Y-57276806D01*
X41666205Y-57363052D01*
X41666202Y-57363055D01*
X41579956Y-57478264D01*
X41579952Y-57478271D01*
X41529660Y-57613113D01*
X41529659Y-57613117D01*
X41523250Y-57672727D01*
X41523250Y-57672734D01*
X41523250Y-57672735D01*
X41523250Y-58327270D01*
X41523251Y-58327276D01*
X41529658Y-58386883D01*
X41579952Y-58521728D01*
X41579956Y-58521735D01*
X41666202Y-58636944D01*
X41666205Y-58636947D01*
X41781414Y-58723193D01*
X41781421Y-58723197D01*
X41916267Y-58773491D01*
X41916266Y-58773491D01*
X41923194Y-58774235D01*
X41975877Y-58779900D01*
X43024122Y-58779899D01*
X43083733Y-58773491D01*
X43124414Y-58758318D01*
X43167747Y-58750500D01*
X43625500Y-58750500D01*
X43692539Y-58770185D01*
X43738294Y-58822989D01*
X43749500Y-58874500D01*
X43749500Y-60137769D01*
X43740854Y-60167211D01*
X43734331Y-60197198D01*
X43730577Y-60202212D01*
X43729815Y-60204808D01*
X43713179Y-60225452D01*
X43688428Y-60250202D01*
X43627105Y-60283686D01*
X43557413Y-60278700D01*
X43501480Y-60236827D01*
X43477065Y-60171363D01*
X43476749Y-60162545D01*
X43476749Y-59552328D01*
X43470341Y-59492717D01*
X43444990Y-59424748D01*
X43420047Y-59357871D01*
X43420043Y-59357864D01*
X43333797Y-59242655D01*
X43333794Y-59242652D01*
X43218585Y-59156406D01*
X43218578Y-59156402D01*
X43083732Y-59106108D01*
X43083733Y-59106108D01*
X43024133Y-59099701D01*
X43024131Y-59099700D01*
X43024123Y-59099700D01*
X43024114Y-59099700D01*
X41975879Y-59099700D01*
X41975873Y-59099701D01*
X41916266Y-59106108D01*
X41781421Y-59156402D01*
X41781414Y-59156406D01*
X41666205Y-59242652D01*
X41666202Y-59242655D01*
X41579956Y-59357864D01*
X41579952Y-59357871D01*
X41544726Y-59452319D01*
X41529659Y-59492717D01*
X41523250Y-59552327D01*
X41523250Y-59552334D01*
X41523250Y-59552335D01*
X41523250Y-60206870D01*
X41523251Y-60206876D01*
X41529658Y-60266483D01*
X41579952Y-60401328D01*
X41579956Y-60401335D01*
X41666202Y-60516544D01*
X41666205Y-60516547D01*
X41781414Y-60602793D01*
X41781421Y-60602797D01*
X41916267Y-60653091D01*
X41916266Y-60653091D01*
X41923194Y-60653835D01*
X41975877Y-60659500D01*
X42979770Y-60659499D01*
X43001016Y-60665737D01*
X43023104Y-60667317D01*
X43033886Y-60675388D01*
X43046809Y-60679183D01*
X43061310Y-60695919D01*
X43079037Y-60709189D01*
X43083743Y-60721807D01*
X43092564Y-60731987D01*
X43095715Y-60753905D01*
X43103454Y-60774653D01*
X43100591Y-60787813D01*
X43102508Y-60801146D01*
X43093308Y-60821289D01*
X43088602Y-60842926D01*
X43075332Y-60860652D01*
X43073483Y-60864702D01*
X43067462Y-60871169D01*
X42990150Y-60948481D01*
X42950449Y-60988182D01*
X42889126Y-61021666D01*
X42862769Y-61024500D01*
X42650831Y-61024500D01*
X42650812Y-61024501D01*
X42549747Y-61034825D01*
X42385984Y-61089092D01*
X42385981Y-61089093D01*
X42239148Y-61179661D01*
X42224825Y-61193984D01*
X42163501Y-61227468D01*
X42093809Y-61222482D01*
X42049465Y-61193982D01*
X42035538Y-61180055D01*
X42035534Y-61180052D01*
X41888811Y-61089551D01*
X41888800Y-61089546D01*
X41725152Y-61035319D01*
X41624154Y-61025000D01*
X41525000Y-61025000D01*
X41525000Y-62974999D01*
X41624140Y-62974999D01*
X41624149Y-62974998D01*
X41655513Y-62971794D01*
X41724206Y-62984563D01*
X41775091Y-63032442D01*
X41792013Y-63100232D01*
X41769598Y-63166409D01*
X41755800Y-63182832D01*
X41725450Y-63213181D01*
X41664130Y-63246666D01*
X41637770Y-63249500D01*
X35727221Y-63249500D01*
X35660182Y-63229815D01*
X35626903Y-63198385D01*
X35570107Y-63120211D01*
X35419794Y-62969898D01*
X35419788Y-62969893D01*
X35341615Y-62913097D01*
X35298949Y-62857767D01*
X35290500Y-62812779D01*
X35290500Y-62286654D01*
X40237501Y-62286654D01*
X40247819Y-62387652D01*
X40302046Y-62551300D01*
X40302051Y-62551311D01*
X40392552Y-62698034D01*
X40392555Y-62698038D01*
X40514461Y-62819944D01*
X40514465Y-62819947D01*
X40661188Y-62910448D01*
X40661199Y-62910453D01*
X40824847Y-62964680D01*
X40925851Y-62974999D01*
X41025000Y-62974998D01*
X41025000Y-62250000D01*
X40237501Y-62250000D01*
X40237501Y-62286654D01*
X35290500Y-62286654D01*
X35290500Y-62241079D01*
X35290499Y-62241077D01*
X35286870Y-62222829D01*
X35261659Y-62096092D01*
X35261658Y-62096091D01*
X35261658Y-62096087D01*
X35205084Y-61959505D01*
X35157141Y-61887753D01*
X35122952Y-61836584D01*
X34999713Y-61713345D01*
X40237500Y-61713345D01*
X40237500Y-61750000D01*
X41025000Y-61750000D01*
X41025000Y-61024999D01*
X40925860Y-61025000D01*
X40925844Y-61025001D01*
X40824847Y-61035319D01*
X40661199Y-61089546D01*
X40661188Y-61089551D01*
X40514465Y-61180052D01*
X40514461Y-61180055D01*
X40392555Y-61301961D01*
X40392552Y-61301965D01*
X40302051Y-61448688D01*
X40302046Y-61448699D01*
X40247819Y-61612347D01*
X40237500Y-61713345D01*
X34999713Y-61713345D01*
X34799318Y-61512950D01*
X34765833Y-61451627D01*
X34762999Y-61425269D01*
X34762999Y-61213330D01*
X34762998Y-61213313D01*
X34752674Y-61112247D01*
X34745153Y-61089551D01*
X34698408Y-60948484D01*
X34607840Y-60801650D01*
X34485850Y-60679660D01*
X34375862Y-60611819D01*
X34339018Y-60589093D01*
X34339013Y-60589091D01*
X34320472Y-60582947D01*
X34175253Y-60534826D01*
X34175251Y-60534825D01*
X34074178Y-60524500D01*
X33375830Y-60524500D01*
X33375812Y-60524501D01*
X33274747Y-60534825D01*
X33110984Y-60589092D01*
X33110981Y-60589093D01*
X32964148Y-60679661D01*
X32962181Y-60681629D01*
X32960497Y-60682548D01*
X32958487Y-60684138D01*
X32958215Y-60683794D01*
X32900858Y-60715114D01*
X32831166Y-60710130D01*
X32775233Y-60668258D01*
X32750816Y-60602794D01*
X32750500Y-60593948D01*
X32750500Y-59213401D01*
X32770185Y-59146362D01*
X32822989Y-59100607D01*
X32892147Y-59090663D01*
X32913499Y-59095693D01*
X33047203Y-59139999D01*
X33149991Y-59150500D01*
X36250008Y-59150499D01*
X36352797Y-59139999D01*
X36519334Y-59084814D01*
X36668656Y-58992712D01*
X36792712Y-58868656D01*
X36884814Y-58719334D01*
X36906042Y-58655270D01*
X36945813Y-58597828D01*
X37010329Y-58571005D01*
X37079105Y-58583320D01*
X37129284Y-58629178D01*
X37179660Y-58710850D01*
X37179661Y-58710851D01*
X37293629Y-58824819D01*
X37327114Y-58886142D01*
X37322130Y-58955834D01*
X37293629Y-59000181D01*
X37179661Y-59114148D01*
X37089093Y-59260981D01*
X37089091Y-59260986D01*
X37087084Y-59267044D01*
X37034826Y-59424747D01*
X37034826Y-59424748D01*
X37034825Y-59424748D01*
X37024500Y-59525815D01*
X37024500Y-60124169D01*
X37024501Y-60124187D01*
X37034825Y-60225252D01*
X37054189Y-60283686D01*
X37089092Y-60389016D01*
X37179660Y-60535850D01*
X37301650Y-60657840D01*
X37448484Y-60748408D01*
X37612247Y-60802674D01*
X37713323Y-60813000D01*
X38286676Y-60812999D01*
X38286684Y-60812998D01*
X38286687Y-60812998D01*
X38342030Y-60807344D01*
X38387753Y-60802674D01*
X38551516Y-60748408D01*
X38698350Y-60657840D01*
X38744371Y-60611819D01*
X38771298Y-60597115D01*
X38797117Y-60580523D01*
X38803317Y-60579631D01*
X38805694Y-60578334D01*
X38832052Y-60575500D01*
X38947784Y-60575500D01*
X39014823Y-60595185D01*
X39022093Y-60600232D01*
X39025515Y-60602794D01*
X39025521Y-60602797D01*
X39160367Y-60653091D01*
X39160366Y-60653091D01*
X39167294Y-60653835D01*
X39219977Y-60659500D01*
X40268222Y-60659499D01*
X40327833Y-60653091D01*
X40462681Y-60602796D01*
X40577896Y-60516546D01*
X40664146Y-60401331D01*
X40714441Y-60266483D01*
X40720850Y-60206873D01*
X40720849Y-59552328D01*
X40714441Y-59492717D01*
X40699372Y-59452317D01*
X40694389Y-59382627D01*
X40699374Y-59365649D01*
X40713948Y-59326576D01*
X40720349Y-59267044D01*
X40720350Y-59267027D01*
X40720350Y-59189800D01*
X40548564Y-59189800D01*
X40481525Y-59170115D01*
X40474252Y-59165066D01*
X40462681Y-59156404D01*
X40462678Y-59156402D01*
X40327832Y-59106108D01*
X40327833Y-59106108D01*
X40268233Y-59099701D01*
X40268231Y-59099700D01*
X40268223Y-59099700D01*
X40268215Y-59099700D01*
X39902317Y-59099700D01*
X39878127Y-59097317D01*
X39857895Y-59093293D01*
X39843906Y-59090510D01*
X39781996Y-59058123D01*
X39747423Y-58997407D01*
X39744100Y-58968893D01*
X39744100Y-58903899D01*
X39763785Y-58836860D01*
X39816589Y-58791105D01*
X39868098Y-58779899D01*
X40268222Y-58779899D01*
X40327833Y-58773491D01*
X40462681Y-58723196D01*
X40474252Y-58714534D01*
X40539717Y-58690116D01*
X40548564Y-58689800D01*
X40720350Y-58689800D01*
X40720350Y-58612572D01*
X40720349Y-58612555D01*
X40713948Y-58553027D01*
X40713947Y-58553023D01*
X40699373Y-58513948D01*
X40694389Y-58444256D01*
X40699374Y-58427279D01*
X40714439Y-58386888D01*
X40714438Y-58386888D01*
X40714441Y-58386883D01*
X40720850Y-58327273D01*
X40720849Y-57672728D01*
X40714441Y-57613117D01*
X40664146Y-57478269D01*
X40664145Y-57478268D01*
X40664143Y-57478264D01*
X40577897Y-57363055D01*
X40577894Y-57363052D01*
X40462685Y-57276806D01*
X40462678Y-57276802D01*
X40327832Y-57226508D01*
X40327833Y-57226508D01*
X40268233Y-57220101D01*
X40268231Y-57220100D01*
X40268223Y-57220100D01*
X40268214Y-57220100D01*
X39219979Y-57220100D01*
X39219973Y-57220101D01*
X39160366Y-57226508D01*
X39119686Y-57241682D01*
X39114056Y-57242697D01*
X39111288Y-57244477D01*
X39076353Y-57249500D01*
X38874500Y-57249500D01*
X38807461Y-57229815D01*
X38761706Y-57177011D01*
X38750500Y-57125500D01*
X38750500Y-57085434D01*
X38770185Y-57018395D01*
X38822989Y-56972640D01*
X38846824Y-56965461D01*
X38846639Y-56964688D01*
X38851365Y-56963553D01*
X38851368Y-56963553D01*
X39075992Y-56890568D01*
X39286433Y-56783343D01*
X39477510Y-56644517D01*
X39644517Y-56477510D01*
X39783343Y-56286433D01*
X39890568Y-56075992D01*
X39963553Y-55851368D01*
X39972871Y-55792539D01*
X40000500Y-55618097D01*
X40000500Y-55381902D01*
X39963553Y-55148631D01*
X39895482Y-54939132D01*
X39890568Y-54924008D01*
X39890566Y-54924005D01*
X39890566Y-54924003D01*
X39783342Y-54713566D01*
X39779497Y-54708274D01*
X39644517Y-54522490D01*
X39477510Y-54355483D01*
X39286433Y-54216657D01*
X39255359Y-54200824D01*
X39075996Y-54109433D01*
X38851368Y-54036446D01*
X38618097Y-53999500D01*
X38618092Y-53999500D01*
X38381908Y-53999500D01*
X38381903Y-53999500D01*
X38148631Y-54036446D01*
X37924003Y-54109433D01*
X37713566Y-54216657D01*
X37617051Y-54286780D01*
X37522490Y-54355483D01*
X37522488Y-54355485D01*
X37522487Y-54355485D01*
X37355485Y-54522487D01*
X37355485Y-54522488D01*
X37355483Y-54522490D01*
X37312038Y-54582287D01*
X37216657Y-54713566D01*
X37109433Y-54924003D01*
X37036446Y-55148631D01*
X36999500Y-55381902D01*
X36999500Y-55618097D01*
X37036446Y-55851368D01*
X37109433Y-56075996D01*
X37216658Y-56286435D01*
X37225816Y-56299039D01*
X37249298Y-56364844D01*
X37249500Y-56371927D01*
X37249500Y-56625500D01*
X37246949Y-56634185D01*
X37248238Y-56643147D01*
X37237259Y-56667187D01*
X37229815Y-56692539D01*
X37222974Y-56698466D01*
X37219213Y-56706703D01*
X37196978Y-56720992D01*
X37177011Y-56738294D01*
X37166496Y-56740581D01*
X37160435Y-56744477D01*
X37125500Y-56749500D01*
X37074499Y-56749500D01*
X37007460Y-56729815D01*
X36961705Y-56677011D01*
X36950499Y-56625500D01*
X36950499Y-56549998D01*
X36950498Y-56549981D01*
X36939999Y-56447203D01*
X36939998Y-56447200D01*
X36894763Y-56310691D01*
X36884814Y-56280666D01*
X36792712Y-56131344D01*
X36668656Y-56007288D01*
X36519407Y-55915231D01*
X36519336Y-55915187D01*
X36519331Y-55915185D01*
X36486494Y-55904304D01*
X36352797Y-55860001D01*
X36352795Y-55860000D01*
X36250016Y-55849500D01*
X36250009Y-55849500D01*
X35574500Y-55849500D01*
X35507461Y-55829815D01*
X35461706Y-55777011D01*
X35450500Y-55725500D01*
X35450500Y-53774499D01*
X35470185Y-53707460D01*
X35522989Y-53661705D01*
X35574500Y-53650499D01*
X36250002Y-53650499D01*
X36250008Y-53650499D01*
X36352797Y-53639999D01*
X36519334Y-53584814D01*
X36668656Y-53492712D01*
X36792712Y-53368656D01*
X36884814Y-53219334D01*
X36939999Y-53052797D01*
X36950500Y-52950009D01*
X36950500Y-52874500D01*
X36970185Y-52807461D01*
X37022989Y-52761706D01*
X37074500Y-52750500D01*
X37573920Y-52750500D01*
X37671462Y-52731096D01*
X37718913Y-52721658D01*
X37855495Y-52665084D01*
X37904729Y-52632186D01*
X37978416Y-52582952D01*
X38234894Y-52326471D01*
X38296215Y-52292988D01*
X38341970Y-52291681D01*
X38397648Y-52300500D01*
X38397649Y-52300500D01*
X38602351Y-52300500D01*
X38602352Y-52300500D01*
X38804534Y-52268477D01*
X38999219Y-52205220D01*
X39181610Y-52112287D01*
X39293953Y-52030666D01*
X39347213Y-51991971D01*
X39347215Y-51991968D01*
X39347219Y-51991966D01*
X39491966Y-51847219D01*
X39491968Y-51847215D01*
X39491971Y-51847213D01*
X39557303Y-51757289D01*
X39612287Y-51681610D01*
X39705220Y-51499219D01*
X39723933Y-51441625D01*
X39754183Y-51392262D01*
X40100000Y-51046445D01*
X40100000Y-51052661D01*
X40127259Y-51154394D01*
X40179920Y-51245606D01*
X40254394Y-51320080D01*
X40345606Y-51372741D01*
X40447339Y-51400000D01*
X40453553Y-51400000D01*
X39774076Y-52079474D01*
X39818650Y-52111859D01*
X40000968Y-52204755D01*
X40195582Y-52267990D01*
X40397683Y-52300000D01*
X40602317Y-52300000D01*
X40804417Y-52267990D01*
X40999031Y-52204755D01*
X41181349Y-52111859D01*
X41225921Y-52079474D01*
X40546447Y-51400000D01*
X40552661Y-51400000D01*
X40654394Y-51372741D01*
X40745606Y-51320080D01*
X40820080Y-51245606D01*
X40872741Y-51154394D01*
X40900000Y-51052661D01*
X40900000Y-51046448D01*
X41579474Y-51725922D01*
X41579474Y-51725921D01*
X41611859Y-51681349D01*
X41704755Y-51499031D01*
X41767990Y-51304417D01*
X41800000Y-51102317D01*
X41800000Y-50897682D01*
X41767990Y-50695582D01*
X41704755Y-50500968D01*
X41611859Y-50318650D01*
X41579474Y-50274077D01*
X41579474Y-50274076D01*
X40900000Y-50953551D01*
X40900000Y-50947339D01*
X40872741Y-50845606D01*
X40820080Y-50754394D01*
X40745606Y-50679920D01*
X40654394Y-50627259D01*
X40552661Y-50600000D01*
X40546446Y-50600000D01*
X41225922Y-49920524D01*
X41225921Y-49920523D01*
X41181359Y-49888147D01*
X41181350Y-49888141D01*
X40999031Y-49795244D01*
X40892859Y-49760747D01*
X40804417Y-49732009D01*
X40602317Y-49700000D01*
X40397683Y-49700000D01*
X40195582Y-49732009D01*
X40000968Y-49795244D01*
X39818644Y-49888143D01*
X39774077Y-49920523D01*
X39774077Y-49920524D01*
X40453554Y-50600000D01*
X40447339Y-50600000D01*
X40345606Y-50627259D01*
X40254394Y-50679920D01*
X40179920Y-50754394D01*
X40127259Y-50845606D01*
X40100000Y-50947339D01*
X40100000Y-50953553D01*
X39754182Y-50607735D01*
X39723932Y-50558372D01*
X39705220Y-50500781D01*
X39612287Y-50318390D01*
X39580092Y-50274077D01*
X39491971Y-50152786D01*
X39347213Y-50008028D01*
X39181613Y-49887715D01*
X39181612Y-49887714D01*
X39181610Y-49887713D01*
X39109494Y-49850968D01*
X38999223Y-49794781D01*
X38804534Y-49731522D01*
X38629995Y-49703878D01*
X38602352Y-49699500D01*
X38397648Y-49699500D01*
X38373329Y-49703351D01*
X38195465Y-49731522D01*
X38000776Y-49794781D01*
X37818386Y-49887715D01*
X37652786Y-50008028D01*
X37508028Y-50152786D01*
X37387715Y-50318386D01*
X37294781Y-50500776D01*
X37231522Y-50695465D01*
X37205168Y-50861861D01*
X37199500Y-50897648D01*
X37199500Y-51102352D01*
X37200094Y-51106106D01*
X37191139Y-51175397D01*
X37146142Y-51228848D01*
X37079390Y-51249487D01*
X37077621Y-51249500D01*
X37074499Y-51249500D01*
X37007460Y-51229815D01*
X36961705Y-51177011D01*
X36950499Y-51125500D01*
X36950499Y-51049998D01*
X36950498Y-51049981D01*
X36939999Y-50947203D01*
X36939998Y-50947200D01*
X36920790Y-50889234D01*
X36884814Y-50780666D01*
X36792712Y-50631344D01*
X36668656Y-50507288D01*
X36519334Y-50415186D01*
X36352797Y-50360001D01*
X36352795Y-50360000D01*
X36250010Y-50349500D01*
X33149998Y-50349500D01*
X33149981Y-50349501D01*
X33047203Y-50360000D01*
X33047200Y-50360001D01*
X32913504Y-50404304D01*
X32843675Y-50406706D01*
X32783634Y-50370974D01*
X32752441Y-50308453D01*
X32750500Y-50286598D01*
X32750500Y-48125013D01*
X50800000Y-48125013D01*
X50800000Y-48250000D01*
X51750000Y-48250000D01*
X52250000Y-48250000D01*
X53199999Y-48250000D01*
X53199999Y-48125028D01*
X53199998Y-48125013D01*
X53189505Y-48022302D01*
X53134358Y-47855880D01*
X53134356Y-47855875D01*
X53042315Y-47706654D01*
X52918345Y-47582684D01*
X52769124Y-47490643D01*
X52769119Y-47490641D01*
X52602697Y-47435494D01*
X52602690Y-47435493D01*
X52499986Y-47425000D01*
X52250000Y-47425000D01*
X52250000Y-48250000D01*
X51750000Y-48250000D01*
X51750000Y-47425000D01*
X51500029Y-47425000D01*
X51500012Y-47425001D01*
X51397302Y-47435494D01*
X51230880Y-47490641D01*
X51230875Y-47490643D01*
X51081654Y-47582684D01*
X50957684Y-47706654D01*
X50865643Y-47855875D01*
X50865641Y-47855880D01*
X50810494Y-48022302D01*
X50810493Y-48022309D01*
X50800000Y-48125013D01*
X32750500Y-48125013D01*
X32750500Y-38382138D01*
X37502500Y-38382138D01*
X37502500Y-38617861D01*
X37539372Y-38850666D01*
X37612213Y-39074845D01*
X37719225Y-39284864D01*
X37779128Y-39367315D01*
X37779130Y-39367316D01*
X38387477Y-38758969D01*
X38410684Y-38814996D01*
X38483461Y-38923913D01*
X38576087Y-39016539D01*
X38685004Y-39089316D01*
X38741029Y-39112522D01*
X38132682Y-39720868D01*
X38215138Y-39780776D01*
X38425154Y-39887786D01*
X38649333Y-39960627D01*
X38882139Y-39997500D01*
X39117861Y-39997500D01*
X39350666Y-39960627D01*
X39574845Y-39887786D01*
X39784853Y-39780780D01*
X39784859Y-39780776D01*
X39867315Y-39720868D01*
X39867316Y-39720868D01*
X39258969Y-39112522D01*
X39314996Y-39089316D01*
X39423913Y-39016539D01*
X39516539Y-38923913D01*
X39589316Y-38814996D01*
X39612522Y-38758970D01*
X40220868Y-39367316D01*
X40220868Y-39367315D01*
X40280776Y-39284859D01*
X40280780Y-39284853D01*
X40387786Y-39074845D01*
X40460627Y-38850666D01*
X40497500Y-38617861D01*
X40497500Y-38382138D01*
X40460627Y-38149333D01*
X40387786Y-37925154D01*
X40280776Y-37715138D01*
X40220868Y-37632683D01*
X40220868Y-37632682D01*
X39612522Y-38241029D01*
X39589316Y-38185004D01*
X39516539Y-38076087D01*
X39423913Y-37983461D01*
X39314996Y-37910684D01*
X39258968Y-37887476D01*
X39867316Y-37279130D01*
X39867315Y-37279128D01*
X39784864Y-37219225D01*
X39574845Y-37112213D01*
X39350666Y-37039372D01*
X39117861Y-37002500D01*
X38882139Y-37002500D01*
X38649333Y-37039372D01*
X38425154Y-37112213D01*
X38215142Y-37219221D01*
X38132683Y-37279130D01*
X38132683Y-37279131D01*
X38741030Y-37887477D01*
X38685004Y-37910684D01*
X38576087Y-37983461D01*
X38483461Y-38076087D01*
X38410684Y-38185004D01*
X38387477Y-38241030D01*
X37779131Y-37632683D01*
X37779130Y-37632683D01*
X37719221Y-37715142D01*
X37612213Y-37925154D01*
X37539372Y-38149333D01*
X37502500Y-38382138D01*
X32750500Y-38382138D01*
X32750500Y-35926079D01*
X32721659Y-35781092D01*
X32721658Y-35781091D01*
X32721658Y-35781087D01*
X32718930Y-35774500D01*
X32665087Y-35644511D01*
X32665080Y-35644498D01*
X32582952Y-35521585D01*
X32562383Y-35501016D01*
X32478416Y-35417049D01*
X31914286Y-34852919D01*
X31286819Y-34225451D01*
X31253334Y-34164128D01*
X31250500Y-34137770D01*
X31250500Y-29047844D01*
X45300000Y-29047844D01*
X45306401Y-29107372D01*
X45306403Y-29107379D01*
X45356645Y-29242086D01*
X45356649Y-29242093D01*
X45442809Y-29357187D01*
X45442812Y-29357190D01*
X45557906Y-29443350D01*
X45557913Y-29443354D01*
X45692620Y-29493596D01*
X45692627Y-29493598D01*
X45752155Y-29499999D01*
X45752172Y-29500000D01*
X46950000Y-29500000D01*
X47450000Y-29500000D01*
X48647828Y-29500000D01*
X48647844Y-29499999D01*
X48707372Y-29493598D01*
X48707379Y-29493596D01*
X48842086Y-29443354D01*
X48842093Y-29443350D01*
X48957187Y-29357190D01*
X48957190Y-29357187D01*
X49043350Y-29242093D01*
X49043354Y-29242086D01*
X49093596Y-29107379D01*
X49093598Y-29107372D01*
X49099999Y-29047844D01*
X51100000Y-29047844D01*
X51106401Y-29107372D01*
X51106403Y-29107379D01*
X51156645Y-29242086D01*
X51156649Y-29242093D01*
X51242809Y-29357187D01*
X51242812Y-29357190D01*
X51357906Y-29443350D01*
X51357913Y-29443354D01*
X51492620Y-29493596D01*
X51492627Y-29493598D01*
X51552155Y-29499999D01*
X51552172Y-29500000D01*
X52750000Y-29500000D01*
X52750000Y-28750000D01*
X51100000Y-28750000D01*
X51100000Y-29047844D01*
X49099999Y-29047844D01*
X49100000Y-29047819D01*
X49100000Y-28750000D01*
X47450000Y-28750000D01*
X47450000Y-29500000D01*
X46950000Y-29500000D01*
X46950000Y-28750000D01*
X45300000Y-28750000D01*
X45300000Y-29047844D01*
X31250500Y-29047844D01*
X31250500Y-28518088D01*
X31270185Y-28451049D01*
X31322989Y-28405294D01*
X31392147Y-28395350D01*
X31429031Y-28408723D01*
X31429649Y-28407399D01*
X31436199Y-28410453D01*
X31599847Y-28464680D01*
X31700851Y-28474999D01*
X32250000Y-28474999D01*
X32299140Y-28474999D01*
X32299154Y-28474998D01*
X32400152Y-28464680D01*
X32563800Y-28410453D01*
X32563811Y-28410448D01*
X32710534Y-28319947D01*
X32710538Y-28319944D01*
X32832444Y-28198038D01*
X32832447Y-28198034D01*
X32922948Y-28051311D01*
X32922953Y-28051300D01*
X32955806Y-27952155D01*
X45300000Y-27952155D01*
X45300000Y-28250000D01*
X46950000Y-28250000D01*
X47450000Y-28250000D01*
X49100000Y-28250000D01*
X49100000Y-27952172D01*
X49099999Y-27952155D01*
X51100000Y-27952155D01*
X51100000Y-28250000D01*
X52750000Y-28250000D01*
X52750000Y-27500000D01*
X53250000Y-27500000D01*
X53250000Y-29500000D01*
X54447828Y-29500000D01*
X54447844Y-29499999D01*
X54507372Y-29493598D01*
X54507379Y-29493596D01*
X54642086Y-29443354D01*
X54642093Y-29443350D01*
X54757187Y-29357190D01*
X54757190Y-29357187D01*
X54843350Y-29242093D01*
X54843354Y-29242086D01*
X54893596Y-29107379D01*
X54893598Y-29107372D01*
X54899999Y-29047844D01*
X54900000Y-29047819D01*
X54900000Y-29035023D01*
X54919685Y-28967984D01*
X54972489Y-28922229D01*
X55041647Y-28912285D01*
X55105203Y-28941310D01*
X55111681Y-28947342D01*
X55206654Y-29042315D01*
X55355875Y-29134356D01*
X55355880Y-29134358D01*
X55522302Y-29189505D01*
X55522309Y-29189506D01*
X55625019Y-29199999D01*
X55749999Y-29199999D01*
X55750000Y-29199998D01*
X55750000Y-26800000D01*
X55625027Y-26800000D01*
X55625012Y-26800001D01*
X55522302Y-26810494D01*
X55355880Y-26865641D01*
X55355875Y-26865643D01*
X55206654Y-26957684D01*
X55082684Y-27081654D01*
X54990643Y-27230875D01*
X54990641Y-27230880D01*
X54935494Y-27397302D01*
X54935493Y-27397309D01*
X54925000Y-27500013D01*
X54925000Y-27520712D01*
X54905315Y-27587751D01*
X54852511Y-27633506D01*
X54783353Y-27643450D01*
X54726689Y-27619978D01*
X54642093Y-27556649D01*
X54642086Y-27556645D01*
X54507379Y-27506403D01*
X54507372Y-27506401D01*
X54447844Y-27500000D01*
X53250000Y-27500000D01*
X52750000Y-27500000D01*
X51552155Y-27500000D01*
X51492627Y-27506401D01*
X51492620Y-27506403D01*
X51357913Y-27556645D01*
X51357906Y-27556649D01*
X51242812Y-27642809D01*
X51242809Y-27642812D01*
X51156649Y-27757906D01*
X51156645Y-27757913D01*
X51106403Y-27892620D01*
X51106401Y-27892627D01*
X51100000Y-27952155D01*
X49099999Y-27952155D01*
X49093598Y-27892627D01*
X49093596Y-27892620D01*
X49043354Y-27757913D01*
X49043350Y-27757906D01*
X48957190Y-27642812D01*
X48957187Y-27642809D01*
X48842093Y-27556649D01*
X48842086Y-27556645D01*
X48707379Y-27506403D01*
X48707372Y-27506401D01*
X48647844Y-27500000D01*
X47450000Y-27500000D01*
X47450000Y-28250000D01*
X46950000Y-28250000D01*
X46950000Y-27500000D01*
X45752155Y-27500000D01*
X45692627Y-27506401D01*
X45692620Y-27506403D01*
X45557913Y-27556645D01*
X45557906Y-27556649D01*
X45442812Y-27642809D01*
X45442809Y-27642812D01*
X45356649Y-27757906D01*
X45356645Y-27757913D01*
X45306403Y-27892620D01*
X45306401Y-27892627D01*
X45300000Y-27952155D01*
X32955806Y-27952155D01*
X32969826Y-27909847D01*
X32969826Y-27909846D01*
X32977181Y-27887650D01*
X32987499Y-27786654D01*
X32987500Y-27786641D01*
X32987500Y-27750000D01*
X32250000Y-27750000D01*
X32250000Y-28474999D01*
X31700851Y-28474999D01*
X31749999Y-28474998D01*
X31750000Y-28474998D01*
X31750000Y-27624000D01*
X31769685Y-27556961D01*
X31822489Y-27511206D01*
X31874000Y-27500000D01*
X32000000Y-27500000D01*
X32000000Y-27374000D01*
X32019685Y-27306961D01*
X32072489Y-27261206D01*
X32124000Y-27250000D01*
X32987499Y-27250000D01*
X32987499Y-27213360D01*
X32987498Y-27213345D01*
X32977180Y-27112347D01*
X32922953Y-26948699D01*
X32922951Y-26948694D01*
X32917339Y-26939596D01*
X32908194Y-26906174D01*
X32898889Y-26872852D01*
X32898988Y-26872529D01*
X32898899Y-26872203D01*
X32909252Y-26839216D01*
X32919462Y-26806079D01*
X32919721Y-26805860D01*
X32919822Y-26805540D01*
X32946322Y-26783422D01*
X32972870Y-26761030D01*
X32973247Y-26760950D01*
X32973464Y-26760770D01*
X33006863Y-26751538D01*
X33014839Y-26750499D01*
X33092872Y-26750499D01*
X33152483Y-26744091D01*
X33199937Y-26726391D01*
X33213985Y-26724562D01*
X33235067Y-26727879D01*
X33256358Y-26726357D01*
X33273327Y-26731338D01*
X33307517Y-26744091D01*
X33367127Y-26750500D01*
X34362872Y-26750499D01*
X34422483Y-26744091D01*
X34456667Y-26731340D01*
X34526358Y-26726357D01*
X34543327Y-26731338D01*
X34577517Y-26744091D01*
X34637127Y-26750500D01*
X35632872Y-26750499D01*
X35692483Y-26744091D01*
X35726667Y-26731340D01*
X35796358Y-26726357D01*
X35813327Y-26731338D01*
X35847517Y-26744091D01*
X35907127Y-26750500D01*
X36902872Y-26750499D01*
X36962483Y-26744091D01*
X36996667Y-26731340D01*
X37066358Y-26726357D01*
X37083327Y-26731338D01*
X37117517Y-26744091D01*
X37177127Y-26750500D01*
X38172872Y-26750499D01*
X38232483Y-26744091D01*
X38266667Y-26731340D01*
X38336358Y-26726357D01*
X38353327Y-26731338D01*
X38387517Y-26744091D01*
X38447127Y-26750500D01*
X39442872Y-26750499D01*
X39502483Y-26744091D01*
X39536667Y-26731340D01*
X39606358Y-26726357D01*
X39623327Y-26731338D01*
X39657517Y-26744091D01*
X39717127Y-26750500D01*
X40712872Y-26750499D01*
X40772483Y-26744091D01*
X40806667Y-26731340D01*
X40876358Y-26726357D01*
X40893327Y-26731338D01*
X40927517Y-26744091D01*
X40987127Y-26750500D01*
X41982872Y-26750499D01*
X42042483Y-26744091D01*
X42177331Y-26693796D01*
X42292546Y-26607546D01*
X42378796Y-26492331D01*
X42429091Y-26357483D01*
X42435500Y-26297873D01*
X42435499Y-25324498D01*
X42455183Y-25257460D01*
X42507987Y-25211705D01*
X42559494Y-25200499D01*
X44047872Y-25200499D01*
X44107483Y-25194091D01*
X44242331Y-25143796D01*
X44357546Y-25057546D01*
X44437914Y-24950188D01*
X44493847Y-24908318D01*
X44537180Y-24900500D01*
X45175501Y-24900500D01*
X45242540Y-24920185D01*
X45288295Y-24972989D01*
X45299501Y-25024500D01*
X45299501Y-25047876D01*
X45305908Y-25107483D01*
X45356202Y-25242328D01*
X45356206Y-25242335D01*
X45442452Y-25357544D01*
X45442455Y-25357547D01*
X45557664Y-25443793D01*
X45557671Y-25443797D01*
X45692517Y-25494091D01*
X45692516Y-25494091D01*
X45699444Y-25494835D01*
X45752127Y-25500500D01*
X48647872Y-25500499D01*
X48707483Y-25494091D01*
X48842331Y-25443796D01*
X48957546Y-25357546D01*
X49043796Y-25242331D01*
X49047960Y-25231165D01*
X49089829Y-25175234D01*
X49155293Y-25150816D01*
X49164141Y-25150500D01*
X51035859Y-25150500D01*
X51102898Y-25170185D01*
X51148653Y-25222989D01*
X51152030Y-25231140D01*
X51156204Y-25242331D01*
X51156205Y-25242332D01*
X51156206Y-25242335D01*
X51242452Y-25357544D01*
X51242455Y-25357547D01*
X51357664Y-25443793D01*
X51357671Y-25443797D01*
X51492517Y-25494091D01*
X51492516Y-25494091D01*
X51499444Y-25494835D01*
X51552127Y-25500500D01*
X54447872Y-25500499D01*
X54507483Y-25494091D01*
X54642331Y-25443796D01*
X54757546Y-25357546D01*
X54843796Y-25242331D01*
X54847960Y-25231165D01*
X54861228Y-25213441D01*
X54870428Y-25193297D01*
X54881758Y-25186015D01*
X54889829Y-25175234D01*
X54910577Y-25167495D01*
X54929206Y-25155523D01*
X54951121Y-25152371D01*
X54955293Y-25150816D01*
X54964141Y-25150500D01*
X55069292Y-25150500D01*
X55136331Y-25170185D01*
X55161915Y-25193380D01*
X55162053Y-25193243D01*
X55164852Y-25196042D01*
X55166555Y-25197586D01*
X55167155Y-25198345D01*
X55167160Y-25198350D01*
X55289150Y-25320340D01*
X55435984Y-25410908D01*
X55599747Y-25465174D01*
X55700823Y-25475500D01*
X56299176Y-25475499D01*
X56299184Y-25475498D01*
X56299187Y-25475498D01*
X56354530Y-25469844D01*
X56400253Y-25465174D01*
X56564016Y-25410908D01*
X56710850Y-25320340D01*
X56824819Y-25206371D01*
X56831695Y-25202616D01*
X56836268Y-25196253D01*
X56861928Y-25186107D01*
X56886142Y-25172886D01*
X56893956Y-25173444D01*
X56901243Y-25170564D01*
X56928313Y-25175901D01*
X56955834Y-25177870D01*
X56963843Y-25182907D01*
X56969793Y-25184081D01*
X56994367Y-25202106D01*
X56998454Y-25204677D01*
X56999316Y-25205506D01*
X57114150Y-25320340D01*
X57126890Y-25328198D01*
X57136454Y-25337396D01*
X57147472Y-25356671D01*
X57162321Y-25373180D01*
X57165892Y-25388893D01*
X57171129Y-25398055D01*
X57170542Y-25409355D01*
X57174500Y-25426771D01*
X57174500Y-26987770D01*
X57154815Y-27054809D01*
X57138181Y-27075451D01*
X57132288Y-27081343D01*
X57132283Y-27081349D01*
X57130241Y-27084661D01*
X57128247Y-27086453D01*
X57127807Y-27087011D01*
X57127711Y-27086935D01*
X57078291Y-27131383D01*
X57009328Y-27142602D01*
X56945247Y-27114755D01*
X56919168Y-27084656D01*
X56917319Y-27081659D01*
X56917316Y-27081655D01*
X56793345Y-26957684D01*
X56644124Y-26865643D01*
X56644119Y-26865641D01*
X56477697Y-26810494D01*
X56477690Y-26810493D01*
X56374986Y-26800000D01*
X56250000Y-26800000D01*
X56250000Y-29199999D01*
X56374972Y-29199999D01*
X56374986Y-29199998D01*
X56477697Y-29189505D01*
X56644119Y-29134358D01*
X56644124Y-29134356D01*
X56793345Y-29042315D01*
X56917318Y-28918342D01*
X56919165Y-28915348D01*
X56920969Y-28913724D01*
X56921798Y-28912677D01*
X56921976Y-28912818D01*
X56971110Y-28868621D01*
X57040073Y-28857396D01*
X57104156Y-28885236D01*
X57130243Y-28915341D01*
X57132288Y-28918656D01*
X57256344Y-29042712D01*
X57405666Y-29134814D01*
X57572203Y-29189999D01*
X57674991Y-29200500D01*
X58425008Y-29200499D01*
X58425016Y-29200498D01*
X58425019Y-29200498D01*
X58481302Y-29194748D01*
X58527797Y-29189999D01*
X58694334Y-29134814D01*
X58843656Y-29042712D01*
X58967712Y-28918656D01*
X59059814Y-28769334D01*
X59114999Y-28602797D01*
X59125500Y-28500009D01*
X59125499Y-27499992D01*
X59118982Y-27436199D01*
X59114999Y-27397203D01*
X59114998Y-27397200D01*
X59087769Y-27315029D01*
X59059814Y-27230666D01*
X58967712Y-27081344D01*
X58843656Y-26957288D01*
X58706239Y-26872529D01*
X58694336Y-26865187D01*
X58694335Y-26865186D01*
X58694334Y-26865186D01*
X58560495Y-26820836D01*
X58503051Y-26781063D01*
X58476228Y-26716547D01*
X58475500Y-26703130D01*
X58475500Y-25426771D01*
X58495185Y-25359732D01*
X58530429Y-25325132D01*
X58530183Y-25324821D01*
X58533082Y-25322528D01*
X58534401Y-25321233D01*
X58535850Y-25320340D01*
X58657840Y-25198350D01*
X58748408Y-25051516D01*
X58802674Y-24887753D01*
X58813000Y-24786677D01*
X58812999Y-24213324D01*
X58802674Y-24112247D01*
X58748408Y-23948484D01*
X58657840Y-23801650D01*
X58535850Y-23679660D01*
X58405378Y-23599184D01*
X58389018Y-23589093D01*
X58389013Y-23589091D01*
X58336437Y-23571669D01*
X58225253Y-23534826D01*
X58225251Y-23534825D01*
X58124178Y-23524500D01*
X57525830Y-23524500D01*
X57525812Y-23524501D01*
X57424747Y-23534825D01*
X57260984Y-23589092D01*
X57260981Y-23589093D01*
X57114148Y-23679661D01*
X57000181Y-23793629D01*
X56938858Y-23827114D01*
X56869166Y-23822130D01*
X56824819Y-23793629D01*
X56710851Y-23679661D01*
X56710850Y-23679660D01*
X56580378Y-23599184D01*
X56564018Y-23589093D01*
X56564013Y-23589091D01*
X56511437Y-23571669D01*
X56400253Y-23534826D01*
X56400251Y-23534825D01*
X56299178Y-23524500D01*
X55700830Y-23524500D01*
X55700812Y-23524501D01*
X55599747Y-23534825D01*
X55435984Y-23589092D01*
X55435981Y-23589093D01*
X55289148Y-23679661D01*
X55167155Y-23801654D01*
X55166555Y-23802414D01*
X55166010Y-23802799D01*
X55163759Y-23805050D01*
X55163005Y-23806703D01*
X55135854Y-23824151D01*
X55109532Y-23842789D01*
X55105914Y-23843392D01*
X55104227Y-23844477D01*
X55069292Y-23849500D01*
X54964141Y-23849500D01*
X54897102Y-23829815D01*
X54851347Y-23777011D01*
X54847969Y-23768859D01*
X54843796Y-23757669D01*
X54843793Y-23757665D01*
X54843793Y-23757664D01*
X54757547Y-23642455D01*
X54757544Y-23642452D01*
X54642335Y-23556206D01*
X54642328Y-23556202D01*
X54507482Y-23505908D01*
X54507483Y-23505908D01*
X54447883Y-23499501D01*
X54447881Y-23499500D01*
X54447873Y-23499500D01*
X54447864Y-23499500D01*
X51552129Y-23499500D01*
X51552123Y-23499501D01*
X51492516Y-23505908D01*
X51357671Y-23556202D01*
X51357664Y-23556206D01*
X51242455Y-23642452D01*
X51242452Y-23642455D01*
X51156206Y-23757664D01*
X51156204Y-23757668D01*
X51156204Y-23757669D01*
X51152039Y-23768834D01*
X51110171Y-23824766D01*
X51044707Y-23849184D01*
X51035859Y-23849500D01*
X49164141Y-23849500D01*
X49097102Y-23829815D01*
X49051347Y-23777011D01*
X49047969Y-23768859D01*
X49043796Y-23757669D01*
X49043793Y-23757665D01*
X49043793Y-23757664D01*
X48957547Y-23642455D01*
X48957544Y-23642452D01*
X48842335Y-23556206D01*
X48842328Y-23556202D01*
X48707482Y-23505908D01*
X48707483Y-23505908D01*
X48647883Y-23499501D01*
X48647881Y-23499500D01*
X48647873Y-23499500D01*
X48647864Y-23499500D01*
X45752129Y-23499500D01*
X45752123Y-23499501D01*
X45692516Y-23505908D01*
X45557671Y-23556202D01*
X45557668Y-23556204D01*
X45532872Y-23574767D01*
X45467408Y-23599184D01*
X45458561Y-23599500D01*
X44624500Y-23599500D01*
X44557461Y-23579815D01*
X44511706Y-23527011D01*
X44500500Y-23475500D01*
X44500499Y-22482129D01*
X44500498Y-22482123D01*
X44500497Y-22482116D01*
X44494091Y-22422517D01*
X44481340Y-22388332D01*
X44476357Y-22318642D01*
X44481340Y-22301669D01*
X44494091Y-22267483D01*
X44500500Y-22207873D01*
X44500499Y-21212128D01*
X44494091Y-21152517D01*
X44481340Y-21118332D01*
X44476357Y-21048642D01*
X44481340Y-21031669D01*
X44494091Y-20997483D01*
X44500500Y-20937873D01*
X44500499Y-19942128D01*
X44494091Y-19882517D01*
X44481340Y-19848332D01*
X44476357Y-19778642D01*
X44481340Y-19761669D01*
X44494091Y-19727483D01*
X44500500Y-19667873D01*
X44500499Y-18672128D01*
X44494091Y-18612517D01*
X44481340Y-18578332D01*
X44476357Y-18508642D01*
X44481340Y-18491669D01*
X44494091Y-18457483D01*
X44500500Y-18397873D01*
X44500499Y-17402128D01*
X44494091Y-17342517D01*
X44481340Y-17308332D01*
X44476357Y-17238642D01*
X44481340Y-17221669D01*
X44494091Y-17187483D01*
X44500500Y-17127873D01*
X44500499Y-16132128D01*
X44494091Y-16072517D01*
X44481340Y-16038332D01*
X44476357Y-15968642D01*
X44481340Y-15951669D01*
X44494091Y-15917483D01*
X44500500Y-15857873D01*
X44500499Y-15713389D01*
X44520183Y-15646352D01*
X44572987Y-15600597D01*
X44642145Y-15590653D01*
X44705701Y-15619678D01*
G37*
%TD.AperFunction*%
%TA.AperFunction,Conductor*%
G36*
X24193039Y-57844685D02*
G01*
X24238794Y-57897489D01*
X24250000Y-57949000D01*
X24250000Y-58812499D01*
X24286640Y-58812499D01*
X24286654Y-58812498D01*
X24387652Y-58802180D01*
X24551300Y-58747953D01*
X24551311Y-58747948D01*
X24698034Y-58657447D01*
X24698038Y-58657444D01*
X24819945Y-58535537D01*
X24863214Y-58465387D01*
X24915162Y-58418662D01*
X24984124Y-58407439D01*
X25040050Y-58429030D01*
X25048837Y-58435205D01*
X25081344Y-58467712D01*
X25193755Y-58537047D01*
X25196797Y-58539185D01*
X25216343Y-58563724D01*
X25237321Y-58587047D01*
X25238278Y-58591262D01*
X25240329Y-58593836D01*
X25241517Y-58605511D01*
X25249500Y-58640638D01*
X25249500Y-59125500D01*
X25229815Y-59192539D01*
X25177011Y-59238294D01*
X25125500Y-59249500D01*
X22974498Y-59249500D01*
X22907459Y-59229815D01*
X22861704Y-59177011D01*
X22850498Y-59125500D01*
X22850498Y-58435487D01*
X22870183Y-58368448D01*
X22922987Y-58322693D01*
X22992145Y-58312749D01*
X23055701Y-58341774D01*
X23086883Y-58383088D01*
X23089550Y-58388810D01*
X23180052Y-58535534D01*
X23180055Y-58535538D01*
X23301961Y-58657444D01*
X23301965Y-58657447D01*
X23448688Y-58747948D01*
X23448699Y-58747953D01*
X23612347Y-58802180D01*
X23713352Y-58812499D01*
X23750000Y-58812499D01*
X23750000Y-57949000D01*
X23769685Y-57881961D01*
X23822489Y-57836206D01*
X23874000Y-57825000D01*
X24126000Y-57825000D01*
X24193039Y-57844685D01*
G37*
%TD.AperFunction*%
%TA.AperFunction,Conductor*%
G36*
X23055701Y-56517963D02*
G01*
X23086883Y-56559276D01*
X23089090Y-56564011D01*
X23089092Y-56564016D01*
X23172021Y-56698466D01*
X23179661Y-56710851D01*
X23293982Y-56825172D01*
X23327467Y-56886495D01*
X23322483Y-56956187D01*
X23293983Y-57000534D01*
X23180052Y-57114465D01*
X23089549Y-57261192D01*
X23086881Y-57266915D01*
X23040710Y-57319355D01*
X22973516Y-57338508D01*
X22906635Y-57318294D01*
X22861299Y-57265129D01*
X22850498Y-57214512D01*
X22850498Y-56611676D01*
X22870183Y-56544637D01*
X22922987Y-56498882D01*
X22992145Y-56488938D01*
X23055701Y-56517963D01*
G37*
%TD.AperFunction*%
%TA.AperFunction,Conductor*%
G36*
X24467202Y-24901786D02*
G01*
X24471665Y-24900816D01*
X24500421Y-24911541D01*
X24529859Y-24920185D01*
X24534043Y-24924080D01*
X24537130Y-24925232D01*
X24562085Y-24950187D01*
X24642454Y-25057546D01*
X24658022Y-25069200D01*
X24757664Y-25143793D01*
X24757671Y-25143797D01*
X24892517Y-25194091D01*
X24892516Y-25194091D01*
X24899444Y-25194835D01*
X24952127Y-25200500D01*
X26440500Y-25200499D01*
X26507539Y-25220184D01*
X26553294Y-25272987D01*
X26564500Y-25324499D01*
X26564500Y-26297870D01*
X26564501Y-26297876D01*
X26570908Y-26357483D01*
X26621202Y-26492328D01*
X26621206Y-26492335D01*
X26707452Y-26607544D01*
X26707455Y-26607547D01*
X26822664Y-26693793D01*
X26822671Y-26693797D01*
X26957517Y-26744091D01*
X26957516Y-26744091D01*
X26964444Y-26744835D01*
X27017127Y-26750500D01*
X28012872Y-26750499D01*
X28072483Y-26744091D01*
X28106667Y-26731340D01*
X28176358Y-26726357D01*
X28193327Y-26731338D01*
X28227517Y-26744091D01*
X28287127Y-26750500D01*
X29151535Y-26750499D01*
X29218574Y-26770183D01*
X29264329Y-26822987D01*
X29274273Y-26892146D01*
X29257076Y-26939592D01*
X29251596Y-26948476D01*
X29251591Y-26948486D01*
X29248674Y-26957289D01*
X29197326Y-27112247D01*
X29197326Y-27112248D01*
X29197325Y-27112248D01*
X29187000Y-27213315D01*
X29187000Y-27786669D01*
X29187001Y-27786687D01*
X29197325Y-27887752D01*
X29218667Y-27952155D01*
X29251520Y-28051300D01*
X29251592Y-28051515D01*
X29251593Y-28051518D01*
X29257804Y-28061588D01*
X29342160Y-28198350D01*
X29464150Y-28320340D01*
X29610984Y-28410908D01*
X29664503Y-28428642D01*
X29721948Y-28468414D01*
X29748772Y-28532930D01*
X29749500Y-28546348D01*
X29749500Y-34573918D01*
X29749500Y-34573920D01*
X29749499Y-34573920D01*
X29778340Y-34718907D01*
X29778343Y-34718917D01*
X29834912Y-34855488D01*
X29834920Y-34855502D01*
X29864068Y-34899124D01*
X29864069Y-34899127D01*
X29864070Y-34899127D01*
X29915374Y-34975911D01*
X29917051Y-34978420D01*
X29917052Y-34978421D01*
X31213181Y-36274548D01*
X31246666Y-36335871D01*
X31249500Y-36362229D01*
X31249500Y-50286598D01*
X31229815Y-50353637D01*
X31177011Y-50399392D01*
X31107853Y-50409336D01*
X31086497Y-50404304D01*
X30952799Y-50360001D01*
X30952795Y-50360000D01*
X30850016Y-50349500D01*
X30850009Y-50349500D01*
X28762230Y-50349500D01*
X28695191Y-50329815D01*
X28674549Y-50313181D01*
X26128421Y-47767052D01*
X26128414Y-47767046D01*
X26054729Y-47717812D01*
X26054729Y-47717813D01*
X26005491Y-47684913D01*
X25868917Y-47628343D01*
X25868907Y-47628340D01*
X25723920Y-47599500D01*
X25723918Y-47599500D01*
X22573918Y-47599500D01*
X22073918Y-47599500D01*
X20125418Y-47599500D01*
X20058379Y-47579815D01*
X20025100Y-47548385D01*
X19991971Y-47502787D01*
X19991967Y-47502782D01*
X19847213Y-47358028D01*
X19681613Y-47237715D01*
X19681612Y-47237714D01*
X19681610Y-47237713D01*
X19624653Y-47208691D01*
X19499223Y-47144781D01*
X19304534Y-47081522D01*
X19129995Y-47053878D01*
X19102352Y-47049500D01*
X18897648Y-47049500D01*
X18873329Y-47053351D01*
X18695465Y-47081522D01*
X18500776Y-47144781D01*
X18318386Y-47237715D01*
X18152786Y-47358028D01*
X18008028Y-47502786D01*
X17887715Y-47668385D01*
X17880883Y-47681795D01*
X17832909Y-47732591D01*
X17770398Y-47749500D01*
X16508189Y-47749500D01*
X16441150Y-47729815D01*
X16395395Y-47677011D01*
X16385451Y-47607853D01*
X16414476Y-47544297D01*
X16435303Y-47525182D01*
X16436144Y-47524571D01*
X16477510Y-47494517D01*
X16644517Y-47327510D01*
X16783343Y-47136433D01*
X16890568Y-46925992D01*
X16963553Y-46701368D01*
X16966489Y-46682833D01*
X17000500Y-46468097D01*
X17000500Y-46231902D01*
X16963553Y-45998631D01*
X16890566Y-45774003D01*
X16783342Y-45563566D01*
X16735127Y-45497204D01*
X16644517Y-45372490D01*
X16477510Y-45205483D01*
X16286433Y-45066657D01*
X16286432Y-45066656D01*
X16286430Y-45066655D01*
X16218204Y-45031891D01*
X16167408Y-44983916D01*
X16150500Y-44921407D01*
X16150500Y-39820807D01*
X16170185Y-39753768D01*
X16186814Y-39733131D01*
X18465310Y-37454635D01*
X27502000Y-37454635D01*
X27502000Y-39545370D01*
X27502001Y-39545376D01*
X27508408Y-39604983D01*
X27558702Y-39739828D01*
X27558706Y-39739835D01*
X27644952Y-39855044D01*
X27644955Y-39855047D01*
X27760164Y-39941293D01*
X27760171Y-39941297D01*
X27895017Y-39991591D01*
X27895016Y-39991591D01*
X27901944Y-39992335D01*
X27954627Y-39998000D01*
X30045372Y-39997999D01*
X30104983Y-39991591D01*
X30239831Y-39941296D01*
X30355046Y-39855046D01*
X30441296Y-39739831D01*
X30491591Y-39604983D01*
X30498000Y-39545373D01*
X30497999Y-37454628D01*
X30491591Y-37395017D01*
X30489485Y-37389371D01*
X30441297Y-37260171D01*
X30441293Y-37260164D01*
X30355047Y-37144955D01*
X30355044Y-37144952D01*
X30239835Y-37058706D01*
X30239828Y-37058702D01*
X30104982Y-37008408D01*
X30104983Y-37008408D01*
X30045383Y-37002001D01*
X30045381Y-37002000D01*
X30045373Y-37002000D01*
X30045364Y-37002000D01*
X27954629Y-37002000D01*
X27954623Y-37002001D01*
X27895016Y-37008408D01*
X27760171Y-37058702D01*
X27760164Y-37058706D01*
X27644955Y-37144952D01*
X27644952Y-37144955D01*
X27558706Y-37260164D01*
X27558702Y-37260171D01*
X27508408Y-37395017D01*
X27502001Y-37454616D01*
X27502001Y-37454623D01*
X27502000Y-37454635D01*
X18465310Y-37454635D01*
X20908127Y-35011817D01*
X20969450Y-34978333D01*
X20995808Y-34975499D01*
X21349170Y-34975499D01*
X21349176Y-34975499D01*
X21450253Y-34965174D01*
X21614016Y-34910908D01*
X21760850Y-34820340D01*
X21882840Y-34698350D01*
X21973408Y-34551516D01*
X22027674Y-34387753D01*
X22038000Y-34286677D01*
X22037999Y-34193549D01*
X22057683Y-34126513D01*
X22110486Y-34080757D01*
X22179645Y-34070813D01*
X22243201Y-34099837D01*
X22249680Y-34105870D01*
X22301650Y-34157840D01*
X22448484Y-34248408D01*
X22612247Y-34302674D01*
X22713323Y-34313000D01*
X23286676Y-34312999D01*
X23286684Y-34312998D01*
X23286687Y-34312998D01*
X23342030Y-34307344D01*
X23387753Y-34302674D01*
X23551516Y-34248408D01*
X23698350Y-34157840D01*
X23820340Y-34035850D01*
X23910908Y-33889016D01*
X23965174Y-33725253D01*
X23975500Y-33624177D01*
X23975499Y-33025824D01*
X23974524Y-33016283D01*
X23965174Y-32924747D01*
X23960962Y-32912037D01*
X23910908Y-32760984D01*
X23820340Y-32614150D01*
X23706371Y-32500181D01*
X23672886Y-32438858D01*
X23677870Y-32369166D01*
X23706371Y-32324819D01*
X23756142Y-32275048D01*
X23820340Y-32210850D01*
X23910908Y-32064016D01*
X23965174Y-31900253D01*
X23975500Y-31799177D01*
X23975499Y-31200824D01*
X23965174Y-31099747D01*
X23910908Y-30935984D01*
X23820340Y-30789150D01*
X23781371Y-30750181D01*
X23747886Y-30688858D01*
X23752870Y-30619166D01*
X23781371Y-30574819D01*
X23820340Y-30535850D01*
X23910908Y-30389016D01*
X23965174Y-30225253D01*
X23975500Y-30124177D01*
X23975499Y-29525824D01*
X23965174Y-29424747D01*
X23910908Y-29260984D01*
X23820340Y-29114150D01*
X23706017Y-28999827D01*
X23672532Y-28938504D01*
X23677516Y-28868812D01*
X23706017Y-28824464D01*
X23819948Y-28710533D01*
X23910448Y-28563811D01*
X23910453Y-28563800D01*
X23964680Y-28400152D01*
X23974999Y-28299154D01*
X23975000Y-28299141D01*
X23975000Y-28250000D01*
X22013752Y-28250000D01*
X21977204Y-28269956D01*
X21907513Y-28264970D01*
X21851580Y-28223097D01*
X21836288Y-28196242D01*
X21809938Y-28132628D01*
X21774536Y-28047159D01*
X21678282Y-27921718D01*
X21552841Y-27825464D01*
X21552840Y-27825463D01*
X21552838Y-27825462D01*
X21520957Y-27812257D01*
X21406762Y-27764956D01*
X21406760Y-27764955D01*
X21289361Y-27749500D01*
X21010636Y-27749500D01*
X20893241Y-27764954D01*
X20893239Y-27764955D01*
X20871796Y-27773837D01*
X20803979Y-27781591D01*
X20604134Y-27748316D01*
X20581540Y-27737385D01*
X20557461Y-27730315D01*
X20550630Y-27722431D01*
X20541238Y-27717888D01*
X20530812Y-27700845D01*
X22025000Y-27700845D01*
X22025000Y-27750000D01*
X22750000Y-27750000D01*
X23250000Y-27750000D01*
X23974999Y-27750000D01*
X23974999Y-27700860D01*
X23974998Y-27700845D01*
X23964680Y-27599847D01*
X23910453Y-27436199D01*
X23910448Y-27436188D01*
X23819947Y-27289465D01*
X23819944Y-27289461D01*
X23698038Y-27167555D01*
X23698034Y-27167552D01*
X23551311Y-27077051D01*
X23551300Y-27077046D01*
X23387652Y-27022819D01*
X23286654Y-27012500D01*
X23250000Y-27012500D01*
X23250000Y-27750000D01*
X22750000Y-27750000D01*
X22750000Y-27012500D01*
X22713361Y-27012500D01*
X22713343Y-27012501D01*
X22612347Y-27022819D01*
X22448699Y-27077046D01*
X22448688Y-27077051D01*
X22301965Y-27167552D01*
X22301961Y-27167555D01*
X22180055Y-27289461D01*
X22180052Y-27289465D01*
X22089551Y-27436188D01*
X22089546Y-27436199D01*
X22035319Y-27599847D01*
X22025000Y-27700845D01*
X20530812Y-27700845D01*
X20528139Y-27696476D01*
X20511706Y-27677511D01*
X20509039Y-27665253D01*
X20504777Y-27658286D01*
X20505031Y-27646828D01*
X20500500Y-27626000D01*
X20500500Y-27470808D01*
X20520185Y-27403769D01*
X20536819Y-27383127D01*
X21383127Y-26536819D01*
X21444450Y-26503334D01*
X21470808Y-26500500D01*
X21598543Y-26500500D01*
X21728582Y-26474632D01*
X21791835Y-26462051D01*
X21973914Y-26386632D01*
X22137782Y-26277139D01*
X22277139Y-26137782D01*
X22386632Y-25973914D01*
X22462051Y-25791835D01*
X22475570Y-25723869D01*
X22500500Y-25598543D01*
X22500500Y-25401456D01*
X22462052Y-25208170D01*
X22462051Y-25208169D01*
X22462051Y-25208165D01*
X22458875Y-25200498D01*
X22405631Y-25071952D01*
X22398162Y-25002483D01*
X22429438Y-24940004D01*
X22489527Y-24904352D01*
X22520192Y-24900500D01*
X24462820Y-24900500D01*
X24467202Y-24901786D01*
G37*
%TD.AperFunction*%
%TA.AperFunction,Conductor*%
G36*
X15630039Y-16170185D02*
G01*
X15675794Y-16222989D01*
X15687000Y-16274500D01*
X15687000Y-16786669D01*
X15687001Y-16786687D01*
X15698014Y-16894488D01*
X15695594Y-16894735D01*
X15691207Y-16953248D01*
X15662856Y-16997196D01*
X6561681Y-26098371D01*
X6500358Y-26131856D01*
X6430666Y-26126872D01*
X6374733Y-26085000D01*
X6350316Y-26019536D01*
X6350000Y-26010690D01*
X6350000Y-25933753D01*
X6316757Y-25723872D01*
X6316757Y-25723869D01*
X6251095Y-25521782D01*
X6154624Y-25332449D01*
X6115270Y-25278282D01*
X6115269Y-25278282D01*
X5482962Y-25910590D01*
X5465925Y-25847007D01*
X5400099Y-25732993D01*
X5307007Y-25639901D01*
X5192993Y-25574075D01*
X5129409Y-25557037D01*
X5799627Y-24886818D01*
X5860950Y-24853333D01*
X5887307Y-24850499D01*
X5897872Y-24850499D01*
X5957483Y-24844091D01*
X6092331Y-24793796D01*
X6207546Y-24707546D01*
X6293796Y-24592331D01*
X6344091Y-24457483D01*
X6350500Y-24397873D01*
X6350499Y-23120806D01*
X6370184Y-23053768D01*
X6386813Y-23033131D01*
X13233127Y-16186819D01*
X13294450Y-16153334D01*
X13320808Y-16150500D01*
X15563000Y-16150500D01*
X15630039Y-16170185D01*
G37*
%TD.AperFunction*%
%TA.AperFunction,Conductor*%
G36*
X8277231Y-12670185D02*
G01*
X8322986Y-12722989D01*
X8332930Y-12792147D01*
X8303905Y-12855703D01*
X8297873Y-12862181D01*
X6561681Y-14598371D01*
X6500358Y-14631856D01*
X6430666Y-14626872D01*
X6374733Y-14585000D01*
X6350316Y-14519536D01*
X6350000Y-14510690D01*
X6350000Y-14433753D01*
X6316757Y-14223872D01*
X6316757Y-14223869D01*
X6251095Y-14021782D01*
X6154624Y-13832449D01*
X6115270Y-13778282D01*
X6115269Y-13778282D01*
X5482962Y-14410590D01*
X5465925Y-14347007D01*
X5400099Y-14232993D01*
X5307007Y-14139901D01*
X5192993Y-14074075D01*
X5129409Y-14057037D01*
X5799627Y-13386818D01*
X5860950Y-13353333D01*
X5887307Y-13350499D01*
X5897872Y-13350499D01*
X5957483Y-13344091D01*
X6092331Y-13293796D01*
X6207546Y-13207546D01*
X6293796Y-13092331D01*
X6344091Y-12957483D01*
X6350500Y-12897873D01*
X6350500Y-12774500D01*
X6370185Y-12707461D01*
X6422989Y-12661706D01*
X6474500Y-12650500D01*
X8210192Y-12650500D01*
X8277231Y-12670185D01*
G37*
%TD.AperFunction*%
%TD*%
D40*
X4600000Y0D02*
X69000000Y0D01*
X28500000Y-69000000D02*
X26000000Y-69000000D01*
X64800000Y-69800000D02*
X64800000Y-69000000D01*
X64800000Y-69000000D02*
X62000000Y-69000000D01*
X30000000Y-67500000D02*
X28500000Y-69000000D01*
X0Y-6000000D02*
X1500000Y-7500000D01*
X69800000Y-69800000D02*
X64800000Y-69800000D01*
X69800000Y-69000000D02*
X69800000Y-69800000D01*
X4200000Y0D02*
X4600000Y0D01*
X1500000Y-44500000D02*
X1500000Y-61500000D01*
X26000000Y-69000000D02*
X25000000Y-69000000D01*
X4200000Y800000D02*
X4200000Y0D01*
X37500000Y-69000000D02*
X36000000Y-67500000D01*
X69000000Y0D02*
X69000000Y-7000000D01*
X67500000Y-8500000D02*
X67500000Y-16500000D01*
X51000000Y-69000000D02*
X37500000Y-69000000D01*
X51000000Y-69000000D02*
X62000000Y-69000000D01*
X0Y-4200000D02*
X0Y-6000000D01*
X0Y-63000000D02*
X0Y-69000000D01*
X0Y-4200000D02*
X-800000Y-4200000D01*
X36000000Y-67500000D02*
X30000000Y-67500000D01*
X67500000Y-16500000D02*
X69000000Y-18000000D01*
X-800000Y-4200000D02*
X-800000Y800000D01*
X69000000Y-64800000D02*
X69000000Y-18000000D01*
X1500000Y-7500000D02*
X1500000Y-44500000D01*
X69800000Y-64800000D02*
X69000000Y-64800000D01*
X25000000Y-69000000D02*
X0Y-69000000D01*
X-800000Y800000D02*
X4200000Y800000D01*
X69000000Y-7000000D02*
X67500000Y-8500000D01*
X1500000Y-61500000D02*
X0Y-63000000D01*
X69800000Y-69000000D02*
X69800000Y-64800000D01*
M02*
