%TF.GenerationSoftware,KiCad,Pcbnew,9.0.2*%
%TF.CreationDate,2025-05-20T18:43:20+03:00*%
%TF.ProjectId,Project_PCB,50726f6a-6563-4745-9f50-43422e6b6963,0*%
%TF.SameCoordinates,Original*%
%TF.FileFunction,Copper,L2,Bot*%
%TF.FilePolarity,Positive*%
%FSLAX46Y46*%
G04 Gerber Fmt 4.6, Leading zero omitted, Abs format (unit mm)*
G04 Created by KiCad (PCBNEW 9.0.2) date 2025-05-20 18:43:20*
%MOMM*%
%LPD*%
G01*
G04 APERTURE LIST*
%TA.AperFunction,ComponentPad*%
%ADD10C,1.600000*%
%TD*%
%TA.AperFunction,ComponentPad*%
%ADD11R,1.700000X1.700000*%
%TD*%
%TA.AperFunction,ComponentPad*%
%ADD12C,1.700000*%
%TD*%
%TA.AperFunction,ComponentPad*%
%ADD13C,2.000000*%
%TD*%
%TA.AperFunction,ComponentPad*%
%ADD14R,1.995000X1.995000*%
%TD*%
%TA.AperFunction,ComponentPad*%
%ADD15C,1.995000*%
%TD*%
%TA.AperFunction,HeatsinkPad*%
%ADD16C,0.600000*%
%TD*%
%TA.AperFunction,ViaPad*%
%ADD17C,1.200000*%
%TD*%
%TA.AperFunction,Conductor*%
%ADD18C,0.500000*%
%TD*%
%TA.AperFunction,Conductor*%
%ADD19C,0.300000*%
%TD*%
%TA.AperFunction,Profile*%
%ADD20C,0.050000*%
%TD*%
G04 APERTURE END LIST*
D10*
%TO.P,C7,1*%
%TO.N,+BATT*%
X19000000Y-48350000D03*
%TO.P,C7,2*%
%TO.N,GND*%
X19000000Y-50350000D03*
%TD*%
%TO.P,C2,1*%
%TO.N,+3V3*%
X47000000Y-52250000D03*
%TO.P,C2,2*%
%TO.N,GND*%
X47000000Y-49750000D03*
%TD*%
D11*
%TO.P,D1,1,RA*%
%TO.N,Net-(D1-RA)*%
X5000000Y-12000000D03*
D12*
%TO.P,D1,2,K*%
%TO.N,GND*%
X5000000Y-14540000D03*
%TO.P,D1,3,GA*%
%TO.N,Net-(D1-GA)*%
X5000000Y-17080000D03*
%TO.P,D1,4,BA*%
%TO.N,Net-(D1-BA)*%
X5000000Y-19620000D03*
%TD*%
D11*
%TO.P,D2,1,RA*%
%TO.N,Net-(D2-RA)*%
X5000000Y-23500000D03*
D12*
%TO.P,D2,2,K*%
%TO.N,GND*%
X5000000Y-26040000D03*
%TO.P,D2,3,GA*%
%TO.N,Net-(D2-GA)*%
X5000000Y-28580000D03*
%TO.P,D2,4,BA*%
%TO.N,Net-(D2-BA)*%
X5000000Y-31120000D03*
%TD*%
D13*
%TO.P,TP3,1,1*%
%TO.N,GND*%
X15500000Y-52350000D03*
%TD*%
D11*
%TO.P,J2,1,Pin_1*%
%TO.N,GND*%
X64000000Y-9960000D03*
D12*
%TO.P,J2,2,Pin_2*%
%TO.N,Net-(J2-Pin_2)*%
X64000000Y-12500000D03*
%TO.P,J2,3,Pin_3*%
%TO.N,+3V3*%
X64000000Y-15040000D03*
%TD*%
D10*
%TO.P,C4,1*%
%TO.N,VIN*%
X38500000Y-51000000D03*
%TO.P,C4,2*%
%TO.N,GND*%
X40500000Y-51000000D03*
%TD*%
D14*
%TO.P,LS1,1,1*%
%TO.N,Net-(U1-IO17)*%
X29000000Y-38500000D03*
D15*
%TO.P,LS1,2,2*%
%TO.N,GND*%
X39000000Y-38500000D03*
%TD*%
D13*
%TO.P,TP5,1,1*%
%TO.N,VIN*%
X38500000Y-55500000D03*
%TD*%
D11*
%TO.P,SW3,1,1*%
%TO.N,POW{slash}IO9*%
X32000000Y-64000000D03*
D12*
%TO.P,SW3,2,2*%
%TO.N,+3V3*%
X34540000Y-64000000D03*
%TD*%
D13*
%TO.P,TP4,1,1*%
%TO.N,VBUS*%
X12000000Y-41000000D03*
%TD*%
%TO.P,TP2,1,1*%
%TO.N,+BATT*%
X15500000Y-46350000D03*
%TD*%
D16*
%TO.P,U1,41,GND*%
%TO.N,GND*%
X31600000Y-14760000D03*
X31600000Y-16160000D03*
X32300000Y-14060000D03*
X32300000Y-15460000D03*
X32300000Y-16860000D03*
X33000000Y-14760000D03*
X33000000Y-16160000D03*
X33700000Y-14060000D03*
X33700000Y-15460000D03*
X33700000Y-16860000D03*
X34400000Y-14760000D03*
X34400000Y-16160000D03*
%TD*%
D13*
%TO.P,TP1,1,1*%
%TO.N,+3V3*%
X44000000Y-55500000D03*
%TD*%
D11*
%TO.P,J1,1,D+*%
%TO.N,ESP20{slash}D+*%
X5000000Y-35000000D03*
D12*
%TO.P,J1,2,D-*%
%TO.N,ESP19{slash}D-*%
X5000000Y-37540000D03*
%TO.P,J1,3,VBUS*%
%TO.N,VBUS*%
X5000000Y-40080000D03*
%TO.P,J1,4,GND*%
%TO.N,GND*%
X5000000Y-42620000D03*
%TD*%
D17*
%TO.N,+3V3*%
X45500000Y-15000000D03*
X22000000Y-8000000D03*
%TO.N,GND*%
X26000000Y-28000000D03*
%TO.N,BATT{slash}IO8*%
X21500000Y-21500000D03*
X21500000Y-25500000D03*
%TO.N,VBUS*%
X8000000Y-55500000D03*
%TO.N,ESP19{slash}D-*%
X8500000Y-32500000D03*
%TO.N,Net-(U1-IO17)*%
X23500000Y-19500000D03*
%TD*%
D18*
%TO.N,Net-(U1-IO17)*%
X29000000Y-38500000D02*
X29000000Y-25000000D01*
X29000000Y-25000000D02*
X23500000Y-19500000D01*
%TO.N,+3V3*%
X38500000Y-8000000D02*
X22000000Y-8000000D01*
X45500000Y-15000000D02*
X38500000Y-8000000D01*
D19*
%TO.N,ESP19{slash}D-*%
X6460000Y-37540000D02*
X5000000Y-37540000D01*
X8500000Y-32500000D02*
X8500000Y-35500000D01*
X8500000Y-35500000D02*
X6460000Y-37540000D01*
D18*
%TO.N,VBUS*%
X8000000Y-41000000D02*
X8000000Y-55500000D01*
X7080000Y-40080000D02*
X8000000Y-41000000D01*
X5000000Y-40080000D02*
X7080000Y-40080000D01*
D19*
%TO.N,BATT{slash}IO8*%
X21500000Y-25500000D02*
X21500000Y-21500000D01*
%TD*%
%TA.AperFunction,Conductor*%
%TO.N,GND*%
G36*
X3642539Y279815D02*
G01*
X3688294Y227011D01*
X3699500Y175500D01*
X3699500Y-65891D01*
X3733608Y-193187D01*
X3766554Y-250250D01*
X3799500Y-307314D01*
X3892686Y-400500D01*
X4006814Y-466392D01*
X4134108Y-500500D01*
X4265892Y-500500D01*
X4534108Y-500500D01*
X10376000Y-500500D01*
X10443039Y-520185D01*
X10488794Y-572989D01*
X10500000Y-624500D01*
X10500000Y-6250000D01*
X58500000Y-6250000D01*
X58500000Y-4385258D01*
X62749500Y-4385258D01*
X62749500Y-4614741D01*
X62774446Y-4804215D01*
X62779452Y-4842238D01*
X62779453Y-4842240D01*
X62838842Y-5063887D01*
X62926650Y-5275876D01*
X62926657Y-5275890D01*
X63041392Y-5474617D01*
X63181081Y-5656661D01*
X63181089Y-5656670D01*
X63343330Y-5818911D01*
X63343338Y-5818918D01*
X63525382Y-5958607D01*
X63525385Y-5958608D01*
X63525388Y-5958611D01*
X63724112Y-6073344D01*
X63724117Y-6073346D01*
X63724123Y-6073349D01*
X63815480Y-6111190D01*
X63936113Y-6161158D01*
X64157762Y-6220548D01*
X64385266Y-6250500D01*
X64385273Y-6250500D01*
X64614727Y-6250500D01*
X64614734Y-6250500D01*
X64842238Y-6220548D01*
X65063887Y-6161158D01*
X65275888Y-6073344D01*
X65474612Y-5958611D01*
X65656661Y-5818919D01*
X65656665Y-5818914D01*
X65656670Y-5818911D01*
X65818911Y-5656670D01*
X65818914Y-5656665D01*
X65818919Y-5656661D01*
X65958611Y-5474612D01*
X66073344Y-5275888D01*
X66161158Y-5063887D01*
X66220548Y-4842238D01*
X66250500Y-4614734D01*
X66250500Y-4385266D01*
X66220548Y-4157762D01*
X66161158Y-3936113D01*
X66104571Y-3799500D01*
X66073349Y-3724123D01*
X66073346Y-3724117D01*
X66073344Y-3724112D01*
X65958611Y-3525388D01*
X65958608Y-3525385D01*
X65958607Y-3525382D01*
X65818918Y-3343338D01*
X65818911Y-3343330D01*
X65656670Y-3181089D01*
X65656661Y-3181081D01*
X65474617Y-3041392D01*
X65275890Y-2926657D01*
X65275876Y-2926650D01*
X65063887Y-2838842D01*
X64842238Y-2779452D01*
X64804215Y-2774446D01*
X64614741Y-2749500D01*
X64614734Y-2749500D01*
X64385266Y-2749500D01*
X64385258Y-2749500D01*
X64168715Y-2778009D01*
X64157762Y-2779452D01*
X64064076Y-2804554D01*
X63936112Y-2838842D01*
X63724123Y-2926650D01*
X63724109Y-2926657D01*
X63525382Y-3041392D01*
X63343338Y-3181081D01*
X63181081Y-3343338D01*
X63041392Y-3525382D01*
X62926657Y-3724109D01*
X62926650Y-3724123D01*
X62838842Y-3936112D01*
X62838842Y-3936113D01*
X62785790Y-4134110D01*
X62779453Y-4157759D01*
X62779451Y-4157770D01*
X62749500Y-4385258D01*
X58500000Y-4385258D01*
X58500000Y-624500D01*
X58519685Y-557461D01*
X58572489Y-511706D01*
X58624000Y-500500D01*
X68375500Y-500500D01*
X68442539Y-520185D01*
X68488294Y-572989D01*
X68499500Y-624500D01*
X68499500Y-6741324D01*
X68479815Y-6808363D01*
X68463181Y-6829005D01*
X67099502Y-8192683D01*
X67099500Y-8192686D01*
X67033608Y-8306812D01*
X66999500Y-8434108D01*
X66999500Y-16434108D01*
X66999500Y-60434108D01*
X66999500Y-60565892D01*
X67016554Y-60629539D01*
X67033608Y-60693187D01*
X67066554Y-60750250D01*
X67099500Y-60807314D01*
X67099501Y-60807315D01*
X67099502Y-60807316D01*
X68463181Y-62170995D01*
X68496666Y-62232318D01*
X68499500Y-62258676D01*
X68499500Y-64734108D01*
X68499500Y-64865892D01*
X68508069Y-64897872D01*
X68533608Y-64993187D01*
X68566554Y-65050250D01*
X68599500Y-65107314D01*
X68692686Y-65200500D01*
X68806814Y-65266392D01*
X68934108Y-65300500D01*
X69175500Y-65300500D01*
X69242539Y-65320185D01*
X69288294Y-65372989D01*
X69299500Y-65424500D01*
X69299500Y-69175500D01*
X69279815Y-69242539D01*
X69227011Y-69288294D01*
X69175500Y-69299500D01*
X65424500Y-69299500D01*
X65357461Y-69279815D01*
X65311706Y-69227011D01*
X65300500Y-69175500D01*
X65300500Y-68934110D01*
X65300500Y-68934108D01*
X65266392Y-68806814D01*
X65200500Y-68692686D01*
X65107314Y-68599500D01*
X65050250Y-68566554D01*
X64993187Y-68533608D01*
X64929539Y-68516554D01*
X64865892Y-68499500D01*
X64865891Y-68499500D01*
X40258676Y-68499500D01*
X40191637Y-68479815D01*
X40170995Y-68463181D01*
X38807316Y-67099502D01*
X38807314Y-67099500D01*
X38750250Y-67066554D01*
X38693187Y-67033608D01*
X38629539Y-67016554D01*
X38565892Y-66999500D01*
X30565892Y-66999500D01*
X30434107Y-66999500D01*
X30306812Y-67033608D01*
X30192686Y-67099500D01*
X30192683Y-67099502D01*
X28829005Y-68463181D01*
X28767682Y-68496666D01*
X28741324Y-68499500D01*
X624500Y-68499500D01*
X557461Y-68479815D01*
X511706Y-68427011D01*
X500500Y-68375500D01*
X500500Y-64385258D01*
X2749500Y-64385258D01*
X2749500Y-64614741D01*
X2761755Y-64707820D01*
X2779452Y-64842238D01*
X2811252Y-64960917D01*
X2838842Y-65063887D01*
X2926650Y-65275876D01*
X2926657Y-65275890D01*
X3041392Y-65474617D01*
X3181081Y-65656661D01*
X3181089Y-65656670D01*
X3343330Y-65818911D01*
X3343338Y-65818918D01*
X3525382Y-65958607D01*
X3525385Y-65958608D01*
X3525388Y-65958611D01*
X3724112Y-66073344D01*
X3724117Y-66073346D01*
X3724123Y-66073349D01*
X3815480Y-66111190D01*
X3936113Y-66161158D01*
X4157762Y-66220548D01*
X4385266Y-66250500D01*
X4385273Y-66250500D01*
X4614727Y-66250500D01*
X4614734Y-66250500D01*
X4842238Y-66220548D01*
X5063887Y-66161158D01*
X5275888Y-66073344D01*
X5474612Y-65958611D01*
X5656661Y-65818919D01*
X5656665Y-65818914D01*
X5656670Y-65818911D01*
X5818911Y-65656670D01*
X5818914Y-65656665D01*
X5818919Y-65656661D01*
X5958611Y-65474612D01*
X6073344Y-65275888D01*
X6161158Y-65063887D01*
X6220548Y-64842238D01*
X6250500Y-64614734D01*
X6250500Y-64385266D01*
X6220548Y-64157762D01*
X6161158Y-63936113D01*
X6073344Y-63724112D01*
X5958611Y-63525388D01*
X5958608Y-63525385D01*
X5958607Y-63525382D01*
X5818918Y-63343338D01*
X5818911Y-63343330D01*
X5656670Y-63181089D01*
X5656661Y-63181081D01*
X5553778Y-63102135D01*
X30649500Y-63102135D01*
X30649500Y-64897870D01*
X30649501Y-64897876D01*
X30655908Y-64957483D01*
X30706202Y-65092328D01*
X30706206Y-65092335D01*
X30792452Y-65207544D01*
X30792455Y-65207547D01*
X30907664Y-65293793D01*
X30907671Y-65293797D01*
X31042517Y-65344091D01*
X31042516Y-65344091D01*
X31049444Y-65344835D01*
X31102127Y-65350500D01*
X32897872Y-65350499D01*
X32957483Y-65344091D01*
X33092331Y-65293796D01*
X33207546Y-65207546D01*
X33293796Y-65092331D01*
X33342810Y-64960916D01*
X33384681Y-64904984D01*
X33450145Y-64880566D01*
X33518418Y-64895417D01*
X33546673Y-64916569D01*
X33660213Y-65030109D01*
X33832179Y-65155048D01*
X33832181Y-65155049D01*
X33832184Y-65155051D01*
X34021588Y-65251557D01*
X34223757Y-65317246D01*
X34433713Y-65350500D01*
X34433714Y-65350500D01*
X34646286Y-65350500D01*
X34646287Y-65350500D01*
X34856243Y-65317246D01*
X35058412Y-65251557D01*
X35247816Y-65155051D01*
X35334138Y-65092335D01*
X35419786Y-65030109D01*
X35419788Y-65030106D01*
X35419792Y-65030104D01*
X35570104Y-64879792D01*
X35570106Y-64879788D01*
X35570109Y-64879786D01*
X35695048Y-64707820D01*
X35695047Y-64707820D01*
X35695051Y-64707816D01*
X35791557Y-64518412D01*
X35834822Y-64385258D01*
X62749500Y-64385258D01*
X62749500Y-64614741D01*
X62761755Y-64707820D01*
X62779452Y-64842238D01*
X62811252Y-64960917D01*
X62838842Y-65063887D01*
X62926650Y-65275876D01*
X62926657Y-65275890D01*
X63041392Y-65474617D01*
X63181081Y-65656661D01*
X63181089Y-65656670D01*
X63343330Y-65818911D01*
X63343338Y-65818918D01*
X63525382Y-65958607D01*
X63525385Y-65958608D01*
X63525388Y-65958611D01*
X63724112Y-66073344D01*
X63724117Y-66073346D01*
X63724123Y-66073349D01*
X63815480Y-66111190D01*
X63936113Y-66161158D01*
X64157762Y-66220548D01*
X64385266Y-66250500D01*
X64385273Y-66250500D01*
X64614727Y-66250500D01*
X64614734Y-66250500D01*
X64842238Y-66220548D01*
X65063887Y-66161158D01*
X65275888Y-66073344D01*
X65474612Y-65958611D01*
X65656661Y-65818919D01*
X65656665Y-65818914D01*
X65656670Y-65818911D01*
X65818911Y-65656670D01*
X65818914Y-65656665D01*
X65818919Y-65656661D01*
X65958611Y-65474612D01*
X66073344Y-65275888D01*
X66161158Y-65063887D01*
X66220548Y-64842238D01*
X66250500Y-64614734D01*
X66250500Y-64385266D01*
X66220548Y-64157762D01*
X66161158Y-63936113D01*
X66073344Y-63724112D01*
X65958611Y-63525388D01*
X65958608Y-63525385D01*
X65958607Y-63525382D01*
X65818918Y-63343338D01*
X65818911Y-63343330D01*
X65656670Y-63181089D01*
X65656661Y-63181081D01*
X65474617Y-63041392D01*
X65275890Y-62926657D01*
X65275876Y-62926650D01*
X65063887Y-62838842D01*
X64842238Y-62779452D01*
X64804215Y-62774446D01*
X64614741Y-62749500D01*
X64614734Y-62749500D01*
X64385266Y-62749500D01*
X64385258Y-62749500D01*
X64168715Y-62778009D01*
X64157762Y-62779452D01*
X64109234Y-62792455D01*
X63936112Y-62838842D01*
X63724123Y-62926650D01*
X63724109Y-62926657D01*
X63525382Y-63041392D01*
X63343338Y-63181081D01*
X63181081Y-63343338D01*
X63041392Y-63525382D01*
X62926657Y-63724109D01*
X62926650Y-63724123D01*
X62838842Y-63936112D01*
X62779453Y-64157759D01*
X62779451Y-64157770D01*
X62749500Y-64385258D01*
X35834822Y-64385258D01*
X35857246Y-64316243D01*
X35890500Y-64106287D01*
X35890500Y-63893713D01*
X35857246Y-63683757D01*
X35791557Y-63481588D01*
X35695051Y-63292184D01*
X35695049Y-63292181D01*
X35695048Y-63292179D01*
X35570109Y-63120213D01*
X35419786Y-62969890D01*
X35247820Y-62844951D01*
X35058414Y-62748444D01*
X35058413Y-62748443D01*
X35058412Y-62748443D01*
X34856243Y-62682754D01*
X34856241Y-62682753D01*
X34856240Y-62682753D01*
X34694957Y-62657208D01*
X34646287Y-62649500D01*
X34433713Y-62649500D01*
X34385042Y-62657208D01*
X34223760Y-62682753D01*
X34021585Y-62748444D01*
X33832179Y-62844951D01*
X33660215Y-62969889D01*
X33546673Y-63083431D01*
X33485350Y-63116915D01*
X33415658Y-63111931D01*
X33359725Y-63070059D01*
X33342810Y-63039082D01*
X33293797Y-62907671D01*
X33293793Y-62907664D01*
X33207547Y-62792455D01*
X33207544Y-62792452D01*
X33092335Y-62706206D01*
X33092328Y-62706202D01*
X32957482Y-62655908D01*
X32957483Y-62655908D01*
X32897883Y-62649501D01*
X32897881Y-62649500D01*
X32897873Y-62649500D01*
X32897864Y-62649500D01*
X31102129Y-62649500D01*
X31102123Y-62649501D01*
X31042516Y-62655908D01*
X30907671Y-62706202D01*
X30907664Y-62706206D01*
X30792455Y-62792452D01*
X30792452Y-62792455D01*
X30706206Y-62907664D01*
X30706202Y-62907671D01*
X30655908Y-63042517D01*
X30649501Y-63102116D01*
X30649500Y-63102135D01*
X5553778Y-63102135D01*
X5474617Y-63041392D01*
X5275890Y-62926657D01*
X5275876Y-62926650D01*
X5063887Y-62838842D01*
X4842238Y-62779452D01*
X4804215Y-62774446D01*
X4614741Y-62749500D01*
X4614734Y-62749500D01*
X4385266Y-62749500D01*
X4385258Y-62749500D01*
X4168715Y-62778009D01*
X4157762Y-62779452D01*
X4109234Y-62792455D01*
X3936112Y-62838842D01*
X3724123Y-62926650D01*
X3724109Y-62926657D01*
X3525382Y-63041392D01*
X3343338Y-63181081D01*
X3181081Y-63343338D01*
X3041392Y-63525382D01*
X2926657Y-63724109D01*
X2926650Y-63724123D01*
X2838842Y-63936112D01*
X2779453Y-64157759D01*
X2779451Y-64157770D01*
X2749500Y-64385258D01*
X500500Y-64385258D01*
X500500Y-62258676D01*
X520185Y-62191637D01*
X536819Y-62170995D01*
X1108314Y-61599500D01*
X1900499Y-60807315D01*
X1966392Y-60693186D01*
X2000500Y-60565893D01*
X2000500Y-60434108D01*
X2000500Y-44434108D01*
X2000500Y-34102135D01*
X3649500Y-34102135D01*
X3649500Y-35897870D01*
X3649501Y-35897876D01*
X3655908Y-35957483D01*
X3706202Y-36092328D01*
X3706206Y-36092335D01*
X3792452Y-36207544D01*
X3792455Y-36207547D01*
X3907664Y-36293793D01*
X3907671Y-36293797D01*
X4039082Y-36342810D01*
X4095016Y-36384681D01*
X4119433Y-36450145D01*
X4104582Y-36518418D01*
X4083431Y-36546673D01*
X3969889Y-36660215D01*
X3844951Y-36832179D01*
X3748444Y-37021585D01*
X3682753Y-37223760D01*
X3659635Y-37369722D01*
X3649500Y-37433713D01*
X3649500Y-37646287D01*
X3682754Y-37856243D01*
X3744175Y-38045277D01*
X3748444Y-38058414D01*
X3844951Y-38247820D01*
X3969890Y-38419786D01*
X4120213Y-38570109D01*
X4292182Y-38695050D01*
X4300946Y-38699516D01*
X4351742Y-38747491D01*
X4368536Y-38815312D01*
X4345998Y-38881447D01*
X4300946Y-38920484D01*
X4292182Y-38924949D01*
X4120213Y-39049890D01*
X3969890Y-39200213D01*
X3844951Y-39372179D01*
X3748444Y-39561585D01*
X3682753Y-39763760D01*
X3654635Y-39941293D01*
X3649500Y-39973713D01*
X3649500Y-40186287D01*
X3682754Y-40396243D01*
X3723480Y-40521585D01*
X3748444Y-40598414D01*
X3844951Y-40787820D01*
X3969890Y-40959786D01*
X4120213Y-41110109D01*
X4292179Y-41235048D01*
X4292181Y-41235049D01*
X4292184Y-41235051D01*
X4301493Y-41239794D01*
X4352290Y-41287766D01*
X4369087Y-41355587D01*
X4346552Y-41421722D01*
X4301505Y-41460760D01*
X4292446Y-41465376D01*
X4292440Y-41465380D01*
X4238282Y-41504727D01*
X4238282Y-41504728D01*
X4870591Y-42137037D01*
X4807007Y-42154075D01*
X4692993Y-42219901D01*
X4599901Y-42312993D01*
X4534075Y-42427007D01*
X4517037Y-42490591D01*
X3884728Y-41858282D01*
X3884727Y-41858282D01*
X3845380Y-41912439D01*
X3748904Y-42101782D01*
X3683242Y-42303869D01*
X3683242Y-42303872D01*
X3650000Y-42513753D01*
X3650000Y-42726246D01*
X3683242Y-42936127D01*
X3683242Y-42936130D01*
X3748904Y-43138217D01*
X3845375Y-43327550D01*
X3884728Y-43381716D01*
X4517037Y-42749408D01*
X4534075Y-42812993D01*
X4599901Y-42927007D01*
X4692993Y-43020099D01*
X4807007Y-43085925D01*
X4870590Y-43102962D01*
X4238282Y-43735269D01*
X4238282Y-43735270D01*
X4292449Y-43774624D01*
X4481782Y-43871095D01*
X4683870Y-43936757D01*
X4893754Y-43970000D01*
X5106246Y-43970000D01*
X5316127Y-43936757D01*
X5316130Y-43936757D01*
X5518217Y-43871095D01*
X5707554Y-43774622D01*
X5761716Y-43735270D01*
X5761717Y-43735270D01*
X5129408Y-43102962D01*
X5192993Y-43085925D01*
X5307007Y-43020099D01*
X5400099Y-42927007D01*
X5465925Y-42812993D01*
X5482962Y-42749408D01*
X6115270Y-43381717D01*
X6115270Y-43381716D01*
X6154622Y-43327554D01*
X6251095Y-43138217D01*
X6316757Y-42936130D01*
X6316757Y-42936127D01*
X6350000Y-42726246D01*
X6350000Y-42513753D01*
X6316757Y-42303872D01*
X6316757Y-42303869D01*
X6251095Y-42101782D01*
X6154624Y-41912449D01*
X6115270Y-41858282D01*
X6115269Y-41858282D01*
X5482962Y-42490590D01*
X5465925Y-42427007D01*
X5400099Y-42312993D01*
X5307007Y-42219901D01*
X5192993Y-42154075D01*
X5129409Y-42137037D01*
X5761716Y-41504728D01*
X5707547Y-41465373D01*
X5707547Y-41465372D01*
X5698500Y-41460763D01*
X5647706Y-41412788D01*
X5630912Y-41344966D01*
X5653451Y-41278832D01*
X5698508Y-41239793D01*
X5707816Y-41235051D01*
X5868791Y-41118097D01*
X5879786Y-41110109D01*
X5879788Y-41110106D01*
X5879792Y-41110104D01*
X6030104Y-40959792D01*
X6030108Y-40959786D01*
X6086903Y-40881615D01*
X6142233Y-40838949D01*
X6187221Y-40830500D01*
X6717770Y-40830500D01*
X6784809Y-40850185D01*
X6805451Y-40866819D01*
X7213181Y-41274548D01*
X7246666Y-41335871D01*
X7249500Y-41362229D01*
X7249500Y-54642796D01*
X7229815Y-54709835D01*
X7213181Y-54730477D01*
X7160588Y-54783069D01*
X7160588Y-54783070D01*
X7160586Y-54783072D01*
X7116859Y-54843256D01*
X7058768Y-54923211D01*
X6980128Y-55077552D01*
X6980127Y-55077554D01*
X6980127Y-55077555D01*
X6953362Y-55159927D01*
X6926597Y-55242302D01*
X6926597Y-55242303D01*
X6899500Y-55413389D01*
X6899500Y-55586611D01*
X6926598Y-55757701D01*
X6980127Y-55922445D01*
X7058768Y-56076788D01*
X7160586Y-56216928D01*
X7283072Y-56339414D01*
X7423212Y-56441232D01*
X7577555Y-56519873D01*
X7742299Y-56573402D01*
X7913389Y-56600500D01*
X7913390Y-56600500D01*
X8086610Y-56600500D01*
X8086611Y-56600500D01*
X8257701Y-56573402D01*
X8422445Y-56519873D01*
X8576788Y-56441232D01*
X8716928Y-56339414D01*
X8839414Y-56216928D01*
X8941232Y-56076788D01*
X9019873Y-55922445D01*
X9073402Y-55757701D01*
X9100500Y-55586611D01*
X9100500Y-55413389D01*
X9095513Y-55381902D01*
X36999500Y-55381902D01*
X36999500Y-55618097D01*
X37036446Y-55851368D01*
X37109433Y-56075996D01*
X37181242Y-56216928D01*
X37216657Y-56286433D01*
X37355483Y-56477510D01*
X37522490Y-56644517D01*
X37713567Y-56783343D01*
X37812991Y-56834002D01*
X37924003Y-56890566D01*
X37924005Y-56890566D01*
X37924008Y-56890568D01*
X38044412Y-56929689D01*
X38148631Y-56963553D01*
X38381903Y-57000500D01*
X38381908Y-57000500D01*
X38618097Y-57000500D01*
X38851368Y-56963553D01*
X39075992Y-56890568D01*
X39286433Y-56783343D01*
X39477510Y-56644517D01*
X39644517Y-56477510D01*
X39783343Y-56286433D01*
X39890568Y-56075992D01*
X39963553Y-55851368D01*
X40000500Y-55618097D01*
X40000500Y-55381902D01*
X42499500Y-55381902D01*
X42499500Y-55618097D01*
X42536446Y-55851368D01*
X42609433Y-56075996D01*
X42681242Y-56216928D01*
X42716657Y-56286433D01*
X42855483Y-56477510D01*
X43022490Y-56644517D01*
X43213567Y-56783343D01*
X43312991Y-56834002D01*
X43424003Y-56890566D01*
X43424005Y-56890566D01*
X43424008Y-56890568D01*
X43544412Y-56929689D01*
X43648631Y-56963553D01*
X43881903Y-57000500D01*
X43881908Y-57000500D01*
X44118097Y-57000500D01*
X44351368Y-56963553D01*
X44575992Y-56890568D01*
X44786433Y-56783343D01*
X44977510Y-56644517D01*
X45144517Y-56477510D01*
X45283343Y-56286433D01*
X45390568Y-56075992D01*
X45463553Y-55851368D01*
X45500500Y-55618097D01*
X45500500Y-55381902D01*
X45463553Y-55148631D01*
X45390566Y-54924003D01*
X45334002Y-54812991D01*
X45283343Y-54713567D01*
X45144517Y-54522490D01*
X44977510Y-54355483D01*
X44786433Y-54216657D01*
X44575996Y-54109433D01*
X44351368Y-54036446D01*
X44118097Y-53999500D01*
X44118092Y-53999500D01*
X43881908Y-53999500D01*
X43881903Y-53999500D01*
X43648631Y-54036446D01*
X43424003Y-54109433D01*
X43213566Y-54216657D01*
X43104550Y-54295862D01*
X43022490Y-54355483D01*
X43022488Y-54355485D01*
X43022487Y-54355485D01*
X42855485Y-54522487D01*
X42855485Y-54522488D01*
X42855483Y-54522490D01*
X42795862Y-54604550D01*
X42716657Y-54713566D01*
X42609433Y-54924003D01*
X42536446Y-55148631D01*
X42499500Y-55381902D01*
X40000500Y-55381902D01*
X39963553Y-55148631D01*
X39890566Y-54924003D01*
X39834002Y-54812991D01*
X39783343Y-54713567D01*
X39644517Y-54522490D01*
X39477510Y-54355483D01*
X39286433Y-54216657D01*
X39075996Y-54109433D01*
X38851368Y-54036446D01*
X38618097Y-53999500D01*
X38618092Y-53999500D01*
X38381908Y-53999500D01*
X38381903Y-53999500D01*
X38148631Y-54036446D01*
X37924003Y-54109433D01*
X37713566Y-54216657D01*
X37604550Y-54295862D01*
X37522490Y-54355483D01*
X37522488Y-54355485D01*
X37522487Y-54355485D01*
X37355485Y-54522487D01*
X37355485Y-54522488D01*
X37355483Y-54522490D01*
X37295862Y-54604550D01*
X37216657Y-54713566D01*
X37109433Y-54924003D01*
X37036446Y-55148631D01*
X36999500Y-55381902D01*
X9095513Y-55381902D01*
X9073402Y-55242299D01*
X9019873Y-55077555D01*
X8941232Y-54923212D01*
X8839414Y-54783072D01*
X8786819Y-54730477D01*
X8753334Y-54669154D01*
X8750500Y-54642796D01*
X8750500Y-52231947D01*
X14000000Y-52231947D01*
X14000000Y-52468052D01*
X14036934Y-52701247D01*
X14109897Y-52925802D01*
X14217087Y-53136174D01*
X14277338Y-53219104D01*
X14277340Y-53219105D01*
X15017037Y-52479408D01*
X15034075Y-52542993D01*
X15099901Y-52657007D01*
X15192993Y-52750099D01*
X15307007Y-52815925D01*
X15370590Y-52832962D01*
X14630893Y-53572658D01*
X14713828Y-53632914D01*
X14924197Y-53740102D01*
X15148752Y-53813065D01*
X15148751Y-53813065D01*
X15381948Y-53850000D01*
X15618052Y-53850000D01*
X15851247Y-53813065D01*
X16075802Y-53740102D01*
X16286163Y-53632918D01*
X16286169Y-53632914D01*
X16369104Y-53572658D01*
X16369105Y-53572658D01*
X15629408Y-52832962D01*
X15692993Y-52815925D01*
X15807007Y-52750099D01*
X15900099Y-52657007D01*
X15965925Y-52542993D01*
X15982962Y-52479409D01*
X16722658Y-53219105D01*
X16722658Y-53219104D01*
X16782914Y-53136169D01*
X16782918Y-53136163D01*
X16890102Y-52925802D01*
X16963065Y-52701247D01*
X17000000Y-52468052D01*
X17000000Y-52231947D01*
X16963065Y-51998752D01*
X16890102Y-51774197D01*
X16782914Y-51563828D01*
X16722658Y-51480894D01*
X16722658Y-51480893D01*
X15982962Y-52220590D01*
X15965925Y-52157007D01*
X15900099Y-52042993D01*
X15807007Y-51949901D01*
X15692993Y-51884075D01*
X15629409Y-51867037D01*
X16369105Y-51127340D01*
X16369104Y-51127338D01*
X16286174Y-51067087D01*
X16075802Y-50959897D01*
X15851247Y-50886934D01*
X15851248Y-50886934D01*
X15618052Y-50850000D01*
X15381948Y-50850000D01*
X15148752Y-50886934D01*
X14924197Y-50959897D01*
X14713830Y-51067084D01*
X14630894Y-51127340D01*
X15370591Y-51867037D01*
X15307007Y-51884075D01*
X15192993Y-51949901D01*
X15099901Y-52042993D01*
X15034075Y-52157007D01*
X15017037Y-52220591D01*
X14277340Y-51480894D01*
X14217084Y-51563830D01*
X14109897Y-51774197D01*
X14036934Y-51998752D01*
X14000000Y-52231947D01*
X8750500Y-52231947D01*
X8750500Y-48247648D01*
X17699500Y-48247648D01*
X17699500Y-48452351D01*
X17731522Y-48654534D01*
X17794781Y-48849223D01*
X17858691Y-48974653D01*
X17883874Y-49024076D01*
X17887715Y-49031613D01*
X18008028Y-49197213D01*
X18152786Y-49341971D01*
X18273840Y-49429920D01*
X18318390Y-49462287D01*
X18500781Y-49555220D01*
X18558373Y-49573932D01*
X18607735Y-49604182D01*
X18953554Y-49950000D01*
X18947339Y-49950000D01*
X18845606Y-49977259D01*
X18754394Y-50029920D01*
X18679920Y-50104394D01*
X18627259Y-50195606D01*
X18600000Y-50297339D01*
X18600000Y-50303553D01*
X17920524Y-49624077D01*
X17920523Y-49624077D01*
X17888143Y-49668644D01*
X17795244Y-49850968D01*
X17732009Y-50045582D01*
X17700000Y-50247682D01*
X17700000Y-50452317D01*
X17732009Y-50654417D01*
X17795244Y-50849031D01*
X17888141Y-51031350D01*
X17888147Y-51031359D01*
X17920523Y-51075921D01*
X17920524Y-51075922D01*
X18600000Y-50396446D01*
X18600000Y-50402661D01*
X18627259Y-50504394D01*
X18679920Y-50595606D01*
X18754394Y-50670080D01*
X18845606Y-50722741D01*
X18947339Y-50750000D01*
X18953553Y-50750000D01*
X18274076Y-51429474D01*
X18318650Y-51461859D01*
X18500968Y-51554755D01*
X18695582Y-51617990D01*
X18897683Y-51650000D01*
X19102317Y-51650000D01*
X19304417Y-51617990D01*
X19499031Y-51554755D01*
X19681349Y-51461859D01*
X19725921Y-51429474D01*
X19046447Y-50750000D01*
X19052661Y-50750000D01*
X19154394Y-50722741D01*
X19245606Y-50670080D01*
X19320080Y-50595606D01*
X19372741Y-50504394D01*
X19400000Y-50402661D01*
X19400000Y-50396447D01*
X20079474Y-51075921D01*
X20111859Y-51031349D01*
X20179983Y-50897648D01*
X37199500Y-50897648D01*
X37199500Y-51102352D01*
X37203457Y-51127338D01*
X37231522Y-51304534D01*
X37294781Y-51499223D01*
X37387715Y-51681613D01*
X37508028Y-51847213D01*
X37652786Y-51991971D01*
X37773226Y-52079474D01*
X37818390Y-52112287D01*
X37906158Y-52157007D01*
X38000776Y-52205218D01*
X38000778Y-52205218D01*
X38000781Y-52205220D01*
X38083038Y-52231947D01*
X38195465Y-52268477D01*
X38294571Y-52284174D01*
X38397648Y-52300500D01*
X38397649Y-52300500D01*
X38602351Y-52300500D01*
X38602352Y-52300500D01*
X38804534Y-52268477D01*
X38999219Y-52205220D01*
X39181610Y-52112287D01*
X39276986Y-52042993D01*
X39347213Y-51991971D01*
X39347215Y-51991968D01*
X39347219Y-51991966D01*
X39491966Y-51847219D01*
X39491968Y-51847215D01*
X39491971Y-51847213D01*
X39562035Y-51750776D01*
X39612287Y-51681610D01*
X39705220Y-51499219D01*
X39723933Y-51441625D01*
X39754183Y-51392262D01*
X40100000Y-51046445D01*
X40100000Y-51052661D01*
X40127259Y-51154394D01*
X40179920Y-51245606D01*
X40254394Y-51320080D01*
X40345606Y-51372741D01*
X40447339Y-51400000D01*
X40453553Y-51400000D01*
X39774076Y-52079474D01*
X39818650Y-52111859D01*
X40000968Y-52204755D01*
X40195582Y-52267990D01*
X40397683Y-52300000D01*
X40602317Y-52300000D01*
X40804417Y-52267990D01*
X40999031Y-52204755D01*
X41111109Y-52147648D01*
X45699500Y-52147648D01*
X45699500Y-52352351D01*
X45731522Y-52554534D01*
X45794781Y-52749223D01*
X45887715Y-52931613D01*
X46008028Y-53097213D01*
X46152786Y-53241971D01*
X46307749Y-53354556D01*
X46318390Y-53362287D01*
X46434607Y-53421503D01*
X46500776Y-53455218D01*
X46500778Y-53455218D01*
X46500781Y-53455220D01*
X46605137Y-53489127D01*
X46695465Y-53518477D01*
X46796557Y-53534488D01*
X46897648Y-53550500D01*
X46897649Y-53550500D01*
X47102351Y-53550500D01*
X47102352Y-53550500D01*
X47304534Y-53518477D01*
X47499219Y-53455220D01*
X47681610Y-53362287D01*
X47774590Y-53294732D01*
X47847213Y-53241971D01*
X47847215Y-53241968D01*
X47847219Y-53241966D01*
X47991966Y-53097219D01*
X47991968Y-53097215D01*
X47991971Y-53097213D01*
X48044732Y-53024590D01*
X48112287Y-52931610D01*
X48205220Y-52749219D01*
X48268477Y-52554534D01*
X48300500Y-52352352D01*
X48300500Y-52147648D01*
X48294899Y-52112284D01*
X48268477Y-51945465D01*
X48205218Y-51750776D01*
X48153869Y-51650000D01*
X48112287Y-51568390D01*
X48062032Y-51499219D01*
X47991971Y-51402786D01*
X47847213Y-51258028D01*
X47681611Y-51137713D01*
X47627621Y-51110203D01*
X47576825Y-51062228D01*
X47560031Y-50994407D01*
X47582569Y-50928272D01*
X47627624Y-50889233D01*
X47681349Y-50861859D01*
X47725921Y-50829474D01*
X47046447Y-50150000D01*
X47052661Y-50150000D01*
X47154394Y-50122741D01*
X47245606Y-50070080D01*
X47320080Y-49995606D01*
X47372741Y-49904394D01*
X47400000Y-49802661D01*
X47400000Y-49796447D01*
X48079474Y-50475921D01*
X48111859Y-50431349D01*
X48204755Y-50249031D01*
X48267990Y-50054417D01*
X48300000Y-49852317D01*
X48300000Y-49647682D01*
X48267990Y-49445582D01*
X48204755Y-49250968D01*
X48111859Y-49068650D01*
X48079474Y-49024077D01*
X48079474Y-49024076D01*
X47400000Y-49703551D01*
X47400000Y-49697339D01*
X47372741Y-49595606D01*
X47320080Y-49504394D01*
X47245606Y-49429920D01*
X47154394Y-49377259D01*
X47052661Y-49350000D01*
X47046446Y-49350000D01*
X47725922Y-48670524D01*
X47725921Y-48670523D01*
X47681359Y-48638147D01*
X47681350Y-48638141D01*
X47499031Y-48545244D01*
X47304417Y-48482009D01*
X47102317Y-48450000D01*
X46897683Y-48450000D01*
X46695582Y-48482009D01*
X46500968Y-48545244D01*
X46318644Y-48638143D01*
X46274077Y-48670523D01*
X46274077Y-48670524D01*
X46953554Y-49350000D01*
X46947339Y-49350000D01*
X46845606Y-49377259D01*
X46754394Y-49429920D01*
X46679920Y-49504394D01*
X46627259Y-49595606D01*
X46600000Y-49697339D01*
X46600000Y-49703553D01*
X45920524Y-49024077D01*
X45920523Y-49024077D01*
X45888143Y-49068644D01*
X45795244Y-49250968D01*
X45732009Y-49445582D01*
X45700000Y-49647682D01*
X45700000Y-49852317D01*
X45732009Y-50054417D01*
X45795244Y-50249031D01*
X45888141Y-50431350D01*
X45888147Y-50431359D01*
X45920523Y-50475921D01*
X45920524Y-50475922D01*
X46600000Y-49796446D01*
X46600000Y-49802661D01*
X46627259Y-49904394D01*
X46679920Y-49995606D01*
X46754394Y-50070080D01*
X46845606Y-50122741D01*
X46947339Y-50150000D01*
X46953553Y-50150000D01*
X46274076Y-50829474D01*
X46318652Y-50861861D01*
X46372376Y-50889234D01*
X46423172Y-50937208D01*
X46439968Y-51005028D01*
X46417431Y-51071164D01*
X46372379Y-51110203D01*
X46318386Y-51137714D01*
X46152786Y-51258028D01*
X46008028Y-51402786D01*
X45887715Y-51568386D01*
X45794781Y-51750776D01*
X45731522Y-51945465D01*
X45699500Y-52147648D01*
X41111109Y-52147648D01*
X41181349Y-52111859D01*
X41225922Y-52079474D01*
X40546447Y-51400000D01*
X40552661Y-51400000D01*
X40654394Y-51372741D01*
X40745606Y-51320080D01*
X40820080Y-51245606D01*
X40872741Y-51154394D01*
X40900000Y-51052661D01*
X40900000Y-51046448D01*
X41579474Y-51725922D01*
X41579474Y-51725921D01*
X41611859Y-51681349D01*
X41704755Y-51499031D01*
X41767990Y-51304417D01*
X41800000Y-51102317D01*
X41800000Y-50897682D01*
X41767990Y-50695582D01*
X41704755Y-50500968D01*
X41611859Y-50318650D01*
X41579474Y-50274077D01*
X41579474Y-50274076D01*
X40900000Y-50953551D01*
X40900000Y-50947339D01*
X40872741Y-50845606D01*
X40820080Y-50754394D01*
X40745606Y-50679920D01*
X40654394Y-50627259D01*
X40552661Y-50600000D01*
X40546446Y-50600000D01*
X41225922Y-49920524D01*
X41225921Y-49920523D01*
X41181359Y-49888147D01*
X41181350Y-49888141D01*
X40999031Y-49795244D01*
X40892859Y-49760747D01*
X40804417Y-49732009D01*
X40602317Y-49700000D01*
X40397683Y-49700000D01*
X40195582Y-49732009D01*
X40000968Y-49795244D01*
X39818644Y-49888143D01*
X39774077Y-49920523D01*
X39774077Y-49920524D01*
X40453554Y-50600000D01*
X40447339Y-50600000D01*
X40345606Y-50627259D01*
X40254394Y-50679920D01*
X40179920Y-50754394D01*
X40127259Y-50845606D01*
X40100000Y-50947339D01*
X40100000Y-50953553D01*
X39754182Y-50607735D01*
X39723932Y-50558372D01*
X39705220Y-50500781D01*
X39612287Y-50318390D01*
X39580092Y-50274077D01*
X39491971Y-50152786D01*
X39347213Y-50008028D01*
X39181613Y-49887715D01*
X39181612Y-49887714D01*
X39181610Y-49887713D01*
X39109494Y-49850968D01*
X38999223Y-49794781D01*
X38804534Y-49731522D01*
X38629995Y-49703878D01*
X38602352Y-49699500D01*
X38397648Y-49699500D01*
X38373329Y-49703351D01*
X38195465Y-49731522D01*
X38000776Y-49794781D01*
X37818386Y-49887715D01*
X37652786Y-50008028D01*
X37508028Y-50152786D01*
X37387715Y-50318386D01*
X37294781Y-50500776D01*
X37231522Y-50695465D01*
X37205168Y-50861861D01*
X37199500Y-50897648D01*
X20179983Y-50897648D01*
X20204755Y-50849031D01*
X20267990Y-50654417D01*
X20300000Y-50452317D01*
X20300000Y-50247682D01*
X20267990Y-50045582D01*
X20204755Y-49850968D01*
X20111859Y-49668650D01*
X20079474Y-49624077D01*
X20079474Y-49624076D01*
X19400000Y-50303551D01*
X19400000Y-50297339D01*
X19372741Y-50195606D01*
X19320080Y-50104394D01*
X19245606Y-50029920D01*
X19154394Y-49977259D01*
X19052661Y-49950000D01*
X19046447Y-49950000D01*
X19392262Y-49604183D01*
X19441626Y-49573933D01*
X19499213Y-49555222D01*
X19499219Y-49555220D01*
X19499223Y-49555218D01*
X19681610Y-49462287D01*
X19798642Y-49377259D01*
X19847213Y-49341971D01*
X19847215Y-49341968D01*
X19847219Y-49341966D01*
X19991966Y-49197219D01*
X19991968Y-49197215D01*
X19991971Y-49197213D01*
X20085380Y-49068644D01*
X20112287Y-49031610D01*
X20205220Y-48849219D01*
X20268477Y-48654534D01*
X20300500Y-48452352D01*
X20300500Y-48247648D01*
X20268477Y-48045466D01*
X20205220Y-47850781D01*
X20205218Y-47850778D01*
X20205218Y-47850776D01*
X20171503Y-47784607D01*
X20112287Y-47668390D01*
X20086824Y-47633343D01*
X19991971Y-47502786D01*
X19847213Y-47358028D01*
X19681613Y-47237715D01*
X19681612Y-47237714D01*
X19681610Y-47237713D01*
X19624653Y-47208691D01*
X19499223Y-47144781D01*
X19304534Y-47081522D01*
X19129995Y-47053878D01*
X19102352Y-47049500D01*
X18897648Y-47049500D01*
X18873329Y-47053351D01*
X18695465Y-47081522D01*
X18500776Y-47144781D01*
X18318386Y-47237715D01*
X18152786Y-47358028D01*
X18008028Y-47502786D01*
X17887715Y-47668386D01*
X17794781Y-47850776D01*
X17731522Y-48045465D01*
X17699500Y-48247648D01*
X8750500Y-48247648D01*
X8750500Y-46231902D01*
X13999500Y-46231902D01*
X13999500Y-46468097D01*
X14036446Y-46701368D01*
X14109433Y-46925996D01*
X14172362Y-47049500D01*
X14216657Y-47136433D01*
X14355483Y-47327510D01*
X14522490Y-47494517D01*
X14713567Y-47633343D01*
X14782343Y-47668386D01*
X14924003Y-47740566D01*
X14924005Y-47740566D01*
X14924008Y-47740568D01*
X15044412Y-47779689D01*
X15148631Y-47813553D01*
X15381903Y-47850500D01*
X15381908Y-47850500D01*
X15618097Y-47850500D01*
X15851368Y-47813553D01*
X16075992Y-47740568D01*
X16286433Y-47633343D01*
X16477510Y-47494517D01*
X16644517Y-47327510D01*
X16783343Y-47136433D01*
X16890568Y-46925992D01*
X16963553Y-46701368D01*
X17000500Y-46468097D01*
X17000500Y-46231902D01*
X16963553Y-45998631D01*
X16890566Y-45774003D01*
X16783342Y-45563566D01*
X16644517Y-45372490D01*
X16477510Y-45205483D01*
X16286433Y-45066657D01*
X16075996Y-44959433D01*
X15851368Y-44886446D01*
X15618097Y-44849500D01*
X15618092Y-44849500D01*
X15381908Y-44849500D01*
X15381903Y-44849500D01*
X15148631Y-44886446D01*
X14924003Y-44959433D01*
X14713566Y-45066657D01*
X14604550Y-45145862D01*
X14522490Y-45205483D01*
X14522488Y-45205485D01*
X14522487Y-45205485D01*
X14355485Y-45372487D01*
X14355485Y-45372488D01*
X14355483Y-45372490D01*
X14295862Y-45454550D01*
X14216657Y-45563566D01*
X14109433Y-45774003D01*
X14036446Y-45998631D01*
X13999500Y-46231902D01*
X8750500Y-46231902D01*
X8750500Y-40926082D01*
X8745556Y-40901226D01*
X8745556Y-40901223D01*
X8741713Y-40881902D01*
X10499500Y-40881902D01*
X10499500Y-41118097D01*
X10536446Y-41351368D01*
X10609433Y-41575996D01*
X10716657Y-41786433D01*
X10855483Y-41977510D01*
X11022490Y-42144517D01*
X11213567Y-42283343D01*
X11312991Y-42334002D01*
X11424003Y-42390566D01*
X11424005Y-42390566D01*
X11424008Y-42390568D01*
X11536155Y-42427007D01*
X11648631Y-42463553D01*
X11881903Y-42500500D01*
X11881908Y-42500500D01*
X12118097Y-42500500D01*
X12351368Y-42463553D01*
X12575992Y-42390568D01*
X12786433Y-42283343D01*
X12977510Y-42144517D01*
X13144517Y-41977510D01*
X13283343Y-41786433D01*
X13390568Y-41575992D01*
X13463553Y-41351368D01*
X13464567Y-41344966D01*
X13500500Y-41118097D01*
X13500500Y-40881902D01*
X13463553Y-40648631D01*
X13390566Y-40424003D01*
X13283342Y-40213566D01*
X13144517Y-40022490D01*
X12977510Y-39855483D01*
X12786433Y-39716657D01*
X12575996Y-39609433D01*
X12351368Y-39536446D01*
X12118097Y-39499500D01*
X12118092Y-39499500D01*
X11881908Y-39499500D01*
X11881903Y-39499500D01*
X11648631Y-39536446D01*
X11424003Y-39609433D01*
X11213566Y-39716657D01*
X11104550Y-39795862D01*
X11022490Y-39855483D01*
X11022488Y-39855485D01*
X11022487Y-39855485D01*
X10855485Y-40022487D01*
X10855485Y-40022488D01*
X10855483Y-40022490D01*
X10795862Y-40104550D01*
X10716657Y-40213566D01*
X10609433Y-40424003D01*
X10536446Y-40648631D01*
X10499500Y-40881902D01*
X8741713Y-40881902D01*
X8721659Y-40781092D01*
X8721658Y-40781091D01*
X8721658Y-40781087D01*
X8721656Y-40781082D01*
X8665087Y-40644511D01*
X8665080Y-40644498D01*
X8582952Y-40521585D01*
X8582951Y-40521584D01*
X8478416Y-40417049D01*
X8274933Y-40213566D01*
X7558418Y-39497049D01*
X7558416Y-39497047D01*
X7509092Y-39464091D01*
X7476355Y-39442218D01*
X7435495Y-39414916D01*
X7435494Y-39414915D01*
X7435492Y-39414914D01*
X7435490Y-39414913D01*
X7298917Y-39358343D01*
X7298907Y-39358340D01*
X7153920Y-39329500D01*
X7153918Y-39329500D01*
X6187221Y-39329500D01*
X6120182Y-39309815D01*
X6086903Y-39278385D01*
X6030107Y-39200211D01*
X5879786Y-39049890D01*
X5707820Y-38924951D01*
X5705783Y-38923913D01*
X5699054Y-38920485D01*
X5648259Y-38872512D01*
X5631463Y-38804692D01*
X5653999Y-38738556D01*
X5699054Y-38699515D01*
X5707816Y-38695051D01*
X5814060Y-38617861D01*
X5879786Y-38570109D01*
X5879788Y-38570106D01*
X5879792Y-38570104D01*
X6030104Y-38419792D01*
X6030106Y-38419788D01*
X6030109Y-38419786D01*
X6157915Y-38243875D01*
X6159259Y-38244851D01*
X6205705Y-38202834D01*
X6259618Y-38190500D01*
X6524071Y-38190500D01*
X6608615Y-38173682D01*
X6649744Y-38165501D01*
X6768127Y-38116465D01*
X6874669Y-38045277D01*
X9005277Y-35914669D01*
X9076466Y-35808126D01*
X9125501Y-35689743D01*
X9150500Y-35564069D01*
X9150500Y-35435931D01*
X9150500Y-33450857D01*
X9170185Y-33383818D01*
X9201618Y-33350537D01*
X9216928Y-33339414D01*
X9339414Y-33216928D01*
X9441232Y-33076788D01*
X9519873Y-32922445D01*
X9573402Y-32757701D01*
X9600500Y-32586611D01*
X9600500Y-32413389D01*
X9573402Y-32242299D01*
X9519873Y-32077555D01*
X9441232Y-31923212D01*
X9339414Y-31783072D01*
X9216928Y-31660586D01*
X9076788Y-31558768D01*
X8922445Y-31480127D01*
X8757701Y-31426598D01*
X8757699Y-31426597D01*
X8757698Y-31426597D01*
X8626271Y-31405781D01*
X8586611Y-31399500D01*
X8413389Y-31399500D01*
X8373728Y-31405781D01*
X8242302Y-31426597D01*
X8077552Y-31480128D01*
X7923211Y-31558768D01*
X7843256Y-31616859D01*
X7783072Y-31660586D01*
X7783070Y-31660588D01*
X7783069Y-31660588D01*
X7660588Y-31783069D01*
X7660588Y-31783070D01*
X7660586Y-31783072D01*
X7628075Y-31827820D01*
X7558768Y-31923211D01*
X7480128Y-32077552D01*
X7426597Y-32242302D01*
X7399500Y-32413389D01*
X7399500Y-32586611D01*
X7426598Y-32757701D01*
X7480127Y-32922445D01*
X7558768Y-33076788D01*
X7660586Y-33216928D01*
X7660588Y-33216930D01*
X7783070Y-33339412D01*
X7783076Y-33339417D01*
X7798382Y-33350537D01*
X7841050Y-33405866D01*
X7849500Y-33450857D01*
X7849500Y-35179192D01*
X7829815Y-35246231D01*
X7813181Y-35266873D01*
X6296771Y-36783282D01*
X6235448Y-36816767D01*
X6165756Y-36811783D01*
X6109823Y-36769911D01*
X6108771Y-36768485D01*
X6030107Y-36660211D01*
X5916569Y-36546673D01*
X5883084Y-36485350D01*
X5888068Y-36415658D01*
X5929940Y-36359725D01*
X5960915Y-36342810D01*
X6092331Y-36293796D01*
X6207546Y-36207546D01*
X6293796Y-36092331D01*
X6344091Y-35957483D01*
X6350500Y-35897873D01*
X6350499Y-34102128D01*
X6344091Y-34042517D01*
X6293796Y-33907669D01*
X6293795Y-33907668D01*
X6293793Y-33907664D01*
X6207547Y-33792455D01*
X6207544Y-33792452D01*
X6092335Y-33706206D01*
X6092328Y-33706202D01*
X5957482Y-33655908D01*
X5957483Y-33655908D01*
X5897883Y-33649501D01*
X5897881Y-33649500D01*
X5897873Y-33649500D01*
X5897864Y-33649500D01*
X4102129Y-33649500D01*
X4102123Y-33649501D01*
X4042516Y-33655908D01*
X3907671Y-33706202D01*
X3907664Y-33706206D01*
X3792455Y-33792452D01*
X3792452Y-33792455D01*
X3706206Y-33907664D01*
X3706202Y-33907671D01*
X3655908Y-34042517D01*
X3649501Y-34102116D01*
X3649501Y-34102123D01*
X3649500Y-34102135D01*
X2000500Y-34102135D01*
X2000500Y-22602135D01*
X3649500Y-22602135D01*
X3649500Y-24397870D01*
X3649501Y-24397876D01*
X3655908Y-24457483D01*
X3706202Y-24592328D01*
X3706206Y-24592335D01*
X3792452Y-24707544D01*
X3792455Y-24707547D01*
X3907664Y-24793793D01*
X3907671Y-24793797D01*
X3952618Y-24810561D01*
X4042517Y-24844091D01*
X4102127Y-24850500D01*
X4112685Y-24850499D01*
X4179723Y-24870179D01*
X4200372Y-24886818D01*
X4870591Y-25557037D01*
X4807007Y-25574075D01*
X4692993Y-25639901D01*
X4599901Y-25732993D01*
X4534075Y-25847007D01*
X4517037Y-25910591D01*
X3884728Y-25278282D01*
X3884727Y-25278282D01*
X3845380Y-25332439D01*
X3748904Y-25521782D01*
X3683242Y-25723869D01*
X3683242Y-25723872D01*
X3650000Y-25933753D01*
X3650000Y-26146246D01*
X3683242Y-26356127D01*
X3683242Y-26356130D01*
X3748904Y-26558217D01*
X3845375Y-26747550D01*
X3884728Y-26801716D01*
X4517037Y-26169408D01*
X4534075Y-26232993D01*
X4599901Y-26347007D01*
X4692993Y-26440099D01*
X4807007Y-26505925D01*
X4870590Y-26522962D01*
X4238282Y-27155269D01*
X4238282Y-27155270D01*
X4292452Y-27194626D01*
X4292451Y-27194626D01*
X4301495Y-27199234D01*
X4352292Y-27247208D01*
X4369087Y-27315029D01*
X4346550Y-27381164D01*
X4301499Y-27420202D01*
X4292182Y-27424949D01*
X4120213Y-27549890D01*
X3969890Y-27700213D01*
X3844951Y-27872179D01*
X3748444Y-28061585D01*
X3682753Y-28263760D01*
X3649500Y-28473713D01*
X3649500Y-28686286D01*
X3682753Y-28896239D01*
X3748444Y-29098414D01*
X3844951Y-29287820D01*
X3969890Y-29459786D01*
X4120213Y-29610109D01*
X4292182Y-29735050D01*
X4300946Y-29739516D01*
X4351742Y-29787491D01*
X4368536Y-29855312D01*
X4345998Y-29921447D01*
X4300946Y-29960484D01*
X4292182Y-29964949D01*
X4120213Y-30089890D01*
X3969890Y-30240213D01*
X3844951Y-30412179D01*
X3748444Y-30601585D01*
X3682753Y-30803760D01*
X3649500Y-31013713D01*
X3649500Y-31226286D01*
X3682753Y-31436239D01*
X3748444Y-31638414D01*
X3844951Y-31827820D01*
X3969890Y-31999786D01*
X4120213Y-32150109D01*
X4292179Y-32275048D01*
X4292181Y-32275049D01*
X4292184Y-32275051D01*
X4481588Y-32371557D01*
X4683757Y-32437246D01*
X4893713Y-32470500D01*
X4893714Y-32470500D01*
X5106286Y-32470500D01*
X5106287Y-32470500D01*
X5316243Y-32437246D01*
X5518412Y-32371557D01*
X5707816Y-32275051D01*
X5729789Y-32259086D01*
X5879786Y-32150109D01*
X5879788Y-32150106D01*
X5879792Y-32150104D01*
X6030104Y-31999792D01*
X6030106Y-31999788D01*
X6030109Y-31999786D01*
X6155048Y-31827820D01*
X6155047Y-31827820D01*
X6155051Y-31827816D01*
X6251557Y-31638412D01*
X6317246Y-31436243D01*
X6350500Y-31226287D01*
X6350500Y-31013713D01*
X6317246Y-30803757D01*
X6251557Y-30601588D01*
X6155051Y-30412184D01*
X6155049Y-30412181D01*
X6155048Y-30412179D01*
X6030109Y-30240213D01*
X5879786Y-30089890D01*
X5707820Y-29964951D01*
X5707115Y-29964591D01*
X5699054Y-29960485D01*
X5648259Y-29912512D01*
X5631463Y-29844692D01*
X5653999Y-29778556D01*
X5699054Y-29739515D01*
X5707816Y-29735051D01*
X5729789Y-29719086D01*
X5879786Y-29610109D01*
X5879788Y-29610106D01*
X5879792Y-29610104D01*
X6030104Y-29459792D01*
X6030106Y-29459788D01*
X6030109Y-29459786D01*
X6155048Y-29287820D01*
X6155047Y-29287820D01*
X6155051Y-29287816D01*
X6251557Y-29098412D01*
X6317246Y-28896243D01*
X6350500Y-28686287D01*
X6350500Y-28473713D01*
X6317246Y-28263757D01*
X6251557Y-28061588D01*
X6155051Y-27872184D01*
X6155049Y-27872181D01*
X6155048Y-27872179D01*
X6030109Y-27700213D01*
X5879786Y-27549890D01*
X5707817Y-27424949D01*
X5698504Y-27420204D01*
X5647707Y-27372230D01*
X5630912Y-27304409D01*
X5653449Y-27238274D01*
X5698507Y-27199232D01*
X5707555Y-27194622D01*
X5761716Y-27155270D01*
X5761717Y-27155270D01*
X5129408Y-26522962D01*
X5192993Y-26505925D01*
X5307007Y-26440099D01*
X5400099Y-26347007D01*
X5465925Y-26232993D01*
X5482962Y-26169408D01*
X6115270Y-26801717D01*
X6115270Y-26801716D01*
X6154622Y-26747554D01*
X6251095Y-26558217D01*
X6316757Y-26356130D01*
X6316757Y-26356127D01*
X6350000Y-26146246D01*
X6350000Y-25933753D01*
X6316757Y-25723872D01*
X6316757Y-25723869D01*
X6251095Y-25521782D01*
X6154624Y-25332449D01*
X6115270Y-25278282D01*
X6115269Y-25278282D01*
X5482962Y-25910590D01*
X5465925Y-25847007D01*
X5400099Y-25732993D01*
X5307007Y-25639901D01*
X5192993Y-25574075D01*
X5129409Y-25557037D01*
X5799627Y-24886818D01*
X5860950Y-24853333D01*
X5887307Y-24850499D01*
X5897872Y-24850499D01*
X5957483Y-24844091D01*
X6092331Y-24793796D01*
X6207546Y-24707546D01*
X6293796Y-24592331D01*
X6344091Y-24457483D01*
X6350500Y-24397873D01*
X6350499Y-22602128D01*
X6344091Y-22542517D01*
X6293796Y-22407669D01*
X6293795Y-22407668D01*
X6293793Y-22407664D01*
X6207547Y-22292455D01*
X6207544Y-22292452D01*
X6092335Y-22206206D01*
X6092328Y-22206202D01*
X5957482Y-22155908D01*
X5957483Y-22155908D01*
X5897883Y-22149501D01*
X5897881Y-22149500D01*
X5897873Y-22149500D01*
X5897864Y-22149500D01*
X4102129Y-22149500D01*
X4102123Y-22149501D01*
X4042516Y-22155908D01*
X3907671Y-22206202D01*
X3907664Y-22206206D01*
X3792455Y-22292452D01*
X3792452Y-22292455D01*
X3706206Y-22407664D01*
X3706202Y-22407671D01*
X3655908Y-22542517D01*
X3649501Y-22602116D01*
X3649501Y-22602123D01*
X3649500Y-22602135D01*
X2000500Y-22602135D01*
X2000500Y-21413389D01*
X20399500Y-21413389D01*
X20399500Y-21586611D01*
X20426598Y-21757701D01*
X20480127Y-21922445D01*
X20558768Y-22076788D01*
X20660586Y-22216928D01*
X20660588Y-22216930D01*
X20783070Y-22339412D01*
X20783076Y-22339417D01*
X20798382Y-22350537D01*
X20841050Y-22405866D01*
X20849500Y-22450857D01*
X20849500Y-24549142D01*
X20829815Y-24616181D01*
X20798387Y-24649459D01*
X20783072Y-24660585D01*
X20660588Y-24783069D01*
X20660588Y-24783070D01*
X20660586Y-24783072D01*
X20652797Y-24793793D01*
X20558768Y-24923211D01*
X20480128Y-25077552D01*
X20426597Y-25242302D01*
X20399500Y-25413389D01*
X20399500Y-25586610D01*
X20422684Y-25732993D01*
X20426598Y-25757701D01*
X20480127Y-25922445D01*
X20558768Y-26076788D01*
X20660586Y-26216928D01*
X20783072Y-26339414D01*
X20923212Y-26441232D01*
X21077555Y-26519873D01*
X21242299Y-26573402D01*
X21413389Y-26600500D01*
X21413390Y-26600500D01*
X21586610Y-26600500D01*
X21586611Y-26600500D01*
X21757701Y-26573402D01*
X21922445Y-26519873D01*
X22076788Y-26441232D01*
X22216928Y-26339414D01*
X22339414Y-26216928D01*
X22441232Y-26076788D01*
X22519873Y-25922445D01*
X22573402Y-25757701D01*
X22600500Y-25586611D01*
X22600500Y-25413389D01*
X22573402Y-25242299D01*
X22519873Y-25077555D01*
X22441232Y-24923212D01*
X22339414Y-24783072D01*
X22216928Y-24660586D01*
X22215865Y-24659814D01*
X22201613Y-24649459D01*
X22158948Y-24594128D01*
X22150500Y-24549142D01*
X22150500Y-22450857D01*
X22170185Y-22383818D01*
X22201618Y-22350537D01*
X22216928Y-22339414D01*
X22339414Y-22216928D01*
X22441232Y-22076788D01*
X22519873Y-21922445D01*
X22573402Y-21757701D01*
X22600500Y-21586611D01*
X22600500Y-21413389D01*
X22573402Y-21242299D01*
X22519873Y-21077555D01*
X22441232Y-20923212D01*
X22339414Y-20783072D01*
X22216928Y-20660586D01*
X22076788Y-20558768D01*
X21922445Y-20480127D01*
X21757701Y-20426598D01*
X21757699Y-20426597D01*
X21757698Y-20426597D01*
X21626271Y-20405781D01*
X21586611Y-20399500D01*
X21413389Y-20399500D01*
X21373728Y-20405781D01*
X21242302Y-20426597D01*
X21077552Y-20480128D01*
X20923211Y-20558768D01*
X20865773Y-20600500D01*
X20783072Y-20660586D01*
X20783070Y-20660588D01*
X20783069Y-20660588D01*
X20660588Y-20783069D01*
X20660588Y-20783070D01*
X20660586Y-20783072D01*
X20616859Y-20843256D01*
X20558768Y-20923211D01*
X20480128Y-21077552D01*
X20426597Y-21242302D01*
X20399500Y-21413389D01*
X2000500Y-21413389D01*
X2000500Y-11102135D01*
X3649500Y-11102135D01*
X3649500Y-12897870D01*
X3649501Y-12897876D01*
X3655908Y-12957483D01*
X3706202Y-13092328D01*
X3706206Y-13092335D01*
X3792452Y-13207544D01*
X3792455Y-13207547D01*
X3907664Y-13293793D01*
X3907671Y-13293797D01*
X3952618Y-13310561D01*
X4042517Y-13344091D01*
X4102127Y-13350500D01*
X4112685Y-13350499D01*
X4179723Y-13370179D01*
X4200372Y-13386818D01*
X4870591Y-14057037D01*
X4807007Y-14074075D01*
X4692993Y-14139901D01*
X4599901Y-14232993D01*
X4534075Y-14347007D01*
X4517037Y-14410591D01*
X3884728Y-13778282D01*
X3884727Y-13778282D01*
X3845380Y-13832439D01*
X3748904Y-14021782D01*
X3683242Y-14223869D01*
X3683242Y-14223872D01*
X3650000Y-14433753D01*
X3650000Y-14646246D01*
X3683242Y-14856127D01*
X3683242Y-14856130D01*
X3748904Y-15058217D01*
X3845375Y-15247550D01*
X3884728Y-15301716D01*
X4517037Y-14669408D01*
X4534075Y-14732993D01*
X4599901Y-14847007D01*
X4692993Y-14940099D01*
X4807007Y-15005925D01*
X4870590Y-15022962D01*
X4238282Y-15655269D01*
X4238282Y-15655270D01*
X4292452Y-15694626D01*
X4292451Y-15694626D01*
X4301495Y-15699234D01*
X4352292Y-15747208D01*
X4369087Y-15815029D01*
X4346550Y-15881164D01*
X4301499Y-15920202D01*
X4292182Y-15924949D01*
X4120213Y-16049890D01*
X3969890Y-16200213D01*
X3844951Y-16372179D01*
X3748444Y-16561585D01*
X3682753Y-16763760D01*
X3649500Y-16973713D01*
X3649500Y-17186286D01*
X3682753Y-17396239D01*
X3748444Y-17598414D01*
X3844951Y-17787820D01*
X3969890Y-17959786D01*
X4120213Y-18110109D01*
X4292182Y-18235050D01*
X4300946Y-18239516D01*
X4351742Y-18287491D01*
X4368536Y-18355312D01*
X4345998Y-18421447D01*
X4300946Y-18460484D01*
X4292182Y-18464949D01*
X4120213Y-18589890D01*
X3969890Y-18740213D01*
X3844951Y-18912179D01*
X3748444Y-19101585D01*
X3682753Y-19303760D01*
X3649500Y-19513713D01*
X3649500Y-19726286D01*
X3682753Y-19936239D01*
X3748444Y-20138414D01*
X3844951Y-20327820D01*
X3969890Y-20499786D01*
X4120213Y-20650109D01*
X4292179Y-20775048D01*
X4292181Y-20775049D01*
X4292184Y-20775051D01*
X4481588Y-20871557D01*
X4683757Y-20937246D01*
X4893713Y-20970500D01*
X4893714Y-20970500D01*
X5106286Y-20970500D01*
X5106287Y-20970500D01*
X5316243Y-20937246D01*
X5518412Y-20871557D01*
X5707816Y-20775051D01*
X5729789Y-20759086D01*
X5879786Y-20650109D01*
X5879788Y-20650106D01*
X5879792Y-20650104D01*
X6030104Y-20499792D01*
X6030106Y-20499788D01*
X6030109Y-20499786D01*
X6155048Y-20327820D01*
X6155047Y-20327820D01*
X6155051Y-20327816D01*
X6251557Y-20138412D01*
X6317246Y-19936243D01*
X6350500Y-19726287D01*
X6350500Y-19513713D01*
X6334610Y-19413389D01*
X22399500Y-19413389D01*
X22399500Y-19586610D01*
X22421622Y-19726287D01*
X22426598Y-19757701D01*
X22480127Y-19922445D01*
X22558768Y-20076788D01*
X22660586Y-20216928D01*
X22783072Y-20339414D01*
X22923212Y-20441232D01*
X23077555Y-20519873D01*
X23242299Y-20573402D01*
X23413389Y-20600500D01*
X23487770Y-20600500D01*
X23554809Y-20620185D01*
X23575451Y-20636819D01*
X28213181Y-25274548D01*
X28246666Y-25335871D01*
X28249500Y-25362229D01*
X28249500Y-36878000D01*
X28229815Y-36945039D01*
X28177011Y-36990794D01*
X28125501Y-37002000D01*
X27954630Y-37002000D01*
X27954623Y-37002001D01*
X27895016Y-37008408D01*
X27760171Y-37058702D01*
X27760164Y-37058706D01*
X27644955Y-37144952D01*
X27644952Y-37144955D01*
X27558706Y-37260164D01*
X27558702Y-37260171D01*
X27508408Y-37395017D01*
X27502001Y-37454616D01*
X27502001Y-37454623D01*
X27502000Y-37454635D01*
X27502000Y-39545370D01*
X27502001Y-39545376D01*
X27508408Y-39604983D01*
X27558702Y-39739828D01*
X27558706Y-39739835D01*
X27644952Y-39855044D01*
X27644955Y-39855047D01*
X27760164Y-39941293D01*
X27760171Y-39941297D01*
X27895017Y-39991591D01*
X27895016Y-39991591D01*
X27901944Y-39992335D01*
X27954627Y-39998000D01*
X30045372Y-39997999D01*
X30104983Y-39991591D01*
X30239831Y-39941296D01*
X30355046Y-39855046D01*
X30441296Y-39739831D01*
X30449939Y-39716657D01*
X30482158Y-39630276D01*
X30482158Y-39630275D01*
X30489931Y-39609433D01*
X30491591Y-39604983D01*
X30498000Y-39545373D01*
X30497999Y-38382138D01*
X37502500Y-38382138D01*
X37502500Y-38617861D01*
X37539372Y-38850666D01*
X37612213Y-39074845D01*
X37719225Y-39284864D01*
X37779128Y-39367315D01*
X37779130Y-39367316D01*
X38387477Y-38758969D01*
X38410684Y-38814996D01*
X38483461Y-38923913D01*
X38576087Y-39016539D01*
X38685004Y-39089316D01*
X38741029Y-39112522D01*
X38132682Y-39720868D01*
X38215138Y-39780776D01*
X38425154Y-39887786D01*
X38649333Y-39960627D01*
X38882139Y-39997500D01*
X39117861Y-39997500D01*
X39350666Y-39960627D01*
X39574845Y-39887786D01*
X39784853Y-39780780D01*
X39784859Y-39780776D01*
X39867315Y-39720868D01*
X39867316Y-39720868D01*
X39258969Y-39112522D01*
X39314996Y-39089316D01*
X39423913Y-39016539D01*
X39516539Y-38923913D01*
X39589316Y-38814996D01*
X39612522Y-38758970D01*
X40220868Y-39367316D01*
X40220868Y-39367315D01*
X40280776Y-39284859D01*
X40280780Y-39284853D01*
X40387786Y-39074845D01*
X40460627Y-38850666D01*
X40497500Y-38617861D01*
X40497500Y-38382138D01*
X40460627Y-38149333D01*
X40387786Y-37925154D01*
X40280776Y-37715138D01*
X40220868Y-37632683D01*
X40220868Y-37632682D01*
X39612522Y-38241029D01*
X39589316Y-38185004D01*
X39516539Y-38076087D01*
X39423913Y-37983461D01*
X39314996Y-37910684D01*
X39258968Y-37887476D01*
X39867316Y-37279130D01*
X39867315Y-37279128D01*
X39784864Y-37219225D01*
X39574845Y-37112213D01*
X39350666Y-37039372D01*
X39117861Y-37002500D01*
X38882139Y-37002500D01*
X38649333Y-37039372D01*
X38425154Y-37112213D01*
X38215142Y-37219221D01*
X38132683Y-37279130D01*
X38132683Y-37279131D01*
X38741030Y-37887477D01*
X38685004Y-37910684D01*
X38576087Y-37983461D01*
X38483461Y-38076087D01*
X38410684Y-38185004D01*
X38387477Y-38241030D01*
X37779131Y-37632683D01*
X37779130Y-37632683D01*
X37719221Y-37715142D01*
X37612213Y-37925154D01*
X37539372Y-38149333D01*
X37502500Y-38382138D01*
X30497999Y-38382138D01*
X30497999Y-37454628D01*
X30491591Y-37395017D01*
X30441296Y-37260169D01*
X30441295Y-37260168D01*
X30441293Y-37260164D01*
X30355047Y-37144955D01*
X30355044Y-37144952D01*
X30239835Y-37058706D01*
X30239828Y-37058702D01*
X30104982Y-37008408D01*
X30104983Y-37008408D01*
X30045383Y-37002001D01*
X30045381Y-37002000D01*
X30045373Y-37002000D01*
X30045365Y-37002000D01*
X29874500Y-37002000D01*
X29807461Y-36982315D01*
X29761706Y-36929511D01*
X29750500Y-36878000D01*
X29750500Y-24926081D01*
X29750499Y-24926080D01*
X29740978Y-24878211D01*
X29721659Y-24781088D01*
X29665084Y-24644506D01*
X29665084Y-24644505D01*
X29610205Y-24562373D01*
X29582952Y-24521585D01*
X24636819Y-19575451D01*
X24603334Y-19514128D01*
X24600500Y-19487770D01*
X24600500Y-19413389D01*
X24573402Y-19242302D01*
X24573402Y-19242299D01*
X24519873Y-19077555D01*
X24441232Y-18923212D01*
X24339414Y-18783072D01*
X24216928Y-18660586D01*
X24076788Y-18558768D01*
X23922445Y-18480127D01*
X23757701Y-18426598D01*
X23757699Y-18426597D01*
X23757698Y-18426597D01*
X23626271Y-18405781D01*
X23586611Y-18399500D01*
X23413389Y-18399500D01*
X23373728Y-18405781D01*
X23242302Y-18426597D01*
X23077552Y-18480128D01*
X22923211Y-18558768D01*
X22880376Y-18589890D01*
X22783072Y-18660586D01*
X22783070Y-18660588D01*
X22783069Y-18660588D01*
X22660588Y-18783069D01*
X22660588Y-18783070D01*
X22660586Y-18783072D01*
X22616859Y-18843256D01*
X22558768Y-18923211D01*
X22480128Y-19077552D01*
X22426597Y-19242302D01*
X22399500Y-19413389D01*
X6334610Y-19413389D01*
X6317246Y-19303757D01*
X6251557Y-19101588D01*
X6155051Y-18912184D01*
X6155049Y-18912181D01*
X6155048Y-18912179D01*
X6030109Y-18740213D01*
X5879786Y-18589890D01*
X5707820Y-18464951D01*
X5707115Y-18464591D01*
X5699054Y-18460485D01*
X5648259Y-18412512D01*
X5631463Y-18344692D01*
X5653999Y-18278556D01*
X5699054Y-18239515D01*
X5707816Y-18235051D01*
X5729789Y-18219086D01*
X5879786Y-18110109D01*
X5879788Y-18110106D01*
X5879792Y-18110104D01*
X6030104Y-17959792D01*
X6030106Y-17959788D01*
X6030109Y-17959786D01*
X6155048Y-17787820D01*
X6155047Y-17787820D01*
X6155051Y-17787816D01*
X6251557Y-17598412D01*
X6317246Y-17396243D01*
X6350500Y-17186287D01*
X6350500Y-16973713D01*
X6317246Y-16763757D01*
X6251557Y-16561588D01*
X6155051Y-16372184D01*
X6155049Y-16372181D01*
X6155048Y-16372179D01*
X6030109Y-16200213D01*
X5879786Y-16049890D01*
X5707817Y-15924949D01*
X5698504Y-15920204D01*
X5647707Y-15872230D01*
X5630912Y-15804409D01*
X5653449Y-15738274D01*
X5698507Y-15699232D01*
X5707555Y-15694622D01*
X5761716Y-15655270D01*
X5761717Y-15655270D01*
X5129408Y-15022962D01*
X5192993Y-15005925D01*
X5307007Y-14940099D01*
X5400099Y-14847007D01*
X5465925Y-14732993D01*
X5482962Y-14669408D01*
X6115270Y-15301717D01*
X6115270Y-15301716D01*
X6154622Y-15247554D01*
X6251095Y-15058217D01*
X6316757Y-14856130D01*
X6316757Y-14856127D01*
X6350000Y-14646246D01*
X6350000Y-14433753D01*
X6316757Y-14223872D01*
X6316757Y-14223869D01*
X6251095Y-14021782D01*
X6154624Y-13832449D01*
X6115270Y-13778282D01*
X6115269Y-13778282D01*
X5482962Y-14410590D01*
X5465925Y-14347007D01*
X5400099Y-14232993D01*
X5307007Y-14139901D01*
X5192993Y-14074075D01*
X5129409Y-14057037D01*
X5799627Y-13386818D01*
X5860950Y-13353333D01*
X5887307Y-13350499D01*
X5897872Y-13350499D01*
X5957483Y-13344091D01*
X6092331Y-13293796D01*
X6207546Y-13207546D01*
X6293796Y-13092331D01*
X6344091Y-12957483D01*
X6350500Y-12897873D01*
X6350499Y-11102128D01*
X6344091Y-11042517D01*
X6293796Y-10907669D01*
X6293795Y-10907668D01*
X6293793Y-10907664D01*
X6207547Y-10792455D01*
X6207544Y-10792452D01*
X6092335Y-10706206D01*
X6092328Y-10706202D01*
X5957482Y-10655908D01*
X5957483Y-10655908D01*
X5897883Y-10649501D01*
X5897881Y-10649500D01*
X5897873Y-10649500D01*
X5897864Y-10649500D01*
X4102129Y-10649500D01*
X4102123Y-10649501D01*
X4042516Y-10655908D01*
X3907671Y-10706202D01*
X3907664Y-10706206D01*
X3792455Y-10792452D01*
X3792452Y-10792455D01*
X3706206Y-10907664D01*
X3706202Y-10907671D01*
X3655908Y-11042517D01*
X3654879Y-11052093D01*
X3649501Y-11102123D01*
X3649500Y-11102135D01*
X2000500Y-11102135D01*
X2000500Y-8434108D01*
X1966392Y-8306814D01*
X1900500Y-8192686D01*
X1807314Y-8099500D01*
X1621203Y-7913389D01*
X20899500Y-7913389D01*
X20899500Y-8086611D01*
X20907677Y-8138239D01*
X20916300Y-8192686D01*
X20926598Y-8257701D01*
X20980127Y-8422445D01*
X21058768Y-8576788D01*
X21160586Y-8716928D01*
X21283072Y-8839414D01*
X21423212Y-8941232D01*
X21577555Y-9019873D01*
X21742299Y-9073402D01*
X21913389Y-9100500D01*
X21913390Y-9100500D01*
X22086610Y-9100500D01*
X22086611Y-9100500D01*
X22257701Y-9073402D01*
X22422445Y-9019873D01*
X22576788Y-8941232D01*
X22716928Y-8839414D01*
X22769523Y-8786819D01*
X22830846Y-8753334D01*
X22857204Y-8750500D01*
X38137770Y-8750500D01*
X38204809Y-8770185D01*
X38225451Y-8786819D01*
X44363181Y-14924549D01*
X44396666Y-14985872D01*
X44399500Y-15012230D01*
X44399500Y-15086611D01*
X44426598Y-15257701D01*
X44480127Y-15422445D01*
X44558768Y-15576788D01*
X44660586Y-15716928D01*
X44783072Y-15839414D01*
X44923212Y-15941232D01*
X45077555Y-16019873D01*
X45242299Y-16073402D01*
X45413389Y-16100500D01*
X45413390Y-16100500D01*
X45586610Y-16100500D01*
X45586611Y-16100500D01*
X45757701Y-16073402D01*
X45922445Y-16019873D01*
X46076788Y-15941232D01*
X46216928Y-15839414D01*
X46339414Y-15716928D01*
X46441232Y-15576788D01*
X46519873Y-15422445D01*
X46573402Y-15257701D01*
X46600500Y-15086611D01*
X46600500Y-14913389D01*
X46573402Y-14742299D01*
X46519873Y-14577555D01*
X46441232Y-14423212D01*
X46339414Y-14283072D01*
X46216928Y-14160586D01*
X46076788Y-14058768D01*
X45922445Y-13980127D01*
X45757701Y-13926598D01*
X45757699Y-13926597D01*
X45757698Y-13926597D01*
X45626271Y-13905781D01*
X45586611Y-13899500D01*
X45586610Y-13899500D01*
X45512230Y-13899500D01*
X45445191Y-13879815D01*
X45424549Y-13863181D01*
X44037890Y-12476522D01*
X43955081Y-12393713D01*
X62649500Y-12393713D01*
X62649500Y-12606287D01*
X62682754Y-12816243D01*
X62709278Y-12897876D01*
X62748444Y-13018414D01*
X62844951Y-13207820D01*
X62969890Y-13379786D01*
X63120213Y-13530109D01*
X63292182Y-13655050D01*
X63300946Y-13659516D01*
X63351742Y-13707491D01*
X63368536Y-13775312D01*
X63345998Y-13841447D01*
X63300946Y-13880484D01*
X63292182Y-13884949D01*
X63120213Y-14009890D01*
X62969890Y-14160213D01*
X62844951Y-14332179D01*
X62748444Y-14521585D01*
X62682753Y-14723760D01*
X62649500Y-14933713D01*
X62649500Y-15146286D01*
X62674117Y-15301716D01*
X62682754Y-15356243D01*
X62704264Y-15422445D01*
X62748444Y-15558414D01*
X62844951Y-15747820D01*
X62969890Y-15919786D01*
X63120213Y-16070109D01*
X63292179Y-16195048D01*
X63292181Y-16195049D01*
X63292184Y-16195051D01*
X63481588Y-16291557D01*
X63683757Y-16357246D01*
X63893713Y-16390500D01*
X63893714Y-16390500D01*
X64106286Y-16390500D01*
X64106287Y-16390500D01*
X64316243Y-16357246D01*
X64518412Y-16291557D01*
X64707816Y-16195051D01*
X64729789Y-16179086D01*
X64879786Y-16070109D01*
X64879788Y-16070106D01*
X64879792Y-16070104D01*
X65030104Y-15919792D01*
X65030106Y-15919788D01*
X65030109Y-15919786D01*
X65155048Y-15747820D01*
X65155047Y-15747820D01*
X65155051Y-15747816D01*
X65251557Y-15558412D01*
X65317246Y-15356243D01*
X65350500Y-15146287D01*
X65350500Y-14933713D01*
X65317246Y-14723757D01*
X65251557Y-14521588D01*
X65155051Y-14332184D01*
X65155049Y-14332181D01*
X65155048Y-14332179D01*
X65030109Y-14160213D01*
X64879786Y-14009890D01*
X64707820Y-13884951D01*
X64707115Y-13884591D01*
X64699054Y-13880485D01*
X64648259Y-13832512D01*
X64631463Y-13764692D01*
X64653999Y-13698556D01*
X64699054Y-13659515D01*
X64707816Y-13655051D01*
X64729789Y-13639086D01*
X64879786Y-13530109D01*
X64879788Y-13530106D01*
X64879792Y-13530104D01*
X65030104Y-13379792D01*
X65030106Y-13379788D01*
X65030109Y-13379786D01*
X65155048Y-13207820D01*
X65155047Y-13207820D01*
X65155051Y-13207816D01*
X65251557Y-13018412D01*
X65317246Y-12816243D01*
X65350500Y-12606287D01*
X65350500Y-12393713D01*
X65317246Y-12183757D01*
X65251557Y-11981588D01*
X65155051Y-11792184D01*
X65155049Y-11792181D01*
X65155048Y-11792179D01*
X65030109Y-11620213D01*
X64916181Y-11506285D01*
X64882696Y-11444962D01*
X64887680Y-11375270D01*
X64929552Y-11319337D01*
X64960529Y-11302422D01*
X65092086Y-11253354D01*
X65092093Y-11253350D01*
X65207187Y-11167190D01*
X65207190Y-11167187D01*
X65293350Y-11052093D01*
X65293354Y-11052086D01*
X65343596Y-10917379D01*
X65343598Y-10917372D01*
X65349999Y-10857844D01*
X65350000Y-10857827D01*
X65350000Y-10210000D01*
X64433012Y-10210000D01*
X64465925Y-10152993D01*
X64500000Y-10025826D01*
X64500000Y-9894174D01*
X64465925Y-9767007D01*
X64433012Y-9710000D01*
X65350000Y-9710000D01*
X65350000Y-9062172D01*
X65349999Y-9062155D01*
X65343598Y-9002627D01*
X65343596Y-9002620D01*
X65293354Y-8867913D01*
X65293350Y-8867906D01*
X65207190Y-8752812D01*
X65207187Y-8752809D01*
X65092093Y-8666649D01*
X65092086Y-8666645D01*
X64957379Y-8616403D01*
X64957372Y-8616401D01*
X64897844Y-8610000D01*
X64250000Y-8610000D01*
X64250000Y-9526988D01*
X64192993Y-9494075D01*
X64065826Y-9460000D01*
X63934174Y-9460000D01*
X63807007Y-9494075D01*
X63750000Y-9526988D01*
X63750000Y-8610000D01*
X63102155Y-8610000D01*
X63042627Y-8616401D01*
X63042620Y-8616403D01*
X62907913Y-8666645D01*
X62907906Y-8666649D01*
X62792812Y-8752809D01*
X62792809Y-8752812D01*
X62706649Y-8867906D01*
X62706645Y-8867913D01*
X62656403Y-9002620D01*
X62656401Y-9002627D01*
X62650000Y-9062155D01*
X62650000Y-9710000D01*
X63566988Y-9710000D01*
X63534075Y-9767007D01*
X63500000Y-9894174D01*
X63500000Y-10025826D01*
X63534075Y-10152993D01*
X63566988Y-10210000D01*
X62650000Y-10210000D01*
X62650000Y-10857844D01*
X62656401Y-10917372D01*
X62656403Y-10917379D01*
X62706645Y-11052086D01*
X62706649Y-11052093D01*
X62792809Y-11167187D01*
X62792812Y-11167190D01*
X62907906Y-11253350D01*
X62907913Y-11253354D01*
X63039470Y-11302422D01*
X63095404Y-11344293D01*
X63119821Y-11409758D01*
X63104969Y-11478031D01*
X63083819Y-11506285D01*
X62969889Y-11620215D01*
X62844951Y-11792179D01*
X62748444Y-11981585D01*
X62682753Y-12183760D01*
X62649500Y-12393713D01*
X43955081Y-12393713D01*
X40707901Y-9146532D01*
X38978421Y-7417052D01*
X38978414Y-7417046D01*
X38904729Y-7367812D01*
X38904729Y-7367813D01*
X38855491Y-7334913D01*
X38718917Y-7278343D01*
X38718907Y-7278340D01*
X38573920Y-7249500D01*
X38573918Y-7249500D01*
X22857204Y-7249500D01*
X22790165Y-7229815D01*
X22769523Y-7213181D01*
X22716930Y-7160588D01*
X22716928Y-7160586D01*
X22576788Y-7058768D01*
X22422445Y-6980127D01*
X22257701Y-6926598D01*
X22257699Y-6926597D01*
X22257698Y-6926597D01*
X22126271Y-6905781D01*
X22086611Y-6899500D01*
X21913389Y-6899500D01*
X21873728Y-6905781D01*
X21742302Y-6926597D01*
X21577552Y-6980128D01*
X21423211Y-7058768D01*
X21343256Y-7116859D01*
X21283072Y-7160586D01*
X21283070Y-7160588D01*
X21283069Y-7160588D01*
X21160588Y-7283069D01*
X21160588Y-7283070D01*
X21160586Y-7283072D01*
X21122921Y-7334913D01*
X21058768Y-7423211D01*
X20980128Y-7577552D01*
X20926597Y-7742302D01*
X20899500Y-7913389D01*
X1621203Y-7913389D01*
X536819Y-6829005D01*
X503334Y-6767682D01*
X500500Y-6741324D01*
X500500Y-4385258D01*
X2749500Y-4385258D01*
X2749500Y-4614741D01*
X2774446Y-4804215D01*
X2779452Y-4842238D01*
X2779453Y-4842240D01*
X2838842Y-5063887D01*
X2926650Y-5275876D01*
X2926657Y-5275890D01*
X3041392Y-5474617D01*
X3181081Y-5656661D01*
X3181089Y-5656670D01*
X3343330Y-5818911D01*
X3343338Y-5818918D01*
X3525382Y-5958607D01*
X3525385Y-5958608D01*
X3525388Y-5958611D01*
X3724112Y-6073344D01*
X3724117Y-6073346D01*
X3724123Y-6073349D01*
X3815480Y-6111190D01*
X3936113Y-6161158D01*
X4157762Y-6220548D01*
X4385266Y-6250500D01*
X4385273Y-6250500D01*
X4614727Y-6250500D01*
X4614734Y-6250500D01*
X4842238Y-6220548D01*
X5063887Y-6161158D01*
X5275888Y-6073344D01*
X5474612Y-5958611D01*
X5656661Y-5818919D01*
X5656665Y-5818914D01*
X5656670Y-5818911D01*
X5818911Y-5656670D01*
X5818914Y-5656665D01*
X5818919Y-5656661D01*
X5958611Y-5474612D01*
X6073344Y-5275888D01*
X6161158Y-5063887D01*
X6220548Y-4842238D01*
X6250500Y-4614734D01*
X6250500Y-4385266D01*
X6220548Y-4157762D01*
X6161158Y-3936113D01*
X6104571Y-3799500D01*
X6073349Y-3724123D01*
X6073346Y-3724117D01*
X6073344Y-3724112D01*
X5958611Y-3525388D01*
X5958608Y-3525385D01*
X5958607Y-3525382D01*
X5818918Y-3343338D01*
X5818911Y-3343330D01*
X5656670Y-3181089D01*
X5656661Y-3181081D01*
X5474617Y-3041392D01*
X5275890Y-2926657D01*
X5275876Y-2926650D01*
X5063887Y-2838842D01*
X4842238Y-2779452D01*
X4804215Y-2774446D01*
X4614741Y-2749500D01*
X4614734Y-2749500D01*
X4385266Y-2749500D01*
X4385258Y-2749500D01*
X4168715Y-2778009D01*
X4157762Y-2779452D01*
X4064076Y-2804554D01*
X3936112Y-2838842D01*
X3724123Y-2926650D01*
X3724109Y-2926657D01*
X3525382Y-3041392D01*
X3343338Y-3181081D01*
X3181081Y-3343338D01*
X3041392Y-3525382D01*
X2926657Y-3724109D01*
X2926650Y-3724123D01*
X2838842Y-3936112D01*
X2838842Y-3936113D01*
X2785790Y-4134110D01*
X2779453Y-4157759D01*
X2779451Y-4157770D01*
X2749500Y-4385258D01*
X500500Y-4385258D01*
X500500Y-4134110D01*
X500500Y-4134108D01*
X466392Y-4006814D01*
X400500Y-3892686D01*
X307314Y-3799500D01*
X250250Y-3766554D01*
X193187Y-3733608D01*
X129539Y-3716554D01*
X65892Y-3699500D01*
X65891Y-3699500D01*
X-175500Y-3699500D01*
X-242539Y-3679815D01*
X-288294Y-3627011D01*
X-299500Y-3575500D01*
X-299500Y175500D01*
X-279815Y242539D01*
X-227011Y288294D01*
X-175500Y299500D01*
X3575500Y299500D01*
X3642539Y279815D01*
G37*
%TD.AperFunction*%
%TD*%
D20*
X40000000Y-69000000D02*
X51000000Y-69000000D01*
X38500000Y-67500000D02*
X40000000Y-69000000D01*
X30500000Y-67500000D02*
X38500000Y-67500000D01*
X29000000Y-69000000D02*
X30500000Y-67500000D01*
X28500000Y-69000000D02*
X29000000Y-69000000D01*
X1500000Y-60500000D02*
X1500000Y-44500000D01*
X0Y-62000000D02*
X1500000Y-60500000D01*
X0Y-63000000D02*
X0Y-62000000D01*
X67500000Y-60500000D02*
X67500000Y-16500000D01*
X69000000Y-62000000D02*
X67500000Y-60500000D01*
X69000000Y-64800000D02*
X69000000Y-62000000D01*
X1500000Y-8500000D02*
X1500000Y-44500000D01*
X0Y-7000000D02*
X1500000Y-8500000D01*
X0Y-6500000D02*
X0Y-7000000D01*
X0Y-6000000D02*
X0Y-6500000D01*
X4600000Y0D02*
X69000000Y0D01*
X28500000Y-69000000D02*
X26000000Y-69000000D01*
X64800000Y-69800000D02*
X64800000Y-69000000D01*
X64800000Y-69000000D02*
X62000000Y-69000000D01*
X69800000Y-69800000D02*
X64800000Y-69800000D01*
X69800000Y-69000000D02*
X69800000Y-69800000D01*
X4200000Y0D02*
X4600000Y0D01*
X26000000Y-69000000D02*
X25000000Y-69000000D01*
X4200000Y800000D02*
X4200000Y0D01*
X69000000Y0D02*
X69000000Y-7000000D01*
X67500000Y-8500000D02*
X67500000Y-16500000D01*
X51000000Y-69000000D02*
X62000000Y-69000000D01*
X0Y-4200000D02*
X0Y-6000000D01*
X0Y-63000000D02*
X0Y-69000000D01*
X0Y-4200000D02*
X-800000Y-4200000D01*
X-800000Y-4200000D02*
X-800000Y800000D01*
X69800000Y-64800000D02*
X69000000Y-64800000D01*
X25000000Y-69000000D02*
X0Y-69000000D01*
X-800000Y800000D02*
X4200000Y800000D01*
X69000000Y-7000000D02*
X67500000Y-8500000D01*
X69800000Y-69000000D02*
X69800000Y-64800000D01*
M02*
