%TF.GenerationSoftware,KiCad,Pcbnew,9.0.2*%
%TF.CreationDate,2025-05-20T18:43:21+03:00*%
%TF.ProjectId,Project_PCB,50726f6a-6563-4745-9f50-43422e6b6963,0*%
%TF.SameCoordinates,Original*%
%TF.FileFunction,Profile,NP*%
%FSLAX46Y46*%
G04 Gerber Fmt 4.6, Leading zero omitted, Abs format (unit mm)*
G04 Created by KiCad (PCBNEW 9.0.2) date 2025-05-20 18:43:21*
%MOMM*%
%LPD*%
G01*
G04 APERTURE LIST*
%TA.AperFunction,Profile*%
%ADD10C,0.050000*%
%TD*%
G04 APERTURE END LIST*
D10*
X40000000Y-69000000D02*
X51000000Y-69000000D01*
X38500000Y-67500000D02*
X40000000Y-69000000D01*
X30500000Y-67500000D02*
X38500000Y-67500000D01*
X29000000Y-69000000D02*
X30500000Y-67500000D01*
X28500000Y-69000000D02*
X29000000Y-69000000D01*
X1500000Y-60500000D02*
X1500000Y-44500000D01*
X0Y-62000000D02*
X1500000Y-60500000D01*
X0Y-63000000D02*
X0Y-62000000D01*
X67500000Y-60500000D02*
X67500000Y-16500000D01*
X69000000Y-62000000D02*
X67500000Y-60500000D01*
X69000000Y-64800000D02*
X69000000Y-62000000D01*
X1500000Y-8500000D02*
X1500000Y-44500000D01*
X0Y-7000000D02*
X1500000Y-8500000D01*
X0Y-6500000D02*
X0Y-7000000D01*
X0Y-6000000D02*
X0Y-6500000D01*
X4600000Y0D02*
X69000000Y0D01*
X28500000Y-69000000D02*
X26000000Y-69000000D01*
X64800000Y-69800000D02*
X64800000Y-69000000D01*
X64800000Y-69000000D02*
X62000000Y-69000000D01*
X69800000Y-69800000D02*
X64800000Y-69800000D01*
X69800000Y-69000000D02*
X69800000Y-69800000D01*
X4200000Y0D02*
X4600000Y0D01*
X26000000Y-69000000D02*
X25000000Y-69000000D01*
X4200000Y800000D02*
X4200000Y0D01*
X69000000Y0D02*
X69000000Y-7000000D01*
X67500000Y-8500000D02*
X67500000Y-16500000D01*
X51000000Y-69000000D02*
X62000000Y-69000000D01*
X0Y-4200000D02*
X0Y-6000000D01*
X0Y-63000000D02*
X0Y-69000000D01*
X0Y-4200000D02*
X-800000Y-4200000D01*
X-800000Y-4200000D02*
X-800000Y800000D01*
X69800000Y-64800000D02*
X69000000Y-64800000D01*
X25000000Y-69000000D02*
X0Y-69000000D01*
X-800000Y800000D02*
X4200000Y800000D01*
X69000000Y-7000000D02*
X67500000Y-8500000D01*
X69800000Y-69000000D02*
X69800000Y-64800000D01*
M02*
